<?xml version="1.0" encoding="UTF-8"?><svg xmlns="http://www.w3.org/2000/svg" viewBox="0 0 1938 1080"><defs><style>.cls-1{stroke-width:8.6px;}.cls-1,.cls-2,.cls-3,.cls-4,.cls-5,.cls-6,.cls-7,.cls-8,.cls-9,.cls-10,.cls-11,.cls-12,.cls-13,.cls-14,.cls-15,.cls-16,.cls-17{fill:none;stroke-linecap:round;stroke-miterlimit:10;}.cls-1,.cls-3,.cls-4,.cls-6,.cls-7,.cls-8,.cls-13,.cls-15{stroke:#b58c5f;}.cls-18{fill:#fb504e;}.cls-19{fill:#f93c1d;}.cls-20{fill:#686133;}.cls-21{fill:#698d1d;}.cls-22{fill:#e93b24;}.cls-23{fill:#ea321f;}.cls-24{fill:#ea4936;}.cls-25{fill:#e63d39;}.cls-26{fill:#ffe4ce;}.cls-27{fill:#ffcea9;}.cls-28{fill:#ef3a14;}.cls-29{fill:#ff4634;}.cls-30{fill:#665e57;}.cls-31{fill:#684d3b;}.cls-32{fill:#69c825;}.cls-33{fill:#7caa3a;}.cls-34{fill:#8d0807;}.cls-35{fill:#a50d0d;}.cls-36{fill:#340050;}.cls-37{fill:#a79f50;}.cls-38{fill:#c91908;}.cls-39{fill:#42210b;}.cls-40{fill:#42210a;}.cls-41{fill:#541a56;}.cls-42{fill:#628936;}.cls-43{fill:#2d1305;}.cls-44{fill:#2a062d;}.cls-45{fill:#4a5134;}.cls-46{fill:#5d1e50;}.cls-47{fill:#3b103c;}.cls-48{fill:#714475;}.cls-49{fill:#4d0050;}.cls-50{fill:#5d6840;}.cls-51{fill:#617f30;}.cls-52{fill:#788b52;}.cls-53{fill:#4f6a16;}.cls-54{fill:#4d6823;}.cls-2{stroke-width:7.17px;}.cls-2,.cls-5,.cls-9,.cls-11,.cls-12,.cls-14,.cls-16,.cls-17{stroke:#a67c52;}.cls-3{stroke-width:9.2px;}.cls-4{stroke-width:7.34px;}.cls-5{stroke-width:1.31px;}.cls-6{stroke-width:7.94px;}.cls-7{stroke-width:7.68px;}.cls-8{stroke-width:8.8px;}.cls-55{fill:#fff;}.cls-55,.cls-56{mix-blend-mode:soft-light;}.cls-56{fill:#f5e6e6;}.cls-9{stroke-width:6.54px;}.cls-10{stroke:#628936;stroke-width:3.31px;}.cls-11{stroke-width:2.62px;}.cls-12{stroke-width:5.33px;}.cls-13{stroke-width:10.3px;}.cls-14{stroke-width:4.86px;}.cls-15{stroke-width:9.51px;}.cls-57{isolation:isolate;}.cls-16{stroke-width:2.87px;}.cls-17{stroke-width:1.43px;}</style></defs><g class="cls-57"><g id="Layer_12"><rect x="-5.5" y="-3.5" width="1946" height="1093"/></g><g id="Layer_10"><g><path class="cls-33" d="M1654.83,73.4l-65.88-11.45s347.78-80.97,444.61,64.82l-40.05,41.68s-55.76,8.41-77,33c-21.24,24.59-77.14,79.35-77.14,79.35,0,0-36.15-97.91,14.16-166.09,0,0-80.43,104.8-74.45,168.06l-66.02,34.91s-6.5-66.74,20.66-99.35c27.16-32.61-64.25,70.28-57.42,115.59l-20.91,3.15s50.39-185.81,76.17-203.96c25.78-18.14-116.99,145.96-118.51,206.78l-77.66,75.87s1.79-153.53,52.3-196.79c0,0-90.36,109.86-88.72,191.59l-76.28,61.4s-9.66-87.65,10.01-122.69c0,0-48.73,78.63-40.32,134.39l-45.97,49.7s-31.48-137.82,9.43-197.45c0,0-54.79,133.01-47.43,181.8l-52.08,32.8s-14.33-47.74-4.07-74.24c0,0-34.27,80.02-30.59,104.41l-25.45-3.29s-6.5-66.74,5.86-79.3c12.36-12.56-10.01,122.69-33.35,133.34,0,0-53.91-73.85,41.32-198.7,0,0-35.18,26.69-45.64,28.27-10.45,1.58,100.62-136.36,100.62-136.36l-71.61,21.49s39.13-95.01,190.37-132.08l-54.38-6.06s168.6-110.97,325.43-134.62Z"/><path class="cls-54" d="M1186.05,521.87s84.96-98.36,80.76-126.24c0,0-29.26,18.67-47.21,17.81-17.95-.86,67.73-70.81,67.73-70.81,0,0,146.84-89.87,83.06-87.38,0,0,90.94-35.1,97.19-64.56,0,0-19.33,13.61-49.32,3.87,0,0,174.19-97.56,237.45-103.53,0,0-124.02,75.73-150.65,111.83,0,0-73.52,32.47-94.23,60.55,0,0-103.97,90.53-119.09,132.02-15.13,41.49-105.68,126.43-105.68,126.43Z"/><path class="cls-54" d="M1556.49,343.03s30.53-175.69,88-220c0,0,50.37,3.1,91.47-31.62l69.7-10.51s-153.47,69.48-166.17,103.48c-12.69,33.99-83,158.65-83,158.65Z"/><path class="cls-54" d="M1845.31,230.02s15.79-84.36,42.95-116.97c27.16-32.61,52.08-32.8,52.08-32.8,0,0-29.26,18.67-10.59,47.93,18.67,29.26-84.44,101.84-84.44,101.84Z"/></g><g><path class="cls-33" d="M129.22,692.6l48.24-2.22s-241.8-89.56-324.41,6.09l24.91,33.5s39.18,11.08,52.17,30.63c12.99,19.54,48.06,63.85,48.06,63.85,0,0,34.78-66.86,4.93-120.27,0,0,48.11,82.38,38.09,127.15l44.13,31s10.71-47.22-5.78-73.05c-16.5-25.83,39.65,56.18,30.64,88.02l14.69,4.16s-19.24-137.69-36.06-153.03c-16.82-15.34,70.57,115.18,66.14,158.89l48.75,61.4s12.65-110.15-19.61-145.73c0,0,54.76,86.91,46.18,145.31l49.08,50.91s14.87-61.92,3.96-88.81c0,0,27.78,60.76,16.69,99.94l28.42,39.78s35.06-95.88,11.16-142.31c0,0,27.18,100.26,17.48,134.55l34.33,28.23s14.6-32.9,9.65-52.81c0,0,17.29,60.43,12.44,77.58l18.53-.05s10.71-47.22,3-57.34c-7.72-10.12-3.96,88.81,11.79,98.55,0,0,45.32-48.01-11.57-146.1,0,0,22.78,22.31,30.13,24.39,7.35,2.08-59.71-106.82-59.71-106.82l49.35,21.9s-19.41-71.62-124.4-111.89l39.51,.6s-110.72-94.8-220.92-125.97Z"/><path class="cls-54" d="M424.36,1056.41s-51.94-78.17-46.4-97.76c0,0,19.27,16.03,32.21,17.05,12.94,1.01-42.1-56.87-42.1-56.87,0,0-97.04-77.71-51.57-70.13,0,0-61.97-33.4-63.77-55.07,0,0,12.62,11.5,34.98,7.25,0,0-115.94-85.7-160.71-95.72,0,0,81.98,65.51,97.78,93.78,0,0,49.72,29.93,62.01,51.93,0,0,66.27,74.29,73.34,105.38,7.07,31.1,64.24,100.16,64.24,100.16Z"/><path class="cls-54" d="M175.2,894.68s-5.93-128.63-43.08-165.59c0,0-36.36-2.35-62.66-30.95l-48.98-13.86s103.65,63.7,109.66,89.21c6.01,25.5,45.06,121.19,45.06,121.19Z"/></g></g><g id="Layer_8"><g><path class="cls-21" d="M1544.12,493.29s25.34-114.06,17.72-131.59c0,0,43.84,58.72,42.69,146.36l-36.59,20.58-23.81-35.35Z"/><path class="cls-53" d="M1563.49,409.13s4.28,77.62,26.8,113.96c0,0-23.4-87.14-26.8-113.96Z"/><path class="cls-53" d="M1567.4,382.78s32.31,70.71,29.28,113.35c0,0-19.81-88.02-29.28-113.35Z"/></g><g><ellipse class="cls-47" cx="1606.83" cy="828.78" rx="58.72" ry="58.28"/><ellipse class="cls-48" cx="1646.89" cy="834.27" rx="14.23" ry="7.26" transform="translate(566.08 2330.97) rotate(-81.03)"/><ellipse class="cls-31" cx="1561.07" cy="821.44" rx="13.49" ry="7.27" transform="translate(501.85 2232.04) rotate(-80.85)"/><ellipse class="cls-40" cx="1561.07" cy="821.44" rx="5.94" ry="3.2" transform="translate(501.85 2232.04) rotate(-80.85)"/></g><g><circle class="cls-41" cx="1687.14" cy="844.76" r="67.35"/><ellipse class="cls-48" cx="1735.83" cy="852.4" rx="23.56" ry="12.03" transform="translate(623.25 2434.13) rotate(-81.03)"/><ellipse class="cls-31" cx="1721.68" cy="797.27" rx="7.27" ry="13.49" transform="translate(113.65 1804.27) rotate(-56.9)"/><ellipse class="cls-40" cx="1721.68" cy="796.4" rx="3.2" ry="5.94" transform="translate(171.13 1889.22) rotate(-60)"/></g><g><circle class="cls-44" cx="1638.78" cy="929.38" r="65.62"/><ellipse class="cls-48" cx="1681.43" cy="916.3" rx="10.95" ry="21.46" transform="translate(-198.43 551.68) rotate(-17.61)"/><ellipse class="cls-31" cx="1599.06" cy="945.79" rx="6.04" ry="11.23" transform="translate(-146.84 310.69) rotate(-10.61)"/><ellipse class="cls-40" cx="1599.06" cy="945.79" rx="3.2" ry="5.94" transform="translate(-154.51 332.2) rotate(-11.32)"/></g><g><path class="cls-37" d="M94.47,826.34s18.31-97.54,27.06-106.13c13.13-12.87,46.65-46.51,52.93-51.05,7.03-5.07,47.17-43.35,55.39-43.2,8.67,.16,6.05,.98,6.05,.98,0,0-92.48,80.67-96.89,84.92-1.97,1.9-6.33,8.13-8,11.12-6.67,11.97-15.5,42.19-18.27,51.68-3.17,10.85-6.02,44.96-6.02,44.96l-12.26,6.71Z"/><path class="cls-37" d="M250.78,619.41s28.54,14.79,38.76,13.7c27.79-2.96,93.51,116.53,93.51,116.53l-16.1-9.74s-27.34-47.8-34.05-60.06c-6.71-12.26-14.74-18.71-36.65-34.47-22.25-16.01-65.57-16.79-65.57-16.79l20.1-9.17Z"/><path class="cls-51" d="M229.86,625.96s104.26-61.39,119.29-77.58c15.03-16.2,60.94-62.17,97.39-64.98,36.46-2.81,85.68,7.62,95,19.06,9.33,11.44,53.16,32.17,53.16,32.17,0,0,16.86,26.31-1.45,32.05l6.87,3.59s-44.93,39.93-73.54,40.27c-28.61,.35-83.22,.23-98.59-12.19-15.38-12.41-51.52-26.94-56.75-25.3-5.23,1.64-85.33,20.99-141.38,52.91Z"/><path class="cls-20" d="M263.76,606.1s85.08-40.39,95.54-43.66c10.46-3.28,38.75,3.46,49.22,10.43,8.17,5.44,26.34,29.08,26.34,29.08l-138.96,14.82-32.14-10.66Z"/><path class="cls-51" d="M230.68,628.58s-47.03-100.74-6.69-122.72c40.34-21.98,82.86-61.15,82.86-61.15,0,0,41.99-41.86,68.31-35.91,26.33,5.95,46.23-6.38,45.12,16.19-1.11,22.57-78.68,138.55-105.56,143.88-26.88,5.33-84.05,59.7-84.05,59.7Z"/><path class="cls-35" d="M371.86,969.19s-69.32-1.26-87.35-58.79c0,0-40.27-73.54-17.9-112.14,22.37-38.6,32.99-50.54,45.24-57.26,12.26-6.71,47.89-12.13,52.97-5.11,5.07,7.03,20.7,51.84,20.7,51.84l12.3,135.98-25.96,45.47Z"/><path class="cls-18" d="M386.25,749.28s14.52-36.14,48.21-29.46c33.68,6.68,40.29,21.92,50.54,32.99,7.8,8.43,18.81,14.21,26.19,37.75,7.37,23.54,7.91,48.26,5.77,64.25-6.02,44.96-37.23,86.03-45.87,91.92-5.1,3.47-23.54,7.37-23.54,7.37l-64.82-106.06,3.52-98.75Z"/><path class="cls-35" d="M113,818.22s31.48-24.78,49.63-21.85c18.15,2.93,38.1,2.42,43.17,9.45,5.07,7.03,34.19,26.62,41.06,30.22,10.3,5.39,13.27,33.18,13.27,33.18l-108.43-43.57-38.7-7.43Z"/><path class="cls-25" d="M94.47,826.34s35.95-22.75,67.02-15.25c31.07,7.5,44.15,3.4,62.96,17.61,18.81,14.21,32.71,12.73,37.47,37.08,4.76,24.36,10.7,55.21,11.66,73.89,.76,14.69-4.9,47.02-10.58,57.88-19.75,37.78-57.19,46.64-57.19,46.64,0,0-108.04,30.98-134.74-26.71-16.32-35.27-22.35-153.83-22.35-153.83l8.98-17.17,36.77-20.14Z"/><path class="cls-18" d="M130.28,1050.62s-103.48,18.06-82.22-198.25c1.27-12.96,29.24-35.01,46.41-26.03,0,0-32.67,33.21-24.48,59.37,8.19,26.15,1.99,33.84,2.49,53.79,.29,11.3,19.16,42.82,24.23,49.85,5.07,7.03,15.41,58.35,33.56,61.28Z"/><path class="cls-25" d="M371.86,969.19s-62.8-26.28-71.97-46.38c-9.17-20.1-36.68-80.41-29.34-102.81,7.34-22.4,28.07-66.23,62.89-74.27,34.82-8.04,51.06-8.35,70.96,6.49,13.29,9.9,27.66,3.47,48.59,45.09,6.17,12.26,4.6,33.02,13.77,53.12,9.17,20.1,4.13,59.02,4.13,59.02,0,0-14.68,44.81-23.35,44.65-8.67-.16-28.77,9.01-36.61,11.47-7.85,2.46-31.38,9.83-39.07,3.63Z"/><path class="cls-37" d="M222.83,631.04s43.95-33.88,105.74-47.49c15.62-3.44,30.72-21.11,64.25-5.77,33.9,15.51,42.04,24.17,42.04,24.17,0,0-197.47,38.89-212.03,29.1Z"/><path class="cls-55" d="M384.14,770.05s34.19,26.62,41.41,58.83c0,0-2.96-27.79-8.86-37.43-5.89-9.64-32.55-21.39-32.55-21.39Z"/><path class="cls-55" d="M186.04,843.6s34.19,26.62,41.41,58.83c0,0-2.96-27.79-8.86-37.43-5.89-9.64-32.55-21.39-32.55-21.39Z"/><path class="cls-20" d="M349.11,569.12c28.93-27.65,72.04-35.16,109.51-22.45,27.29,8.45,52.89,23.1,81.75,25.1,9.37,.7,18.85-.22,27.8-3.07,.72-.24,1.51,.16,1.74,.88,.22,.7-.15,1.45-.84,1.7-50.87,17.81-96.57-25.79-146.52-25.52-4.52-.07-9.5,.36-14,.87-11.61,1.52-22.98,4.79-33.65,9.68-8.51,3.97-16.58,8.94-23.98,14.84-.59,.48-1.47,.39-1.94-.21-.45-.56-.38-1.36,.13-1.85h0Z"/><path class="cls-20" d="M228.58,625.16c-4.97-33.02,12.01-64.5,29.94-90.95,12.42-17.73,27.03-33.93,43.44-48.05,16.13-14.25,34.94-25.33,53.19-36.39,8.99-5.62,17.65-11.73,25.29-19.01,.55-.52,1.42-.5,1.94,.05,.5,.52,.5,1.34,.02,1.87-14.58,15.97-33.97,26.45-51.34,38.71-34.59,24.2-63.2,56.69-83.32,93.76-4.95,9.23-9.3,18.8-12.3,28.83-2.98,9.98-4.62,20.39-4.13,30.9,.04,.76-.55,1.41-1.31,1.44-.7,.03-1.31-.47-1.42-1.15h0Z"/></g><g><path class="cls-37" d="M1037.7,241.65s12.13-64.62,17.93-70.3c8.7-8.53,30.9-30.81,35.06-33.82,4.65-3.36,31.25-28.72,36.69-28.62,5.74,.1,4.01,.65,4.01,.65,0,0-61.26,53.44-64.18,56.26-1.31,1.26-4.2,5.39-5.3,7.37-4.42,7.93-10.27,27.95-12.1,34.23-2.1,7.18-3.98,29.79-3.98,29.79l-8.12,4.45Z"/><path class="cls-37" d="M1141.24,104.58s18.9,9.8,25.67,9.08c18.41-1.96,61.94,77.19,61.94,77.19l-10.67-6.45s-18.11-31.67-22.56-39.79c-4.45-8.12-9.76-12.39-24.28-22.83-14.74-10.6-43.44-11.12-43.44-11.12l13.32-6.07Z"/><path class="cls-51" d="M1127.38,108.92s69.06-40.66,79.02-51.39c9.96-10.73,40.36-41.18,64.51-43.04,24.15-1.86,56.75,5.05,62.93,12.62,6.18,7.58,35.21,21.31,35.21,21.31,0,0,11.17,17.43-.96,21.23l4.55,2.38s-29.76,26.45-48.71,26.68c-18.95,.23-55.12,.15-65.31-8.07-10.19-8.22-34.13-17.84-37.59-16.76-3.46,1.09-56.52,13.9-93.65,35.05Z"/><path class="cls-20" d="M1149.84,95.76s56.36-26.75,63.29-28.92c6.93-2.17,25.67,2.29,32.6,6.91,5.41,3.6,17.45,19.26,17.45,19.26l-92.05,9.82-21.29-7.06Z"/><path class="cls-51" d="M1127.93,110.65s-31.15-66.73-4.43-81.29c26.72-14.56,54.89-40.5,54.89-40.5,0,0,27.81-27.73,45.25-23.79,17.44,3.94,30.63-4.23,29.89,10.73-.73,14.95-52.12,91.78-69.93,95.31-17.81,3.53-55.68,39.54-55.68,39.54Z"/><path class="cls-35" d="M1221.45,336.28s-45.92-.83-57.86-38.94c0,0-26.68-48.71-11.86-74.28,14.82-25.57,21.85-33.48,29.97-37.93,8.12-4.45,31.73-8.04,35.09-3.38,3.36,4.65,13.71,34.34,13.71,34.34l8.15,90.08-17.2,30.12Z"/><path class="cls-18" d="M1230.98,190.61s9.62-23.94,31.93-19.52c22.31,4.42,26.69,14.52,33.48,21.85,5.17,5.58,12.46,9.41,17.35,25,4.89,15.59,5.24,31.97,3.82,42.56-3.98,29.79-24.66,56.99-30.39,60.89-3.38,2.3-15.59,4.89-15.59,4.89l-42.94-70.25,2.33-65.41Z"/><path class="cls-35" d="M1049.97,236.27s20.85-16.41,32.88-14.47c12.02,1.94,25.23,1.61,28.6,6.26,3.36,4.65,22.65,17.64,27.2,20.02,6.83,3.57,8.79,21.98,8.79,21.98l-71.82-28.86-25.63-4.92Z"/><path class="cls-25" d="M1037.7,241.65s23.81-15.07,44.4-10.1c20.58,4.97,29.24,2.25,41.7,11.67,12.46,9.41,21.67,8.43,24.82,24.57,3.15,16.13,7.09,36.57,7.73,48.95,.5,9.73-3.25,31.15-7.01,38.34-13.09,25.03-37.88,30.89-37.88,30.89,0,0-71.57,20.52-89.25-17.69-10.81-23.36-14.8-101.9-14.8-101.9l5.95-11.38,24.36-13.34Z"/><path class="cls-18" d="M1061.42,390.22s-68.54,11.96-54.46-131.33c.84-8.58,19.37-23.19,30.74-17.24,0,0-21.64,22-16.22,39.32,5.43,17.32,1.32,22.42,1.65,35.63,.19,7.48,12.69,28.36,16.05,33.02,3.36,4.65,10.21,38.66,22.23,40.6Z"/><path class="cls-25" d="M1221.45,336.28s-41.6-17.41-47.67-30.72c-6.07-13.32-24.3-53.27-19.44-68.11,4.86-14.84,18.59-43.87,41.66-49.2,23.06-5.32,33.82-5.53,47.01,4.3,8.8,6.56,18.32,2.3,32.19,29.87,4.08,8.12,3.05,21.87,9.12,35.19,6.07,13.32,2.74,39.09,2.74,39.09,0,0-9.72,29.68-15.46,29.58-5.74-.1-19.06,5.97-24.25,7.6-5.2,1.63-20.79,6.51-25.88,2.4Z"/><path class="cls-37" d="M1122.73,112.28s29.12-22.44,70.05-31.46c10.35-2.28,20.35-13.99,42.56-3.82,22.45,10.28,27.84,16.01,27.84,16.01,0,0-130.81,25.76-140.45,19.27Z"/><path class="cls-55" d="M1229.58,204.36s22.65,17.64,27.43,38.97c0,0-1.96-18.41-5.87-24.8-3.9-6.39-21.56-14.17-21.56-14.17Z"/><path class="cls-55" d="M1098.36,253.09s22.65,17.64,27.43,38.97c0,0-1.96-18.41-5.87-24.8-3.9-6.39-21.56-14.17-21.56-14.17Z"/><path class="cls-20" d="M1206.38,71.26c14.11-13.44,34.15-20.18,53.54-18.69,19.39,1.38,36.57,11.3,54.79,16.86,11.87,3.58,24.78,5.46,36.78,1.56,.48-.16,1,.1,1.15,.59,.15,.46-.1,.96-.55,1.13-12.28,4.5-25.87,2.95-38.17-.57-18.39-5.17-35.15-14.85-54.25-16.17-18.67-1.27-37.51,4.97-52.09,16.67-.39,.32-.97,.26-1.28-.14-.29-.37-.25-.9,.08-1.22h0Z"/><path class="cls-20" d="M1126.53,108.39c-3.27-21.89,7.95-42.72,19.84-60.25,8.23-11.75,17.9-22.48,28.78-31.83,10.71-9.41,23.16-16.76,35.23-24.1,5.96-3.72,11.69-7.77,16.75-12.59,.36-.35,.94-.33,1.28,.03,.33,.35,.33,.89,.02,1.24-9.66,10.58-22.49,17.53-34.03,25.61-22.87,16.09-41.85,37.58-55.17,62.14-4.92,9.14-8.92,18.88-10.4,29.19-.48,3.42-.63,6.89-.48,10.37,.02,.5-.37,.93-.87,.95-.46,.02-.86-.31-.94-.76h0Z"/></g><g><path class="cls-32" d="M542.58,759.42s-13.4-111.52-64.81-136.31c0,0-90.62-40.2-113.02,4.17-28.66,56.77,2.52,71.88,18.88,86.94,11.01,10.14,27.15,35.85,44.43,40.15,9.63,2.39,105.72-5.36,114.52,5.06Z"/><path class="cls-32" d="M580.04,814.92s-53.98-55.17-95.95-36.5c0,0-41.54,6.76-50.45,24.79-8.91,18.03-2.04,31.13-2.04,31.13,0,0,13.74,26.19,32.2,23.19,0,0,37.69-3.76,44.22-4.83,9.23-1.5,70.84-30.47,72.02-37.77Z"/><path class="cls-32" d="M642.07,875.89s-38.63-48.19-65.57-39.07c0,0-48.84,5.58-65.04,22.43-16.21,16.85-19.44,26.14-17.82,36.06,.94,5.77,7.62,17.71,16.85,16.21s41.11,5.16,52.27,.97,76.96-21.99,79.32-36.59Z"/><path class="cls-32" d="M718.69,939.22s-30.15-54.31-64.39-46.37c0,0-49.59,.96-74.27,23.93-24.69,22.97-5.16,41.11-5.16,41.11,0,0,27.58,23.94,38.74,19.75,0,0,46.9-2.89,61.93-12.44,15.03-9.55,40.04-15.99,43.15-25.97Z"/><path class="cls-32" d="M785.34,999.44s-32.52-39.72-60.96-39.83c0,0-53.45,6.33-70.84,30.47-17.39,24.15-25.87,30.26-24.8,51.41,1.07,21.14,8.78,25.31,16.42,28.12,10.08,3.71,31.15,8.92,41.86,9.77,15.83,1.26,51.52-3.64,61.18-17.06,9.66-13.42,40.15-44.43,37.14-62.89Z"/><path class="cls-32" d="M812.08,843.49c-13.45,.2-31.13-2.04-38.96,37.13-7.84,39.17-6.9,38.14-3.65,50.34,2,7.54,3.75,23.08,11.8,28.87s19.53,18.14,24.15,17.39c4.62-.75,30.8-14.49,39.72-32.52,8.91-18.03,10.2-53.77,10.2-53.77,0,0-8.11-47.96-43.25-47.44Z"/><path class="cls-32" d="M735.13,763.63s-43.47,9.44-42.51,59.03c0,0-9.34,29.94-2.47,43.04,6.87,13.09,9.12,26.94,9.12,26.94,0,0,31.02,30.48,34.88,25.12,0,0,37.03-34.45,41.01-68.26,3.97-33.81,6.13-93.38-40.03-85.87Z"/><path class="cls-32" d="M652.82,679.9s-14.6-2.36-30.48,31.02c-15.89,33.38-14.82,54.52-14.82,54.52,0,0,1.07,21.14,9.87,31.56,0,0,.32,16.53,13.74,26.19,13.42,9.66,33.7,32.42,39.49,24.37,5.8-8.05,29.09-68.69,29.52-80.6,.43-11.91-.42-89.94-47.32-87.05Z"/><path class="cls-32" d="M617.93,703.22c3.99-14.7-18.45-55.56-47.19-49.08-28.74,6.48-28.04,34.16-28.04,34.16,0,0,2.94,44.31,10.23,52.66,4.75,5.45,10.12,19.37,18.35,22.27,8.23,2.9,24.91,17.94,24.91,17.94,0,0,16.38-58.17,21.74-77.95Z"/><path class="cls-42" d="M618.24,876.79c-3.87-3.65-8.43-7.24-12.67-10.46-4.42-3.28-8.8-6.55-13.94-8.7-2.5-1.23-.05-4.67,1.93-2.68,4.55,5.17,10.44,8.91,16.06,12.76,3.34,2.18,7.03,4.53,10.54,6.4,2.14,1.26-.03,4.32-1.93,2.68h0Z"/><path class="cls-42" d="M580.53,876.47c-5.78-5.57-12.14-10.49-18.84-14.87-2.28-1.4-4.58-2.76-7.11-3.81-.92-.38-1.35-1.44-.97-2.36,.48-1.22,2.19-1.48,3.02-.49,5.44,5.98,12.21,10.37,18.96,14.71,2.28,1.4,4.57,2.77,6.99,3.97,.88,.44,1.24,1.51,.8,2.39-.51,1.08-2.02,1.32-2.85,.46h0Z"/><path class="cls-42" d="M545.29,878.03c-6.94-6.92-17.21-16.11-27.74-13.57-2.7,.62-3-3.56-.22-3.31,5.78,.93,11.13,2.41,16.21,5.16,4.93,2.64,9.34,6.06,13.88,9.18,.76,.52,.95,1.55,.43,2.31-.57,.86-1.84,.97-2.56,.22h0Z"/><path class="cls-42" d="M567.76,878.59c-3.61,3.36-5.67,7.66-8.75,11.43-3.07,3.88-6.75,7.27-11.35,9.41-2,.9-3.4-2.05-1.43-3.02,2.3-.51,4.57-1.26,6.6-2.66,3.88-2.54,6.88-6.29,9.36-10.19,1.2-2.02,2.18-4.18,2.69-6.6,.2-.94,1.12-1.54,2.06-1.34,1.36,.24,1.85,2.08,.82,2.98h0Z"/><path class="cls-42" d="M605.67,878.6c-3.45,2.04-5.4,5.98-7.73,9.24-2.67,3.66-6.06,7.1-11.03,7.44-.98,.13-1.89-.59-1.94-1.59-.09-1.17,1.12-2.09,2.22-1.71,8.78,1.53,11.29-11,16.39-15.94,1.8-1.85,4.28,1.16,2.09,2.56h0Z"/><path class="cls-42" d="M561.52,816.56c-9.07-8.85-21.8-19.65-35.23-18.62-2.22,.19-2.58-3.08-.36-3.37,10.43,2.82,19.87,7.97,28.85,13.82,2.92,1.86,5.8,3.79,8.78,5.57,.79,.47,1.05,1.49,.58,2.29-.54,.93-1.88,1.09-2.62,.31h0Z"/><path class="cls-42" d="M518.35,818.11c-11.45-10.85-24.72-22.01-40.92-23.89-2.17-.25-1.9-3.46,.31-3.32,12,3.68,22.6,10.39,32.72,17.6,3.33,2.35,6.61,4.76,9.98,7.04,.76,.51,.96,1.54,.45,2.3-.57,.86-1.81,.98-2.54,.26h0Z"/><path class="cls-42" d="M474.43,820.27c-8.58-7.35-18.07-17.35-30.31-15.9-2.49,.29-2.51-3.51,0-3.23,9.3,1.44,16.76,6.97,24.31,12.06,2.48,1.64,5.02,3.2,7.73,4.35,.83,.35,1.22,1.31,.87,2.14-.41,1.02-1.8,1.33-2.6,.58h0Z"/><path class="cls-42" d="M502.82,820.96c-5.54,6.47-10.75,13.16-15.3,20.36-.47,.8-1.51,1.07-2.31,.59-1-.57-1.1-2.06-.19-2.76,3.29-2.65,6.05-5.84,8.57-9.2,2.49-3.38,4.76-6.93,6.45-10.79,1.14-2.32,4.43-.21,2.78,1.79h0Z"/><path class="cls-42" d="M543.93,817.55c-3.45,3.77-6.41,7.9-9.47,11.98-1.54,2.03-3.1,4.05-4.69,6.06-1.77,2.23-3.92,5.11-7.2,5.09-2.6-.02-2.14-3.91,.4-3.31,1.93,.39,3.8-1.81,5.2-3.18,5.22-5.48,9.65-11.71,13.04-18.49,1.2-2.22,4.37-.09,2.73,1.87h0Z"/><path class="cls-42" d="M691.33,938.99c-6.03-7.38-14.35-13.26-23.65-15.62-2.59-.74-.95-4.46,1.35-3.02,8.22,5.45,16.42,10.46,24.56,16.22,2.08,1.53-.57,4.39-2.26,2.42h0Z"/><path class="cls-42" d="M657.62,939.24c-5.17-5.34-11.14-9.75-17.41-13.7-2.1-1.3-4.25-2.52-6.53-3.55-.85-.38-1.23-1.38-.85-2.23,.46-1.09,2-1.33,2.78-.45,5.14,5.38,11.15,9.74,17.42,13.68,2.1,1.29,4.24,2.52,6.52,3.56,.85,.39,1.22,1.39,.83,2.23-.47,1.08-1.98,1.32-2.77,.45h0Z"/><path class="cls-42" d="M617.74,937.8c-3.33-3.16-6.89-6-10.53-8.73-2.74-2.04-5.51-4.04-8.51-5.7-.98-.56-1.97-1.02-2.84-1.03-3.04-.31-1.57-4.71,1.08-3.13,2.34,1.41,3.59,3.09,5.63,4.62,5.4,4.2,11.07,8,17.1,11.28,2.15,1.26-.03,4.33-1.93,2.68h0Z"/><path class="cls-42" d="M640.58,941.07c-6.85,8.37-13.38,16.83-20.49,25.02-1.77,1.95-4.36-1.08-2.14-2.52,4.58-2.67,8.2-6.68,11.38-10.87,3.19-4.23,6.02-8.74,8.51-13.48,1.21-2.11,4.26-.07,2.73,1.86h0Z"/><path class="cls-42" d="M683.11,939.42c-4.13,3.84-7.31,8.5-10.58,13.07-3.65,4.67-6.26,10.12-12.28,12.51-2.4,.77-3.22-2.92-.71-3.24,7.3-.47,17.51-18.01,20.94-24.35,1.31-2.26,4.48,.13,2.63,2.01h0Z"/><path class="cls-42" d="M771.56,1004.75c-12.38-12.61-28.84-21.77-46.39-24.4-2.14-.35-1.72-3.54,.47-3.28,8.89,2.49,17.5,5.72,25.66,9.92,8.1,4.19,15.64,9.38,22.54,15.36,.69,.6,.77,1.64,.17,2.33-.63,.74-1.77,.77-2.44,.07h0Z"/><path class="cls-42" d="M691.02,1025.42c-2.65-5.01-7.72-8.21-12.86-10.22-6.61-2.56-14.12-3.32-20.97-1.39-2.45,.59-2.98-3.2-.43-3.28,8.26,0,16.35,1.73,23.76,5.28,4.46,2.25,8.44,4.73,12.88,7.31,2.44,1.67-.78,4.81-2.38,2.31h0Z"/><path class="cls-42" d="M713.31,1022.53c-4.63,5.24-9.38,11.09-13.78,16.53-4.82,7.81-9.95,15.51-14.99,23.22-1.3,1.87-4.09-.16-2.65-1.97,5.73-7.17,11.45-14.45,17.35-21.46,0,0,1.66-2.58,1.66-2.58,3.23-5.01,6.74-10.56,9.74-15.68,1.28-2.02,4.21,.06,2.68,1.94h0Z"/><path class="cls-42" d="M756.35,1011.51c-6,6.31-11.05,13.32-16.07,20.39-4.98,7.08-9.87,14.21-14.37,21.62-1.31,2-4.2-.12-2.65-1.98,8.37-9.9,16.2-20.24,23.59-30.88,2.42-3.59,4.77-7.24,6.81-11.1,1.26-2.15,4.35,.03,2.68,1.94h0Z"/><path class="cls-42" d="M732.27,1016.03c-4.37-4.71-9.56-8.35-14.77-12-5.09-3.26-10.27-7.72-16.16-9.08-2.39-.56-1.28-4.09,1.02-3.15,3.18,1.48,5.78,3.52,8.26,5.52,4.98,3.93,9.98,7.82,15.26,11.33,2.66,1.73,5.38,3.37,8.33,4.7,.85,.38,1.23,1.38,.85,2.23-.46,1.09-2,1.34-2.78,.45h0Z"/><path class="cls-42" d="M830.59,860.93c-4.31,4.35-8.11,9.12-11.75,14.02-2.48,3.16-3.98,6.2-6.93,9.4-.68,.74-1.82,.78-2.56,.11-1.16-1-.44-3.05,1.07-3.13,4.9-.84,7.18-6.19,9.93-9.78,2.73-4.06,5.34-8.17,7.55-12.55,1.26-2.23,4.42,.02,2.68,1.94h0Z"/><path class="cls-42" d="M834.68,903.58c-5.28,6.84-10.77,13.35-17.45,18.84-2.2,1.83-4.5,3.55-6.86,5.28-.75,.55-1.8,.4-2.35-.36-.67-.88-.24-2.23,.81-2.57,3.25-1.1,6.34-2.87,9.15-4.86,3.9-2.88,7.46-6.39,10.13-10.44,1.52-2.33,2.83-4.8,3.66-7.46,.28-.89,1.22-1.38,2.11-1.1,1.12,.33,1.55,1.78,.8,2.67h0Z"/><path class="cls-42" d="M805.49,950.78c-9.22-7.44-18.56-14.7-28.72-20.84-2.05-1.32,.14-4.25,1.99-2.64,6.66,5.84,13.94,10.89,21.23,15.9,2.45,1.68,4.92,3.32,7.44,4.9,1.92,1.3-.09,4.11-1.94,2.68h0Z"/><path class="cls-42" d="M807.47,907.43c-3.56-3.61-8.28-5.96-12.15-9.4-2.01-1.75-3.65-3.98-5.11-6.18-1.42-2.17-2.83-4.29-4.31-6.39-.53-.75-.35-1.78,.4-2.31,.8-.57,1.95-.3,2.42,.57,2.47,4.3,4.6,9.12,8.26,12.48,3.76,3.47,8.49,5.59,12.67,8.73,.74,.54,.9,1.58,.36,2.32-.59,.83-1.83,.91-2.53,.17h0Z"/><path class="cls-42" d="M737.78,830.76c-5.37-4.03-11-8.43-14.56-14.25-3.66-5.52-7.49-11.23-11.61-16.41-1.4-1.92,1.57-3.88,2.77-1.8,4,7.27,8.05,14.68,13.26,21.13,1.08,1.21,2.25,2.32,3.54,3.33,2.55,2.03,5.42,3.66,8.39,5.22,.81,.43,1.12,1.43,.7,2.24-.47,.91-1.69,1.17-2.49,.53h0Z"/><path class="cls-42" d="M759.87,833.44c-6.99,6.89-11.03,16.87-19.46,22.54-1.98,1.28-3.76-1.76-1.66-2.86,8.84-4.55,12.89-14.02,18.61-21.83,1.44-1.9,4.18,.41,2.51,2.15h0Z"/><path class="cls-42" d="M760.84,781.17c-6.99,6.89-11.03,16.86-19.46,22.54-1.99,1.28-3.77-1.76-1.66-2.86,8.84-4.55,12.89-14.02,18.61-21.83,1.44-1.9,4.18,.41,2.51,2.15h0Z"/><path class="cls-42" d="M736.11,891.25c-9.1-6.2-18.03-12.97-24.7-21.85-2.24-2.97-4.19-6.18-5.79-9.58-.39-.83-.04-1.82,.79-2.21,.86-.41,1.91,0,2.25,.9,3.87,9.96,11.71,17.84,20.22,24.07,2.89,2.11,5.9,4.06,9,5.87,.79,.46,1.06,1.47,.6,2.26-.48,.83-1.58,1.08-2.36,.53h0Z"/><path class="cls-42" d="M652.35,757.02c-5.37-4.03-11-8.43-14.56-14.25-3.66-5.52-7.49-11.23-11.61-16.41-1.4-1.92,1.57-3.88,2.77-1.8,4,7.27,8.05,14.68,13.26,21.13,1.08,1.21,2.25,2.32,3.54,3.33,2.55,2.03,5.42,3.66,8.39,5.22,.81,.43,1.12,1.43,.7,2.24-.47,.91-1.69,1.17-2.49,.53h0Z"/><path class="cls-42" d="M678.31,754.33c-6.99,6.89-11.03,16.86-19.46,22.54-1.98,1.28-3.76-1.76-1.66-2.86,8.84-4.55,12.89-14.02,18.61-21.83,1.44-1.91,4.18,.41,2.51,2.15h0Z"/><path class="cls-42" d="M683.14,798.55c-6.99,6.89-11.03,16.86-19.46,22.54-1.99,1.28-3.77-1.76-1.66-2.86,8.84-4.55,12.89-14.02,18.61-21.83,1.44-1.9,4.18,.41,2.51,2.15h0Z"/><path class="cls-42" d="M673.49,710.11c-6.99,6.89-11.03,16.86-19.46,22.54-1.98,1.28-3.77-1.76-1.66-2.86,8.84-4.55,12.89-14.02,18.61-21.83,1.44-1.9,4.18,.41,2.51,2.15h0Z"/><path class="cls-42" d="M658.41,806.78c-9.1-6.2-18.03-12.97-24.7-21.85-2.24-2.97-4.19-6.18-5.79-9.58-.39-.83-.04-1.82,.79-2.21,.86-.41,1.91,0,2.25,.9,3.87,9.96,11.71,17.84,20.22,24.07,2.89,2.11,5.9,4.06,9,5.87,.79,.46,1.06,1.47,.6,2.26-.48,.83-1.58,1.08-2.36,.53h0Z"/><path class="cls-42" d="M580.42,712.23c-1.81-1.42-3.71-2.81-5.45-4.39-3.53-3.14-5.66-7.35-8.39-11.1-1.31-1.89-2.67-3.73-4.1-5.54-.39-.49-.3-1.21,.19-1.6,.55-.44,1.39-.26,1.71,.36,2.13,4.06,4.53,8,7.05,11.82,1.27,1.88,2.7,3.6,4.48,4.96,1.75,1.39,3.72,2.51,5.75,3.58,.56,.29,.77,.98,.48,1.54-.32,.62-1.16,.8-1.71,.37h0Z"/><path class="cls-42" d="M598.23,710.38c-4.84,4.8-7.55,11.54-13.35,15.46-1.35,.88-2.58-1.22-1.14-1.96,6.04-3.08,8.89-9.71,12.76-14.97,.98-1.32,2.89,.29,1.72,1.47h0Z"/><path class="cls-42" d="M603.47,738.03c-4.84,4.8-7.55,11.54-13.35,15.46-1.35,.88-2.59-1.22-1.14-1.96,6.04-3.08,8.89-9.71,12.76-14.97,.98-1.32,2.89,.29,1.72,1.47h0Z"/><path class="cls-42" d="M594.92,680.05c-4.84,4.8-7.55,11.54-13.35,15.46-1.35,.88-2.58-1.22-1.14-1.96,6.04-3.08,8.9-9.71,12.76-14.97,.98-1.32,2.89,.29,1.72,1.47h0Z"/><path class="cls-42" d="M587.26,748.3c-8.32-5.63-16.58-12.23-20.91-21.56-.27-.57-.02-1.24,.54-1.51,.59-.28,1.3,0,1.54,.62,2.66,6.83,8.03,12.24,13.87,16.51,1.98,1.45,4.05,2.78,6.17,4.03,.54,.32,.72,1.01,.4,1.55-.33,.56-1.08,.73-1.62,.36h0Z"/><path class="cls-42" d="M408.72,621.05c6.55,5.5,10.43,13.65,12.34,21.82,1.88,8.11,2.33,16.35,1.94,24.59-.1,1.89-2.84,2.15-3.29,.31-1.86-7.76-2.97-15.64-5.1-23.23-1.54-5.6-3.64-10.84-6.02-16.11-.82-1.77-1.66-3.54-2.49-5.38-.75-1.59,1.3-3.14,2.62-2h0Z"/><path class="cls-42" d="M435.07,679.88c-12.81,3.79-26.73,2.53-39.35-1.42-4.21-1.38-8.31-3.09-12.15-5.26-.8-.45-1.08-1.47-.63-2.26,.4-.7,1.22-1,1.96-.76,11.98,3.98,24.4,6.19,37.01,6.42,4.19,.14,8.38,.06,12.65,.03,1.89-.01,2.32,2.71,.5,3.27h0Z"/><path class="cls-42" d="M467.28,641.9c13.55,18.66,15.52,44.76,6.72,65.85-.36,.84-1.33,1.23-2.17,.88-.79-.34-1.18-1.23-.93-2.03,3.34-10.35,4.43-21.34,3.24-32.12-1.17-10.8-4.64-21.17-9.66-30.81-.93-1.78,1.59-3.38,2.8-1.76h0Z"/><path class="cls-42" d="M492.52,722.36c-5.33,6.45-11.87,12.39-20.74,12.68-8.13,.36-16.03-.26-24.07-1.34-5.3-.76-10.57-1.94-15.69-3.62-.87-.28-1.34-1.22-1.06-2.09,.28-.86,1.21-1.33,2.07-1.06,9.89,3.06,20.32,4.27,30.76,4.58,5.23,.13,10.43,.28,14.78-1.7,4.41-1.98,7.94-5.82,11.49-9.67,1.46-1.55,3.86,.57,2.46,2.21h0Z"/><path class="cls-42" d="M504.25,683.3c12,17.54,18.98,38.34,17.43,59.72-.05,.91-.84,1.61-1.75,1.55-.98-.05-1.71-.98-1.53-1.95,1.85-10.1,1.13-20.67-1.65-30.57-2.81-9.88-7.67-19.43-15.05-26.65-1.67-1.75,1.13-4.1,2.55-2.1h0Z"/><path class="cls-42" d="M381.48,635.26c55.96,40.68,111.64,83.15,166.42,125.47,58.28,53.23,133.74,122.17,191.28,175.26,41.64,39.58,86.91,82.8,128.16,122.53,.66,.63,.68,1.68,.04,2.34-.62,.65-1.65,.67-2.31,.07-42.07-38.73-87.95-81.39-129.96-120.54-33.17-29.91-78.03-70.4-111.22-100.63,.1,.08-81.57-74.06-80.51-73.14-10.29-7.86-31.05-23.84-41.29-31.78-37.78-29.18-75.37-58.73-112.52-88.72,0,0-10.1-8.23-10.1-8.23-.71-.58-.81-1.62-.24-2.33,.56-.68,1.55-.8,2.25-.29h0Z"/><path class="cls-10" d="M599.23,814.25s-137.2,3.29-145.68,9.4"/><path class="cls-10" d="M669.65,877.79s-101.38-4.11-145.6,.72"/><path class="cls-42" d="M812.17,848.53c-.81,50.79-1.9,102.22-4.47,152.97,0,0-.09,1.62-.09,1.62-7.29,.11-14.58,.53-21.87,.65-19.98,5.32-45.16,11.46-66.78,17.4-20.84,5.76-41.91,11.05-62.16,18.66,0,0-3.85,1.69-3.85,1.69-.85,.47-1.97,.15-2.36-.77-.36-.82,0-1.79,.82-2.16l4.07-1.87c20.26-8.06,41.45-13.59,62.38-19.54,22.38-6.08,44.79-12.01,67.35-17.4,6.91-.19,13.87-.03,20.79,.01,0,0-1.63,1.6-1.63,1.6,.21-37.89,1.57-76.87,2.91-114.74,.46-12.74,.97-25.49,1.56-38.23,.04-.91,.82-1.62,1.73-1.58,.89,.04,1.59,.79,1.58,1.67h0Z"/><path class="cls-10" d="M740.87,769.8l-5.65,169.1s-137.6-1.3-149.51-1.73"/><polyline class="cls-10" points="647.4 690.26 662.62 827.54 672.81 875.62"/><polyline class="cls-10" points="575.6 671.15 589.86 758.84 600.8 811.54"/></g><g><g><path class="cls-21" d="M79.77,288.02S-35.01,5.69-77.37-20.63c0,0,176.36,52.28,303.87,242.06l-43.2,107.14-103.53-40.55Z"/><path class="cls-53" d="M-35.39,15.62S140.59,116.37,198.99,211.37c0,0-175.81-156.46-234.38-195.75Z"/><path class="cls-53" d="M-38.33,23.39S78.03,189.46,177.95,238.96c0,0-171.83-160.83-216.29-215.57Z"/></g><g><path class="cls-21" d="M292.61,134.1s66.3-297.47,46.45-343.22c0,0,114.24,153.25,111.09,381.86l-95.48,53.62-62.06-92.26Z"/><path class="cls-53" d="M343.31-85.4s11.03,202.48,69.7,297.31c0,0-60.89-227.34-69.7-297.31Z"/><path class="cls-53" d="M353.53-154.12S437.69,30.37,429.71,141.6c0,0-51.52-229.64-76.18-295.72Z"/></g><g><ellipse class="cls-47" cx="417.18" cy="407.35" rx="134.22" ry="135.21"/><ellipse class="cls-48" cx="404.62" cy="315.09" rx="32.77" ry="16.73" transform="translate(-44 66.62) rotate(-8.93)"/><ellipse class="cls-31" cx="434.01" cy="512.75" rx="31.07" ry="16.73" transform="translate(-75.71 75.18) rotate(-9.11)"/><ellipse class="cls-40" cx="434.01" cy="512.75" rx="13.68" ry="7.36" transform="translate(-75.71 75.18) rotate(-9.11)"/></g><g><circle class="cls-41" cx="380.52" cy="222.4" r="155.1"/><ellipse class="cls-48" cx="363" cy="110.25" rx="54.27" ry="27.7" transform="translate(-12.71 57.68) rotate(-8.93)"/><ellipse class="cls-31" cx="489.94" cy="142.94" rx="16.73" ry="31.07" transform="translate(1.34 290.38) rotate(-33.06)"/><ellipse class="cls-40" cx="491.93" cy="142.94" rx="7.36" ry="13.68" transform="translate(-5.65 264.77) rotate(-29.96)"/></g><g><circle class="cls-44" cx="185.58" cy="333.62" r="151.12"/><ellipse class="cls-48" cx="215.77" cy="235.42" rx="25.23" ry="49.41" transform="translate(-74 369.65) rotate(-72.35)"/><ellipse class="cls-31" cx="147.73" cy="425.06" rx="13.92" ry="25.85" transform="translate(-297.31 491.68) rotate(-79.35)"/><ellipse class="cls-40" cx="147.73" cy="425.06" rx="7.36" ry="13.68" transform="translate(-298.1 486.2) rotate(-78.64)"/></g></g><g><path class="cls-12" d="M1547.22,1056.53c-5.7-19.19,4.33-39.72,17.64-54.68,13.31-14.95,30.05-26.74,42.12-42.71,9.69-12.83,15.98-27.88,21.24-43.07"/><path class="cls-12" d="M1718.47,1052.52c4.61-19.48-6.56-39.42-20.69-53.6-14.13-14.18-31.51-25-44.46-40.27-10.4-12.26-17.53-26.93-23.64-41.8"/><path class="cls-2" d="M1308.56,1064.21c-.75-16.81,9.28-32.87,23.07-42.5,13.79-9.63,30.85-13.57,47.64-14.65,18.23-1.17,37.72,.51,53.55-8.61,9.39-5.41,16.4-14.08,24.88-20.82,17.79-14.13,40.93-19.02,62.88-24.89,35.92-9.6,70.76-22.83,105.52-36.03"/><path class="cls-2" d="M1956.59,1047.85c-.2-16.82-11.12-32.29-25.43-41.13-14.31-8.84-31.56-11.81-48.39-11.94-18.27-.14-37.63,2.64-53.95-5.58-9.68-4.87-17.17-13.13-26.02-19.38-18.56-13.1-41.94-16.68-64.18-21.3-36.41-7.56-71.93-18.8-107.38-30.02"/><path class="cls-12" d="M1424.21,1084.14c-3.63-11.97,.63-25.4,8.8-34.88,8.17-9.48,19.73-15.46,31.63-19.33,12.93-4.2,27.28-6.58,37.01-16.07,5.77-5.63,9.22-13.17,14.1-19.59,10.22-13.46,25.99-21.25,40.73-29.52,24.12-13.54,46.79-29.49,69.41-45.4"/><path class="cls-12" d="M1838.24,1071.52c2.95-12.16-2.06-25.32-10.75-34.33-8.69-9.01-20.57-14.33-32.67-17.52-13.14-3.47-27.61-5.03-37.86-13.96-6.08-5.29-9.95-12.63-15.18-18.76-10.96-12.86-27.15-19.75-42.33-27.17-24.84-12.16-48.38-26.8-71.86-41.42"/><path class="cls-17" d="M1464.08,1071.76c.37-9.13-.08-18.3-1.34-27.35-.58-4.18-1.02-9.38,1.54-12.74-4.53,.73-9.32-.24-13.2-2.68-2.33-1.46-4.33-3.41-6.66-4.87-5.3-3.31-11.82-3.8-18.06-4.2"/><path class="cls-16" d="M1488.4,989.77c10.9-7.35,26.07-2.01,38.44-6.48,7.94-2.87,14.35-9.67,22.7-10.92,9.96-1.49,19.4,5.35,29.47,5.55"/><path class="cls-16" d="M1591.46,976.55c4.44-2.13,9.84,.78,12.75,4.76,2.96,4.04,4.33,9.11,7.47,13.01,3.18,3.95,8.12,6.43,13.19,6.6"/><path class="cls-17" d="M1528.21,1025.37c.14-4.49,2.42-8.79,5.78-11.78,3.36-2.99,7.72-4.73,12.17-5.34,4.76-.65,9.83-.12,14.18-2.16"/><path class="cls-17" d="M1623.54,949.09c-4.57,5.24-9.13,10.48-13.7,15.72-1.98,2.28-3.99,4.58-6.46,6.32-2.47,1.74-5.49,2.88-8.49,2.55"/><path class="cls-16" d="M1648.17,960.16c9.81-1.07,20.12-2.07,29.22,1.76,6.11,2.57,11.77,7.31,18.39,6.91"/><path class="cls-17" d="M1662.37,1025.06c-.62-4.4-1.2-9.13,.82-13.1,1.02-2.01,2.64-3.65,4.33-5.15,3.63-3.21,7.73-5.89,12.12-7.95,3.27-1.53,6.91-2.88,8.86-5.91"/><path class="cls-17" d="M1693.55,1005.27c6.95-.83,14.33-1.61,20.68,1.36,4.26,1.99,7.63,5.49,11.78,7.69,3.63,1.93,7.81,2.81,11.92,2.5"/><path class="cls-17" d="M1658.35,938.44c-.12,4.07,.07,8.16,.59,12.2"/><path class="cls-17" d="M1668.78,943.42c5.67-1.06,11.69-.19,16.82,2.45"/><path class="cls-16" d="M1717.58,969.18c10.28-5.6,22.94-3.01,34.16,.33,11.22,3.34,23.1,7.32,34.35,4.08"/><path class="cls-17" d="M1736.59,979.9c-1,8.15,1.27,16.66,6.2,23.23,2.34,3.12,5.24,5.81,7.41,9.06,2.77,4.14,4.24,9.13,4.18,14.1"/><path class="cls-17" d="M1767.64,1012.26c2.37-3.89,6.53-6.42,10.88-7.75,4.35-1.33,8.95-1.59,13.5-1.84"/><path class="cls-17" d="M1790.17,1020.12c-.96,6.27,2.42,12.98,8.03,15.94"/><path class="cls-17" d="M1552.17,954.45c8.76,.2,17.53-.21,26.23-1.23"/><path class="cls-17" d="M1718.42,944.61c.85,4.15,3.28,7.87,6.39,10.75,3.11,2.88,6.86,4.98,10.73,6.69"/><path class="cls-17" d="M1822.01,987.47c.15,3.53,2.57,6.6,5.45,8.64,2.87,2.05,6.22,3.3,9.34,4.95,8.78,4.63,15.8,12.5,19.38,21.76"/><path class="cls-17" d="M1816.58,1029.18c6.5-.8,13.55-1.48,19.16,1.89,2.86,1.72,5.04,4.35,7.57,6.53,4.33,3.74,9.77,6.18,15.44,6.93"/><path class="cls-17" d="M1319.27,1029.36c.7,7.68,5.26,14.41,7.54,21.77,2.79,9.05,1.96,19.17-2.27,27.65"/><path class="cls-16" d="M1416.56,1003.68c-5.06-4.46-10.61-8.54-16.98-10.75-15.75-5.45-33.09,1.41-49.67-.25"/><path class="cls-17" d="M1856.46,995.14c4.51-5.84,11.26-9.91,18.53-11.19,9.35-1.64,19.36,1.15,28.25-2.17"/><path class="cls-17" d="M1913.36,998.36c3.03,1.02,4.46,4.43,5.24,7.53,1.36,5.4,1.84,11.02,1.42,16.57-.27,3.64-.93,7.28-.76,10.93,.17,3.65,1.31,7.44,4.03,9.89"/><path class="cls-16" d="M1457.41,975.06c-14.9-8.04-31.91-12.95-48.75-11.22"/><path class="cls-16" d="M1533.5,949.78c-1.37,8.97-7.95,16.31-15.28,21.65"/><path class="cls-16" d="M1573.2,971.81c.59-1.63,1.91-2.91,3.39-3.83,3.92-2.43,8.79-2.52,13.4-2.68,4.61-.16,9.54-.58,13.14-3.47"/><path class="cls-16" d="M1564.45,1005.61c-.48,5.24,2.54,10.16,6.01,14.12,3.47,3.96,7.56,7.48,10.03,12.13,4.21,7.92,2.98,17.47,3.91,26.4"/><path class="cls-16" d="M1360.71,1010.58c-4.16-.76-8.2,2.52-9.79,6.43-1.59,3.92-1.33,8.31-1.08,12.53s.44,8.63-1.28,12.49c-1.27,2.86-3.48,5.18-5.21,7.78-3.03,4.56-4.57,10.1-4.33,15.57"/></g><g><path class="cls-14" d="M502.14,96.98c-5.2-17.49,3.95-36.22,16.08-49.86,12.13-13.64,27.4-24.38,38.4-38.94,8.83-11.69,14.57-25.42,19.37-39.27"/><path class="cls-14" d="M658.29,93.33c4.21-17.76-5.99-35.94-18.87-48.87-12.88-12.93-28.73-22.8-40.54-36.72-9.48-11.18-15.98-24.55-21.55-38.11"/><path class="cls-9" d="M284.54,103.99c-.68-15.32,8.46-29.97,21.04-38.75,12.58-8.78,28.13-12.37,43.43-13.36,16.63-1.07,34.39,.47,48.83-7.85,8.56-4.93,14.95-12.84,22.69-18.98,16.22-12.88,37.32-17.34,57.33-22.69,32.75-8.76,64.52-20.81,96.21-32.85"/><path class="cls-9" d="M875.41,89.07c-.18-15.34-10.14-29.45-23.19-37.51-13.05-8.06-28.78-10.77-44.12-10.89-16.66-.13-34.31,2.4-49.2-5.09-8.82-4.44-15.65-11.97-23.72-17.67-16.92-11.94-38.24-15.21-58.52-19.42-33.2-6.9-65.59-17.14-97.91-27.37"/><path class="cls-14" d="M389.98,122.16c-3.31-10.92,.58-23.16,8.02-31.8,7.44-8.65,17.99-14.1,28.84-17.63,11.79-3.83,24.87-6,33.74-14.65,5.26-5.13,8.41-12.01,12.85-17.86,9.32-12.27,23.7-19.37,37.14-26.91,21.99-12.34,42.66-26.89,63.29-41.4"/><path class="cls-14" d="M767.5,110.65c2.69-11.09-1.88-23.09-9.8-31.3-7.92-8.21-18.76-13.06-29.79-15.97-11.98-3.16-25.17-4.59-34.52-12.73-5.54-4.83-9.07-11.51-13.84-17.1-10-11.73-24.76-18.01-38.59-24.78-22.65-11.09-44.11-24.44-65.52-37.76"/><path class="cls-5" d="M426.34,110.87c.34-8.33-.07-16.69-1.22-24.94-.53-3.81-.93-8.55,1.4-11.62-4.13,.67-8.49-.22-12.04-2.44-2.13-1.33-3.95-3.11-6.08-4.44-4.83-3.02-10.78-3.47-16.46-3.83"/><path class="cls-11" d="M448.51,36.11c9.94-6.7,23.77-1.84,35.05-5.9,7.24-2.61,13.08-8.81,20.7-9.95,9.08-1.36,17.69,4.88,26.87,5.06"/><path class="cls-11" d="M542.48,24.06c4.05-1.94,8.97,.71,11.63,4.34,2.7,3.69,3.95,8.3,6.81,11.86,2.9,3.6,7.41,5.86,12.03,6.02"/><path class="cls-5" d="M484.81,68.58c.13-4.1,2.21-8.01,5.27-10.74,3.06-2.72,7.04-4.31,11.1-4.87,4.34-.6,8.96-.11,12.93-1.97"/><path class="cls-5" d="M571.74-.98c-4.16,4.78-8.33,9.56-12.49,14.34-1.81,2.08-3.64,4.17-5.89,5.76-2.25,1.58-5,2.63-7.74,2.33"/><path class="cls-11" d="M594.19,9.11c8.95-.97,18.35-1.88,26.64,1.6,5.57,2.34,10.73,6.67,16.77,6.3"/><path class="cls-5" d="M607.14,68.29c-.57-4.02-1.09-8.33,.74-11.94,.93-1.83,2.41-3.33,3.95-4.69,3.31-2.93,7.05-5.37,11.05-7.25,2.98-1.39,6.3-2.63,8.08-5.39"/><path class="cls-5" d="M635.56,50.25c6.34-.76,13.07-1.46,18.86,1.24,3.88,1.81,6.96,5,10.74,7.01,3.31,1.76,7.13,2.56,10.86,2.28"/><path class="cls-5" d="M603.47-10.69c-.11,3.71,.07,7.44,.54,11.12"/><path class="cls-11" d="M657.47,17.34c9.37-5.1,20.92-2.74,31.15,.3,10.23,3.04,21.06,6.67,31.32,3.72"/><path class="cls-5" d="M674.81,27.11c-.91,7.43,1.16,15.19,5.65,21.18,2.14,2.85,4.78,5.3,6.76,8.26,2.52,3.77,3.87,8.32,3.81,12.86"/><path class="cls-5" d="M703.12,56.62c2.17-3.54,5.95-5.85,9.92-7.07,3.97-1.21,8.16-1.45,12.31-1.68"/><path class="cls-5" d="M723.66,63.79c-.88,5.72,2.2,11.84,7.32,14.54"/><path class="cls-5" d="M506.66,3.91c7.99,.18,15.98-.19,23.92-1.12"/><path class="cls-5" d="M658.24-5.06c.77,3.78,2.99,7.17,5.83,9.8s6.25,4.54,9.78,6.1"/><path class="cls-5" d="M752.7,34.01c.13,3.21,2.35,6.02,4.97,7.88s5.67,3.01,8.52,4.51c8.01,4.22,14.41,11.4,17.67,19.84"/><path class="cls-5" d="M747.75,72.04c5.92-.73,12.36-1.35,17.47,1.73,2.61,1.57,4.6,3.97,6.9,5.96,3.95,3.41,8.91,5.64,14.08,6.32"/><path class="cls-5" d="M294.31,72.22c.64,7,4.8,13.14,6.87,19.85,2.55,8.25,1.79,17.48-2.07,25.21"/><path class="cls-11" d="M383.01,48.8c-4.61-4.07-9.68-7.79-15.49-9.8-14.36-4.97-30.17,1.29-45.29-.23"/><path class="cls-5" d="M784.1,41.01c4.12-5.32,10.26-9.04,16.89-10.2,8.52-1.5,17.65,1.05,25.76-1.98"/><path class="cls-5" d="M835.98,43.95c2.76,.93,4.07,4.04,4.78,6.87,1.24,4.92,1.68,10.04,1.3,15.11-.25,3.32-.85,6.63-.69,9.96s1.2,6.79,3.68,9.01"/><path class="cls-5" d="M862.76,59.66c3.25-1.23,6.88-1.43,10.24-.57,3.38,.86,6.41,2.74,9.58,4.19,6.81,3.12,14.48,4.34,21.92,3.47"/><path class="cls-11" d="M420.26,22.7c-13.58-7.33-29.1-11.81-44.45-10.23"/><path class="cls-11" d="M489.63-.35c-1.25,8.18-7.25,14.87-13.93,19.74"/><path class="cls-11" d="M525.83,19.74c.54-1.49,1.74-2.66,3.09-3.49,3.57-2.22,8.02-2.3,12.22-2.44s8.7-.52,11.98-3.16"/><path class="cls-11" d="M517.85,50.56c-.43,4.78,2.31,9.27,5.48,12.87,3.16,3.61,6.89,6.82,9.15,11.06,3.84,7.22,2.72,15.93,3.56,24.07"/><path class="cls-11" d="M332.09,55.09c-3.79-.7-7.48,2.29-8.92,5.87-1.45,3.57-1.21,7.57-.98,11.42s.4,7.87-1.17,11.39c-1.16,2.61-3.17,4.72-4.75,7.1-2.76,4.16-4.16,9.2-3.95,14.19"/></g><g><circle class="cls-41" cx="1390.11" cy="617.53" r="96.04"/><ellipse class="cls-48" cx="1379.21" cy="548.09" rx="33.6" ry="17.15" transform="translate(-68.58 221.71) rotate(-8.97)"/><ellipse class="cls-31" cx="1457.83" cy="568.28" rx="10.36" ry="19.24" transform="translate(-73.78 888.24) rotate(-33.1)"/><ellipse class="cls-40" cx="1459.06" cy="568.28" rx="4.56" ry="8.47" transform="translate(-88.66 805.67) rotate(-30)"/></g><g><circle class="cls-44" cx="1290.95" cy="699.28" r="93.58"/><ellipse class="cls-48" cx="1309.6" cy="638.46" rx="15.62" ry="30.6" transform="translate(304.84 1693.51) rotate(-72.39)"/><ellipse class="cls-31" cx="1267.56" cy="755.91" rx="8.62" ry="16.01" transform="translate(291.12 1862.57) rotate(-79.39)"/><ellipse class="cls-40" cx="1267.56" cy="755.91" rx="4.56" ry="8.47" transform="translate(277.59 1850.48) rotate(-78.68)"/></g></g><g id="Layer_11"><g><g><g><path class="cls-52" d="M1546.03,454.99s13.44-13.44,13.44-20.16,0-26.88,6.72-33.6,20.16-73.93,20.16-73.93l13.44-60.49,6.72-60.49h20.16s-13.44,120.98-13.44,147.86-6.72,13.44,0,53.77,0,47.05,0,47.05c0,0,13.44,33.6,20.16,40.33,6.72,6.72,20.16,47.05,20.16,53.77s-20.16,47.05-20.16,47.05l-94.09-67.21-13.44-40.33,20.16-33.6Z"/><path class="cls-34" d="M1437.56,586.13s26.88,80.65,33.6,94.09c6.72,13.44,26.88,60.49,40.33,67.21,13.44,6.72,20.16,33.6,60.49,33.6s87.37-20.16,87.37-20.16c0,0,33.6-33.6,33.6-67.21s-40.33-114.26-40.33-114.26l-33.6-67.21s-20.16-47.05-33.6-53.77c-13.44-6.72-40.33-20.16-60.49-13.44-20.16,6.72-80.65,53.77-80.65,53.77l-26.88,53.77,20.16,33.6Z"/><path class="cls-52" d="M1471.16,256.8s13.44-13.44,13.44-20.16,0-26.88,6.72-33.6c6.72-6.72,20.16-73.93,20.16-73.93l13.44-60.49,6.72-60.49h20.16s-13.44,120.98-13.44,147.86-6.72,13.44,0,53.77c6.72,40.33,0,47.05,0,47.05,0,0,13.44,33.6,20.16,40.33,6.72,6.72,20.16,47.05,20.16,53.77s-20.16,47.05-20.16,47.05l-94.09-67.21-13.44-40.33,20.16-33.6Z"/><polygon class="cls-45" points="1659.35 48.45 1648.78 246.76 1669.18 248.22 1672.79 48.45 1659.35 48.45"/><path class="cls-50" d="M1598.86,411.39s13.44-20.16,20.16-20.16,12.47-14.18,13.44-20.16c1.08-6.63,0-13.44,0-26.88s10.57-19.94,13.44-26.88c5.79-13.97,0-60.49,0-60.49,0,0,0-20.16,13.44-20.16s21.84,29.18,20.16,40.33c-1.03,6.85-6.72,13.44,6.72,26.88,13.44,13.44,27.54,39.12,33.6,53.77,3.28,7.92,6.72,20.16,6.72,33.6s16.46,27.07,20.16,33.6c3.41,6.03,0,6.72,0,6.72l-26.88,47.05-47.05-6.72-53.77-26.88-26.88-20.16,6.72-13.44Z"/><path class="cls-28" d="M1558.53,700.39s-53.77-67.21-13.44-161.3c0,0,26.88-114.26,53.77-127.7,0,0,12.63-1.06,40.33,0,12.79,.49,40.33,13.44,47.05,20.16,6.72,6.72,20.16,20.16,33.6,13.44,13.44-6.72,26.88-20.16,26.88-20.16,0,0,13.44,20.16,13.44,40.33s0,60.49-13.44,94.09c-13.44,33.6-20.16,87.37-26.88,94.09-6.72,6.72-33.6,67.21-67.21,67.21s-67.21-6.72-94.09-20.16Z"/><path class="cls-56" d="M1639.19,465.15s0,40.33,26.88,53.77v-60.49c0-53.77-26.88,6.72-26.88,6.72Z"/><path class="cls-38" d="M1498.05,276.97s42.59,28.97,53.77,47.05c5.66,9.15,20.16,20.16,26.88,33.6,6.72,13.44-13.44,73.93-13.44,73.93,0,0-53.77,120.98-67.21,127.7-13.44,6.72-47.05,33.6-87.37,20.16-40.33-13.44-60.49-26.88-67.21-53.77-6.72-26.88,20.16-100.81,20.16-100.81,0,0,33.6-87.37,40.33-94.09,6.72-6.72,33.6-47.05,47.05-53.77,13.44-6.72,33.6-6.72,47.05,0Z"/><path class="cls-56" d="M1424.11,397.94s0-60.49,26.88-73.93l-26.88,73.93Z"/></g><polygon class="cls-52" points="1606.52 206.31 1623.6 -17.02 1645.98 -17.02 1626.68 206.31 1606.52 206.31"/></g><polygon class="cls-52" points="1531.65 8.13 1534.53 -18.5 1554.65 -18.5 1551.81 8.13 1531.65 8.13"/><polygon class="cls-45" points="1659.35 48.45 1663.41 -18.5 1677.87 -18.5 1672.79 48.45 1659.35 48.45"/></g><g><g><g><path class="cls-52" d="M978.56,951.32s7.91-7.91,7.91-11.86,0-15.81,3.95-19.77,11.86-43.48,11.86-43.48l7.91-35.58,3.95-35.58h11.86s-7.91,71.15-7.91,86.97-3.95,7.91,0,31.62c3.95,23.72,0,27.67,0,27.67,0,0,7.91,19.77,11.86,23.72,3.95,3.95,11.86,27.67,11.86,31.62s-11.86,27.67-11.86,27.67l-55.34-39.53-7.91-23.72,11.86-19.77Z"/><path class="cls-34" d="M914.76,1028.46s15.81,47.44,19.77,55.34c3.95,7.91,15.81,35.58,23.72,39.53,7.91,3.95,11.86,19.77,35.58,19.77s51.39-11.86,51.39-11.86c0,0,19.77-19.77,19.77-39.53s-23.72-67.2-23.72-67.2l-19.77-39.53s-11.86-27.67-19.77-31.62c-7.91-3.95-23.72-11.86-35.58-7.91-11.86,3.95-47.44,31.62-47.44,31.62l-15.81,31.62,11.86,19.77Z"/><path class="cls-52" d="M934.52,834.76s7.91-7.91,7.91-11.86,0-15.81,3.95-19.77c3.95-3.95,11.86-43.48,11.86-43.48l7.91-35.58,3.95-35.58h11.86s-7.91,71.15-7.91,86.97-3.95,7.91,0,31.62c3.95,23.72,0,27.67,0,27.67,0,0,7.91,19.77,11.86,23.72,3.95,3.95,11.86,27.67,11.86,31.62s-11.86,27.67-11.86,27.67l-55.34-39.53-7.91-23.72,11.86-19.77Z"/><polygon class="cls-45" points="1045.2 712.22 1038.99 828.85 1050.99 829.71 1053.11 712.22 1045.2 712.22"/><path class="cls-50" d="M1009.63,925.68s7.91-11.86,11.86-11.86,7.34-8.34,7.91-11.86c.63-3.9,0-7.91,0-15.81s6.21-11.73,7.91-15.81c3.4-8.22,0-35.58,0-35.58,0,0,0-11.86,7.91-11.86s12.84,17.16,11.86,23.72c-.61,4.03-3.95,7.91,3.95,15.81,7.91,7.91,16.2,23.01,19.77,31.62,1.93,4.66,3.95,11.86,3.95,19.77s9.68,15.92,11.86,19.77c2.01,3.55,0,3.95,0,3.95l-15.81,27.67-27.67-3.95-31.62-15.81-15.81-11.86,3.95-7.91Z"/><path class="cls-28" d="M985.91,1095.66s-31.62-39.53-7.91-94.87c0,0,15.81-67.2,31.62-75.11,0,0,7.43-.63,23.72,0,7.52,.29,23.72,7.91,27.67,11.86,3.95,3.95,11.86,11.86,19.77,7.91,7.91-3.95,15.81-11.86,15.81-11.86,0,0,7.91,11.86,7.91,23.72s0,35.58-7.91,55.34c-7.91,19.77-11.86,51.39-15.81,55.34-3.95,3.95-19.77,39.53-39.53,39.53s-39.53-3.95-55.34-11.86Z"/><path class="cls-56" d="M1033.35,957.3s0,23.72,15.81,31.62v-35.58c0-31.62-15.81,3.95-15.81,3.95Z"/><path class="cls-38" d="M950.33,846.62s25.05,17.04,31.62,27.67c3.33,5.38,11.86,11.86,15.81,19.77,3.95,7.91-7.91,43.48-7.91,43.48,0,0-31.62,71.15-39.53,75.11-7.91,3.95-27.67,19.77-51.39,11.86-23.72-7.91-35.58-15.81-39.53-31.62-3.95-15.81,11.86-59.3,11.86-59.3,0,0,19.77-51.39,23.72-55.34,3.95-3.95,19.77-27.67,27.67-31.62,7.91-3.95,19.77-3.95,27.67,0Z"/><path class="cls-56" d="M906.85,917.77s0-35.58,15.81-43.48l-15.81,43.48Z"/></g><polygon class="cls-52" points="1014.13 805.06 1024.18 673.71 1037.34 673.71 1025.99 805.06 1014.13 805.06"/></g><polygon class="cls-52" points="970.1 688.5 971.79 672.84 983.62 672.84 981.96 688.5 970.1 688.5"/><polygon class="cls-45" points="1045.2 712.22 1047.59 672.84 1056.1 672.84 1053.11 712.22 1045.2 712.22"/></g><g><g><circle class="cls-49" cx="619.74" cy="589.08" r="79.26"/><g><polygon class="cls-39" points="635.07 565.5 649.9 585.53 643.48 609.61 620.66 619.61 598.61 608 593.94 583.52 610.16 564.61 635.07 565.5"/><circle class="cls-43" cx="621.44" cy="590.44" r="11.94"/></g></g><g><circle class="cls-36" cx="536.3" cy="602.92" r="79.26"/><g><polygon class="cls-39" points="548.91 582.73 563.74 602.76 557.33 626.84 534.5 636.84 512.45 625.23 507.78 600.75 524.01 581.84 548.91 582.73"/><circle class="cls-43" cx="535.28" cy="607.67" r="11.94"/></g></g><g><circle class="cls-46" cx="591.33" cy="499.53" r="79.26"/><g><polygon class="cls-39" points="604.96 474.59 619.79 494.62 613.37 518.7 590.55 528.7 568.5 517.09 563.83 492.61 580.05 473.7 604.96 474.59"/><circle class="cls-43" cx="591.33" cy="499.53" r="11.94"/></g></g></g><g><g><circle class="cls-49" cx="1380.35" cy="152.18" r="57.55"/><g><polygon class="cls-39" points="1363.55 140.57 1359.12 158.12 1370.08 172.52 1388.17 172.93 1399.77 159.05 1396.15 141.32 1380.03 133.09 1363.55 140.57"/><circle class="cls-43" cx="1379.59" cy="153.55" r="8.67"/></g></g><g><circle class="cls-36" cx="1469.34" cy="187.6" r="57.55"/><g><polygon class="cls-39" points="1455.3 177.53 1450.87 195.07 1461.82 209.47 1479.91 209.89 1491.52 196 1487.9 178.27 1471.78 170.05 1455.3 177.53"/><circle class="cls-43" cx="1471.34" cy="190.51" r="8.67"/></g></g></g><g><g><circle class="cls-49" cx="1906.12" cy="647.82" r="98.29"/><g><polygon class="cls-39" points="1938.93 636.01 1938.56 666.92 1914.18 685.89 1884.13 678.66 1871.06 650.66 1884.79 622.98 1915 616.46 1938.93 636.01"/><circle class="cls-43" cx="1906.77" cy="650.43" r="14.81"/></g></g><g><circle class="cls-36" cx="1813.33" cy="598.94" r="98.29"/><g><polygon class="cls-39" points="1840.91 588.44 1840.55 619.34 1816.16 638.32 1786.12 631.09 1773.04 603.09 1786.78 575.41 1816.98 568.89 1840.91 588.44"/><circle class="cls-43" cx="1808.76" cy="602.86" r="14.81"/></g></g><g><circle class="cls-46" cx="1945.19" cy="538.06" r="98.29"/><g><polygon class="cls-39" points="1977.34 523.64 1976.98 554.54 1952.59 573.52 1922.54 566.29 1909.47 538.29 1923.2 510.61 1953.41 504.09 1977.34 523.64"/><circle class="cls-43" cx="1945.19" cy="538.06" r="14.81"/></g></g></g></g><g id="Layer_4"><g><g><path class="cls-21" d="M748.59,622.07s-185.93-300.46-239.45-322.33c0,0,211.72,25.57,394.26,217.77l-28.61,130.84-126.2-26.27Z"/><path class="cls-53" d="M564.15,333.03s220.69,81.04,305.86,178.31c0,0-231.29-144.76-305.86-178.31Z"/><path class="cls-53" d="M562.29,342.48s165.21,167.27,289.02,204.48c0,0-227.59-150.52-289.02-204.48Z"/></g><g><ellipse class="cls-47" cx="1157.4" cy="693.06" rx="155.61" ry="156.76" transform="translate(-99.26 202.43) rotate(-9.59)"/><ellipse class="cls-48" cx="1125.15" cy="590.04" rx="37.99" ry="19.39" transform="translate(-129.27 388.71) rotate(-18.56)"/><ellipse class="cls-31" cx="1197.07" cy="810.27" rx="36.02" ry="19.4" transform="translate(-196.83 427.44) rotate(-18.74)"/><ellipse class="cls-40" cx="1197.07" cy="810.27" rx="15.86" ry="8.54" transform="translate(-196.83 427.44) rotate(-18.74)"/></g><g><circle class="cls-41" cx="1079.64" cy="488.76" r="179.81"/><ellipse class="cls-48" cx="1037.87" cy="363.97" rx="62.91" ry="32.12" transform="translate(-61.87 349.19) rotate(-18.56)"/><ellipse class="cls-31" cx="1189.31" cy="376.72" rx="19.4" ry="36.02" transform="translate(59.63 906.06) rotate(-42.68)"/><ellipse class="cls-40" cx="1191.58" cy="376.33" rx="8.54" ry="15.86" transform="translate(33.46 845.63) rotate(-39.59)"/></g><g><circle class="cls-44" cx="878.38" cy="653.68" r="175.2"/><ellipse class="cls-48" cx="893.85" cy="535.58" rx="29.25" ry="57.29" transform="translate(238.72 1345.91) rotate(-81.98)"/><ellipse class="cls-31" cx="852.85" cy="765.53" rx="16.14" ry="29.97" transform="translate(72.16 1604.53) rotate(-88.97)"/><ellipse class="cls-40" cx="852.85" cy="765.53" rx="8.54" ry="15.86" transform="translate(61.9 1594.87) rotate(-88.27)"/></g></g></g><g id="Layer_2"><g><path class="cls-1" d="M-64.64,426.31s324.87,125.09,632.75,507.8"/><path class="cls-7" d="M-58.81,458.13s287.64,117.12,563.39,467.51"/><path class="cls-6" d="M-66.6,483.56s296.5,122.77,581.72,487.61"/><path class="cls-4" d="M-38.37,524s272.37,117.77,536.79,461.93"/><ellipse class="cls-41" cx="65.04" cy="566.63" rx="13.2" ry="15.43" transform="translate(-215.41 69.99) rotate(-22.91)"/><ellipse class="cls-41" cx="100.48" cy="561.17" rx="13.2" ry="15.43" transform="translate(-210.49 83.36) rotate(-22.91)"/><ellipse class="cls-41" cx="92.78" cy="522.8" rx="13.2" ry="15.43" transform="translate(-196.17 77.33) rotate(-22.91)"/><ellipse class="cls-41" cx="54.11" cy="520.77" rx="13.2" ry="15.43" transform="translate(-198.42 62.12) rotate(-22.91)"/><ellipse class="cls-41" cx="78.55" cy="486.96" rx="13.2" ry="15.43" transform="translate(-183.34 68.97) rotate(-22.91)"/><ellipse class="cls-41" cx="43.88" cy="478.55" rx="13.2" ry="15.43" transform="translate(-182.8 54.81) rotate(-22.91)"/><ellipse class="cls-41" cx="121.89" cy="508.47" rx="13.2" ry="15.43" transform="translate(-188.29 87.53) rotate(-22.91)"/><ellipse class="cls-41" cx="143.62" cy="594.08" rx="13.2" ry="15.43" transform="translate(-219.9 102.74) rotate(-22.91)"/><ellipse class="cls-41" cx="133.07" cy="548.54" rx="13.2" ry="15.43" transform="translate(-203.01 95.05) rotate(-22.91)"/><ellipse class="cls-41" cx="168.51" cy="543.08" rx="13.2" ry="15.43" transform="translate(-198.09 108.41) rotate(-22.91)"/><ellipse class="cls-41" cx="196.13" cy="631.63" rx="13.31" ry="15.3" transform="translate(-145.57 65.36) rotate(-13.86)"/><ellipse class="cls-41" cx="234.41" cy="633.33" rx="13.98" ry="14.57" transform="translate(-261.68 175.13) rotate(-26.96)"/><ellipse class="cls-41" cx="267" cy="620.7" rx="13.98" ry="14.57" transform="translate(-252.41 188.53) rotate(-26.96)"/><ellipse class="cls-41" cx="223.86" cy="587.8" rx="13.75" ry="14.81" transform="translate(-61.81 27.43) rotate(-6.16)"/><ellipse class="cls-41" cx="277.55" cy="666.24" rx="13.75" ry="14.81" transform="translate(-69.92 33.65) rotate(-6.16)"/><ellipse class="cls-41" cx="338.59" cy="725.3" rx="13.75" ry="14.81" transform="translate(-75.91 40.54) rotate(-6.16)"/><ellipse class="cls-41" cx="346.77" cy="689.04" rx="13.75" ry="14.81" transform="translate(-71.97 41.21) rotate(-6.16)"/><ellipse class="cls-41" cx="414.68" cy="803.33" rx="13.75" ry="14.81" transform="translate(-83.84 49.16) rotate(-6.16)"/><ellipse class="cls-41" cx="456.64" cy="795.34" rx="13.75" ry="14.81" transform="translate(-82.74 53.62) rotate(-6.16)"/><ellipse class="cls-41" cx="242.11" cy="671.7" rx="13.2" ry="15.43" transform="translate(-242.34 147.2) rotate(-22.91)"/><ellipse class="cls-41" cx="297.46" cy="716.42" rx="13.2" ry="15.43" transform="translate(-255.39 172.27) rotate(-22.91)"/><ellipse class="cls-41" cx="312.99" cy="660.78" rx="13.2" ry="15.43" transform="translate(-232.5 173.92) rotate(-22.91)"/><ellipse class="cls-41" cx="72.74" cy="605" rx="13.2" ry="15.43" transform="translate(-229.74 76.02) rotate(-22.91)"/><ellipse class="cls-41" cx="105.34" cy="592.37" rx="13.2" ry="15.43" transform="translate(-222.25 87.71) rotate(-22.91)"/><ellipse class="cls-41" cx="119.56" cy="628.21" rx="13.2" ry="15.43" transform="translate(-235.08 96.07) rotate(-22.91)"/><ellipse class="cls-41" cx="157.84" cy="629.92" rx="13.2" ry="15.43" transform="translate(-232.73 111.11) rotate(-22.91)"/><ellipse class="cls-41" cx="179.06" cy="588.62" rx="13.2" ry="15.43" transform="translate(-214.98 116.11) rotate(-22.91)"/><ellipse class="cls-41" cx="220.99" cy="705.81" rx="13.2" ry="15.43" transform="translate(-257.28 141.67) rotate(-22.91)"/><ellipse class="cls-41" cx="206.77" cy="669.96" rx="13.2" ry="15.43" transform="translate(-244.45 133.3) rotate(-22.91)"/><ellipse class="cls-41" cx="168.48" cy="668.26" rx="13.2" ry="15.43" transform="translate(-246.81 118.27) rotate(-22.91)"/><ellipse class="cls-41" cx="262.02" cy="721.88" rx="13.2" ry="15.43" transform="translate(-260.31 158.91) rotate(-22.91)"/><ellipse class="cls-41" cx="310.95" cy="761.93" rx="13.2" ry="15.43" transform="translate(-272.03 181.1) rotate(-22.91)"/><ellipse class="cls-41" cx="349.23" cy="763.63" rx="13.2" ry="15.43" transform="translate(-269.68 196.14) rotate(-22.91)"/><ellipse class="cls-41" cx="379.81" cy="726.97" rx="13.2" ry="15.43" transform="translate(-253 205.15) rotate(-22.91)"/><ellipse class="cls-41" cx="272.66" cy="760.22" rx="13.2" ry="15.43" transform="translate(-274.39 166.07) rotate(-22.91)"/><ellipse class="cls-41" cx="335.27" cy="792.75" rx="13.2" ry="15.43" transform="translate(-282.11 193) rotate(-22.91)"/><ellipse class="cls-41" cx="384.19" cy="832.79" rx="13.2" ry="15.43" transform="translate(-293.84 215.2) rotate(-22.91)"/><ellipse class="cls-41" cx="418.8" cy="844.19" rx="13.2" ry="15.43" transform="translate(-295.55 229.57) rotate(-22.91)"/><ellipse class="cls-41" cx="345.91" cy="831.09" rx="13.2" ry="15.43" transform="translate(-296.19 200.17) rotate(-22.91)"/><ellipse class="cls-41" cx="376.49" cy="794.42" rx="13.2" ry="15.43" transform="translate(-279.51 209.18) rotate(-22.91)"/><ellipse class="cls-41" cx="416.43" cy="762.4" rx="13.2" ry="15.43" transform="translate(-263.9 222.2) rotate(-22.91)"/><ellipse class="cls-41" cx="404.84" cy="873.31" rx="13.2" ry="15.43" transform="translate(-307.98 226.43) rotate(-22.91)"/><ellipse class="cls-41" cx="453.76" cy="913.35" rx="13.2" ry="15.43" transform="translate(-319.71 248.63) rotate(-22.91)"/><ellipse class="cls-41" cx="422" cy="909.12" rx="13.2" ry="15.43" transform="translate(-320.57 235.93) rotate(-22.91)"/><ellipse class="cls-41" cx="446.06" cy="874.98" rx="13.2" ry="15.43" transform="translate(-305.38 242.61) rotate(-22.91)"/><ellipse class="cls-41" cx="480.32" cy="828.63" rx="13.2" ry="15.43" transform="translate(-284.64 252.28) rotate(-22.91)"/><ellipse class="cls-41" cx="490.03" cy="891.03" rx="13.2" ry="15.43" transform="translate(-308.16 260.99) rotate(-22.91)"/><ellipse class="cls-41" cx="522.63" cy="878.4" rx="13.2" ry="15.43" transform="translate(-300.67 272.68) rotate(-22.91)"/><ellipse class="cls-41" cx="458.53" cy="951.75" rx="13.2" ry="15.43" transform="translate(-334.28 253.51) rotate(-22.91)"/><ellipse class="cls-41" cx="504.16" cy="934.07" rx="13.2" ry="15.43" transform="translate(-323.8 269.88) rotate(-22.91)"/><ellipse class="cls-41" cx="524.06" cy="973.16" rx="13.2" ry="15.43" transform="translate(-337.45 280.71) rotate(-22.91)"/><ellipse class="cls-41" cx="553.93" cy="903.49" rx="13.2" ry="15.43" transform="translate(-307.97 286.84) rotate(-22.91)"/><ellipse class="cls-41" cx="572.64" cy="937.4" rx="13.2" ry="15.43" transform="translate(-319.7 296.79) rotate(-22.91)"/><ellipse class="cls-41" cx="495.25" cy="979.99" rx="13.2" ry="15.43" transform="translate(-342.37 270.03) rotate(-22.91)"/></g><g><path class="cls-33" d="M1634.51,655.61l-68.83-20.82s381.79-41.04,466.13,127.21l-48.19,39.27s-60.62,1.7-86.5,25.18c-25.88,23.48-92.69,74.64-92.69,74.64,0,0-25.81-109.23,36.78-175.44,0,0-99.53,101.37-101.4,169.67l-75.03,28.65s1.77-72.09,35.02-103.35c33.25-31.26-77.75,66.64-76.37,115.89l-22.73,.64s78.03-191.76,107.92-207.77c29.88-16-143.93,140.53-153.48,205.26l-92.8,70.85s21.95-163.65,81.5-203.24c0,0-110.79,105.48-119.71,192.93l-89.44,55.59s1.13-94.82,26.69-129.66c0,0-62.28,77.58-60.58,138.19l-55.55,47.06s-15.62-151.22,35.83-209.54c0,0-75.84,134.83-74.35,187.87l-59.87,28.22s-9.07-52.83,5.34-79.77c0,0-47.02,80.94-46.27,107.46l-26.73-6.83s1.77-72.09,16.6-83.88c14.84-11.79-26.69,129.66-53,137.98,0,0-47.91-85.86,70.03-206.71,0,0-41.04,23.9-52.4,24.22s125.2-132.42,125.2-132.42l-79.24,13.6s54.17-96.31,220.44-116.14l-57.25-13.56s194.45-96.45,364.93-101.23Z"/><path class="cls-54" d="M1075.6,1073.14s103.53-93.9,102.68-124.21c0,0-33.67,16.11-52.72,12.85-19.05-3.26,81.54-66.74,81.54-66.74,0,0,168.46-76.76,100.06-82.43,0,0,101.65-25.6,112.17-56.23,0,0-22.41,12-53.15-2.3,0,0,198.67-81.4,266.96-79.53,0,0-142.26,64.66-175.4,99.71,0,0-82.71,25.07-108.49,52.33,0,0-122.79,83.07-144.35,125.38-21.56,42.31-129.3,121.16-129.3,121.16Z"/><path class="cls-54" d="M1494.35,930.58s55.51-183.55,122.64-223.35c0,0,53.36,9.88,101.76-21.81l75.77-2.13s-172.89,54.14-190.88,88.77c-17.99,34.63-109.3,158.52-109.3,158.52Z"/><path class="cls-54" d="M1817.39,847.64s27.86-87.99,61.11-119.25c33.25-31.26,59.87-28.22,59.87-28.22,0,0-33.67,16.11-17.56,49.78,16.11,33.67-103.42,97.69-103.42,97.69Z"/></g><g><g><path class="cls-24" d="M829.43,238.7s-52.33-55.96-39.76-90.52l44.95,17.59-5.19,72.93Z"/><path class="cls-19" d="M815.16,192.65s5.65,50,22.58,49.2c0,0,16.94,12.9,36.29,8.06,19.36-4.84,40.32-16.94,40.32-16.94,0,0,10.48-12.9,16.13-17.74,5.65-4.84-1.61-20.16-1.61-20.16l-76.62,8.88-37.1-11.29Z"/><path class="cls-29" d="M815.16,192.65s49.2,45.97,78.23,38.71c29.03-7.26,50-5.65,58.87-25,8.87-19.36,24.19-26.62,19.35-45.97-4.84-19.36-16.13-23.39-16.13-23.39l-140.33,55.66Z"/><path class="cls-29" d="M815.64,185.73s-32.74-26.15-24.68-48.73c8.06-22.58,30.65-41.94,30.65-41.94,0,0,38.71-23.39,45.16-25,6.45-1.61,31.05,3.03,31.05,3.03l-72.98,89.72-9.2,22.93Z"/><path class="cls-23" d="M815.16,192.65s50-5.65,66.13-9.68c16.13-4.03,54.84-13.71,64.52-16.13s23.39-16.13,21.77-22.58c-1.61-6.45-8.87-35.49-9.68-38.71-.81-3.23-18.55-19.36-33.87-12.1-15.32,7.26-70.16,48.39-78.23,57.27-8.06,8.87-30.65,41.94-30.65,41.94Z"/><path class="cls-24" d="M815.16,192.65s-5.65-63.71,12.9-85.49c18.55-21.78,45.97-35.49,58.87-38.71,12.9-3.23,49.07,11.77,50.75,21.61,1.68,9.84-122.52,102.59-122.52,102.59Z"/></g><g><circle class="cls-26" cx="665.15" cy="237.01" r="99.76"/><path class="cls-30" d="M578.86,289.44s30.65,40.32,66.94,20.97c36.29-19.36,25.8-102.43,24.19-108.88-1.61-6.45-16.13-37.1-29.84-37.1,0,0-41.94-3.22-66.13,37.1-24.19,40.33,4.84,87.91,4.84,87.91Z"/><path class="cls-27" d="M587.73,352.34s.81-10.48-6.45-25.81c-7.26-15.32-3.23-40.33-3.23-40.33,0,0,28.23,44.36,57.26,37.1,0,0,59.68,5.64,78.23-16.13,18.55-21.78,50-46.78,51.61-81.46,0,0,10.49,41.94,5.65,50-4.84,8.07-3.23,14.52-3.23,14.52l-50.81,57.26-74.2,18.55-54.84-13.71Z"/><g><path class="cls-22" d="M577.24,159.59s172.6,73.38,188.73,69.35c16.13-4.03,17.31-68.95-16.13-91.94-20.01-13.76-42.75-47.58-88.72-39.51-45.97,8.07-80.65,33.88-83.87,62.1Z"/><path class="cls-22" d="M587.73,352.34s68.95-15.98,86.03-18.39c26.82-3.78,88.58-22.15,94.71-53.38l3.94-12.12s-2.44,63.17-32.61,78.68c-15.55,7.99-37.41,31.62-61.25,33.87-23.84,2.25-54.45-8.66-58.61-11.33-4.15-2.67-32.22-17.34-32.22-17.34Z"/></g><path class="cls-24" d="M577.24,159.59s77.42-19.36,93.55-9.68c16.13,9.68,82.26,0,82.26,0l11.53,3.46s-10.34-14.12-16.58-17.66c-6.24-3.54-38.5-36.61-53.95-36.78-10.3-.11-28.1-9.51-69.88,9.67-43.77,20.09-46.93,50.99-46.93,50.99Z"/></g><g><path class="cls-26" d="M780.34,380.4l11.29,58.87,54.84,54.84,36.29,8.06,55.65-24.2,10.15-10.72s4.37-27.19,5.18-37.67c.81-10.48-20.17-66.94-37.91-69.36-17.74-2.42-87.91-8.87-87.91-8.87l-47.58,29.04Z"/><path class="cls-27" d="M791.78,387.01s9.68,79.84,60.49,91.13c0,0,21.78,18.55,59.68,5.64,0,0,33.07-4.84,40.32-30.65l4.03-11.29s1.61,20.16-8.06,36.29c-9.68,16.13-24.19,40.33-24.19,40.33l-73.39-5.64-41.94-16.93-31.46-43.55-1.61-33.87,.81-24.2,8.87-19.36,6.45,12.1Z"/><path class="cls-30" d="M885.34,487.02s-38.71-4.03-37.91-41.94c0,0-3.35-33.6,13.65-44.62,0,0,46.84-28.77,60.55-28.77,13.71,0,21.78,4.84,21.78,4.84,0,0,20.86,37.75,22.58,49.2,2.65,17.59-15.32,48.39-24.19,54.04-8.87,5.65-56.45,7.26-56.45,7.26Z"/><path class="cls-23" d="M780.49,382.98s-35.48,63.72,25.81,116.94c0,0,33.19,19.14,79.84,17.74,9.47-.28,28.23,3.22,37.91,.8,0,0-60.49-8.87-78.23-11.29-17.74-2.42-51.62-41.94-60.49-50-7.38-6.71-14.52-58.07-4.84-74.2Z"/><path class="cls-23" d="M780.49,382.98s-17.75-43.55-2.42-64.52c15.32-20.97,17.74-11.29,27.42-27.42,9.68-16.13,48.39-25.81,48.39-25.81,0,0,22.58-5.65,34.68,1.61,0,0,24.2,14.52,33.87,12.1,9.68-2.42,29.04,20.16,29.04,20.16,0,0,22.58,49.2,19.36,50s-33.07,32.26-39.52,33.87c-6.45,1.61-70.97,17.75-77.42,19.36-6.45,1.61-54.84,0-73.39-19.35Z"/><path class="cls-29" d="M801.22,298.44s97.82-3.37,113.95,6.31c16.13,9.68,45.19,14.62,45.19,14.62l-8.9-20.27s-19.36-22.58-29.04-20.16c-9.68,2.42-33.87-12.1-33.87-12.1,0,0-21.78-4.84-34.68-1.61s-46.44,13.99-52.66,33.21Z"/></g></g><g><path class="cls-13" d="M2079.03,19.23s-352.15,223.36-623.74,745.32"/><path class="cls-3" d="M2079.67,57.99s-310.3,205.25-551.75,681.68"/><path class="cls-15" d="M2094.81,86.02s-319.38,213.96-568.56,709.61"/><path class="cls-8" d="M2071.17,140.16s-292.21,202.41-521.82,668.86"/><ellipse class="cls-41" cx="1916.82" cy="216.49" rx="18.48" ry="15.82" transform="translate(1320 2050.85) rotate(-78.42)"/><ellipse class="cls-41" cx="1916.84" cy="169.61" rx="18.48" ry="15.82" transform="translate(1365.94 2013.4) rotate(-78.42)"/><ellipse class="cls-41" cx="1925.11" cy="124.16" rx="18.48" ry="15.82" transform="translate(1417.08 1985.18) rotate(-78.42)"/><ellipse class="cls-41" cx="1879.27" cy="159.62" rx="18.48" ry="15.82" transform="translate(1345.7 1968.61) rotate(-78.42)"/><ellipse class="cls-41" cx="1873.89" cy="265.29" rx="18.48" ry="15.82" transform="translate(1237.88 2047.8) rotate(-78.42)"/><ellipse class="cls-41" cx="1875.56" cy="209.32" rx="18.48" ry="15.82" transform="translate(1294.05 2004.7) rotate(-78.42)"/><ellipse class="cls-41" cx="1832.65" cy="211.25" rx="18.48" ry="15.82" transform="translate(1257.87 1964.2) rotate(-78.42)"/><ellipse class="cls-41" cx="1821.05" cy="321.75" rx="18.33" ry="15.95" transform="translate(1419.21 2126.82) rotate(-87.47)"/><ellipse class="cls-41" cx="1776.49" cy="332.76" rx="17.46" ry="16.74" transform="translate(977.23 1953.82) rotate(-74.36)"/><ellipse class="cls-41" cx="1735.23" cy="325.59" rx="17.46" ry="16.74" transform="translate(954 1908.85) rotate(-74.36)"/><ellipse class="cls-41" cx="1778.16" cy="276.79" rx="16.47" ry="17.74" transform="translate(-17.7 161.17) rotate(-5.16)"/><ellipse class="cls-41" cx="1733.55" cy="381.56" rx="16.47" ry="17.74" transform="translate(-27.31 157.58) rotate(-5.16)"/><ellipse class="cls-41" cx="1675.75" cy="465.29" rx="16.47" ry="17.74" transform="translate(-35.08 152.72) rotate(-5.16)"/><ellipse class="cls-41" cx="1657.62" cy="424.63" rx="16.47" ry="17.74" transform="translate(-31.49 150.92) rotate(-5.16)"/><ellipse class="cls-41" cx="1604.74" cy="574.85" rx="16.47" ry="17.74" transform="translate(-45.23 146.77) rotate(-5.16)"/><ellipse class="cls-41" cx="1553.58" cy="575.34" rx="16.47" ry="17.74" transform="translate(-45.48 142.17) rotate(-5.16)"/><ellipse class="cls-41" cx="1776.46" cy="379.64" rx="18.48" ry="15.82" transform="translate(1047.99 2043.76) rotate(-78.42)"/><ellipse class="cls-41" cx="1721.97" cy="445.19" rx="18.48" ry="15.82" transform="translate(940.22 2042.76) rotate(-78.42)"/><ellipse class="cls-41" cx="1690.64" cy="383.49" rx="18.48" ry="15.82" transform="translate(975.62 1962.75) rotate(-78.42)"/><ellipse class="cls-41" cx="1918.45" cy="254.28" rx="18.48" ry="15.82" transform="translate(1284.29 2082.66) rotate(-78.42)"/><ellipse class="cls-41" cx="1910.18" cy="299.73" rx="18.48" ry="15.82" transform="translate(1233.15 2110.88) rotate(-78.42)"/><ellipse class="cls-41" cx="1865.62" cy="310.74" rx="18.48" ry="15.82" transform="translate(1186.74 2076.02) rotate(-78.42)"/><ellipse class="cls-41" cx="1830.98" cy="267.21" rx="18.48" ry="15.82" transform="translate(1201.7 2007.3) rotate(-78.42)"/><ellipse class="cls-41" cx="1809.3" cy="414.73" rx="18.48" ry="15.82" transform="translate(1039.86 2103.97) rotate(-78.42)"/><ellipse class="cls-41" cx="1817.57" cy="369.28" rx="18.48" ry="15.82" transform="translate(1090.99 2075.75) rotate(-78.42)"/><ellipse class="cls-41" cx="1862.14" cy="358.27" rx="18.48" ry="15.82" transform="translate(1137.4 2110.6) rotate(-78.42)"/><ellipse class="cls-41" cx="1764.88" cy="443.27" rx="18.48" ry="15.82" transform="translate(976.4 2083.27) rotate(-78.42)"/><ellipse class="cls-41" cx="1716.84" cy="501.81" rx="18.48" ry="15.82" transform="translate(880.65 2082.99) rotate(-78.42)"/><ellipse class="cls-41" cx="1672.28" cy="512.82" rx="18.48" ry="15.82" transform="translate(834.24 2048.14) rotate(-78.42)"/><ellipse class="cls-41" cx="1627.73" cy="476.95" rx="18.48" ry="15.82" transform="translate(833.77 1975.83) rotate(-78.42)"/><ellipse class="cls-41" cx="1761.41" cy="490.8" rx="18.48" ry="15.82" transform="translate(927.06 2117.85) rotate(-78.42)"/><ellipse class="cls-41" cx="1695.52" cy="543.74" rx="18.48" ry="15.82" transform="translate(822.53 2095.62) rotate(-78.42)"/><ellipse class="cls-41" cx="1647.48" cy="602.28" rx="18.48" ry="15.82" transform="translate(726.78 2095.35) rotate(-78.42)"/><ellipse class="cls-41" cx="1609.51" cy="623.82" rx="18.48" ry="15.82" transform="translate(675.34 2075.36) rotate(-78.42)"/><ellipse class="cls-41" cx="1692.05" cy="591.27" rx="18.48" ry="15.82" transform="translate(773.19 2130.21) rotate(-78.42)"/><ellipse class="cls-41" cx="1647.5" cy="555.4" rx="18.48" ry="15.82" transform="translate(772.72 2057.9) rotate(-78.42)"/><ellipse class="cls-41" cx="1593.05" cy="527.19" rx="18.48" ry="15.82" transform="translate(756.84 1982.01) rotate(-78.42)"/><ellipse class="cls-41" cx="1632.76" cy="654.73" rx="18.48" ry="15.82" transform="translate(663.63 2122.85) rotate(-78.42)"/><ellipse class="cls-41" cx="1584.72" cy="713.28" rx="18.48" ry="15.82" transform="translate(567.88 2122.58) rotate(-78.42)"/><ellipse class="cls-41" cx="1621.03" cy="700.83" rx="18.48" ry="15.82" transform="translate(609.1 2148.21) rotate(-78.42)"/><ellipse class="cls-41" cx="1584.74" cy="666.4" rx="18.48" ry="15.82" transform="translate(613.82 2085.13) rotate(-78.42)"/><ellipse class="cls-41" cx="1533.59" cy="620" rx="18.48" ry="15.82" transform="translate(618.39 1997.95) rotate(-78.42)"/><ellipse class="cls-41" cx="1536.86" cy="695.59" rx="18.48" ry="15.82" transform="translate(546.96 2061.56) rotate(-78.42)"/><ellipse class="cls-41" cx="1495.61" cy="688.42" rx="18.48" ry="15.82" transform="translate(521.01 2015.41) rotate(-78.42)"/><ellipse class="cls-41" cx="1588.15" cy="759.5" rx="18.48" ry="15.82" transform="translate(525.34 2162.89) rotate(-78.42)"/><ellipse class="cls-41" cx="1530.39" cy="749.47" rx="18.48" ry="15.82" transform="translate(489 2098.29) rotate(-78.42)"/><ellipse class="cls-41" cx="1516.23" cy="800.07" rx="18.48" ry="15.82" transform="translate(428.11 2124.85) rotate(-78.42)"/><ellipse class="cls-41" cx="1464.74" cy="725.26" rx="18.48" ry="15.82" transform="translate(460.24 2014.63) rotate(-78.42)"/><ellipse class="cls-41" cx="1450.75" cy="769.49" rx="18.48" ry="15.82" transform="translate(405.73 2036.27) rotate(-78.42)"/><ellipse class="cls-41" cx="1551.67" cy="801.3" rx="18.48" ry="15.82" transform="translate(455.23 2160.56) rotate(-78.42)"/></g></g><g id="Layer_7"><g><circle class="cls-41" cx="1792.57" cy="900.09" r="78.4"/><ellipse class="cls-48" cx="1763.93" cy="850.38" rx="27.43" ry="14" transform="translate(-188.88 995.75) rotate(-30)"/><ellipse class="cls-31" cx="1829.74" cy="842.73" rx="8.46" ry="15.7" transform="translate(74.59 1831.45) rotate(-54.12)"/><ellipse class="cls-40" cx="1830.68" cy="842.37" rx="3.72" ry="6.91" transform="translate(24.38 1735.81) rotate(-51.03)"/></g></g></g></svg>