<?xml version="1.0" encoding="UTF-8"?><svg id="Layer_2" xmlns="http://www.w3.org/2000/svg" viewBox="0 0 599.87 774.54"><defs><style>.cls-1{fill:#fff;}.cls-2,.cls-3{fill:#582673;}.cls-4{fill:none;stroke:#582673;stroke-miterlimit:10;}.cls-3{font-family:TitilliumWeb-Regular, 'Titillium Web';font-size:24px;}</style></defs><path class="cls-4" d="M220.05,141.12v3.82l27.13-18.72v-3.44h-7.26l-2.29-9.93-6.88-8.79,8.02,1.53,1.05,3.51,7.35-2.03,5.26,4.27,2.44-4.88,23.18-8.13v-4.47h7.93v7.73l4.68,.2,1.22,5.29-3.05,3.46-2.03,11.59,2.85,7.52,11.39,7.12,4.47-2.85,9.96-1.83,2.64-3.25,16.47,.41-2.24-2.24,2.24-3.86,18.71,2.64,12.81,.81,3.05,2.03,4.27-2.03,11.18-19.32,4.47,.61,3.05,2.64v7.52l2.24,4.07,2.64,3.86v4.27l5.29,5.9,4.27,3.25-6.51,1.22-2.44,3.05,5.49,2.24-3.99,3.93-10.45,10.3,2.44,2.24,.81,3.86,7.32-7.12,1.63-8.34,3.46,1.22,2.24,1.42,5.29,2.03,1.02,2.24h2.44l3.66,1.63,4.27,.41v4.47l-2.03,2.03v3.05h-3.66l-3.86,4.07v2.03h4.68l4.88-4.27v-2.85l4.68-3.46,10.57-.2,1.83,2.03,3.05,.2,1.22,1.83,4.27,.81,2.64,2.85h3.66l2.85,5.69,7.93,1.63,1.83,13.22,9.35-5.08,4.88,.81,1.63,2.85,4.07,.2,3.25,2.24h6.51v3.25h6.51l14.44,1.83,2.44,2.24h2.44l1.22,2.44h3.25v2.44h2.85l10.37,13.42,2.85,1.63s1.63,2.64,4.27,2.85,9.76,4.07,9.76,4.07c0,0,4.07,2.85,6.3,3.25s3.66,4.68,3.66,4.68l2.24,2.85v29.89s-1.83,.61-2.24,2.44-1.83,4.47-1.83,4.47l-.2,2.44h-2.24l-3.05,3.46-2.44,2.03v3.05l-3.66,1.42-.61,2.24-2.85,1.63-1.63,2.03h-2.44l-1.42,3.86s-5.49,8.34-6.3,9.56-1.02,3.86-1.02,3.86h-1.83l-12.2,10.37-.41,6.71-2.03,1.42-.41,10.37,1.02,2.03-1.02,14.03-1.83,1.22-1.42,13.83-2.64,1.63-3.66,4.88-.61,12.81-2.44,1.22-5.08,5.49v2.03l-2.24,1.83-5.69,6.71-1.42,4.68-1.63,1.83-.2,5.49-3.46,2.85h-3.05l-4.27,3.66-.81,2.85-2.64,1.83s-17.89-2.24-21.35-2.03-5.08,.41-5.08,.41l-2.24,1.63-1.42,3.86h-4.47l-1.83,2.24h-5.29l-.61,2.03-4.88-1.02-7.32,7.12h-1.83l-9.56,8.13-1.42,5.49-2.03,1.02-2.24,25.21-2.44,2.44v2.64s-8.74,4.47-10.57,7.52-2.85,2.03-2.85,5.08-3.05,4.88-3.05,4.88v2.24s-3.05,4.47-3.66,4.47-2.24-1.22-2.24-1.22c0,0,2.24-3.46,2.03-4.47s-2.44,1.02-2.44,1.02l-3.66,.2-1.83,2.44-1.22,2.03-.2,2.44h-2.85l.81,1.83-2.85,2.03-1.42,2.44-1.63,2.85,1.42,1.83-1.42,2.24v2.44l-2.44,1.83-1.63,3.46-6.91,6.1-.2,1.83-3.66,2.24-1.06-7.9,4.18-3.98-14.51-16.3-8.75-6.16-2.19,1.59-1.99-1.79-10.54-8.95-1.99,1.59-4.18-1.39,21.67-23.06,19.88-10.54,2.39-11.33-3.98-8.55-5.57,1.39,3.98-18.09-5.57-2.58-6.16,1.39-2.19-5.17-1.39-14.32-7.56-3.98-4.18,2.78-14.32-2.39,3.58-14.71-4.18-8.15,2.98-1.99-2.58-3.65,8.15-18.22-3.18-7.75-6.36-2.39-.4-13.12h-20.68l-1.19-9.15-3.78-5.17,3.58,.2-1.19-8.75-4.37-7.56-21.75-6.97-6.41-6.41-15.33-1.39-9.2-8.09-.28-9.2-1.67-6.13-.56-9.76-14.22,3.35-20.35,15.61-11.99-1.67-13.66,1.67v-18.4l-4.46,4.18-13.66,3.9-1.39-5.3-10.32-.56,2.51-3.07-12.27-18.4,3.07-2.23-.56-3.62,7.25-7.25-.56-5.3,7.81-13.38,11.43-6.13,18.12-3.9,5.85-36.8-7.25-9.76v-6.41l11.43-1.39-1.12-5.02-8.36,.28,.84-6.97,21.19-3.07,7.25-4.74,3.07,7.53,10.87,7.25,6.72-1.04Z"/><path class="cls-2" d="M301.02,136.76l-.93,12.63s-.51,7.45,5.42,11.34,16.42,13.71,18.79,13.88,8.13-.68,8.13-.68l-27.6,52.32s4.4,9.82,5.59,11.85,5.59,16.42,11.51,18.62,79.57,9.99,79.57,9.99c0,0,9.14-11.17,9.14-13.54s2.88-19.64,2.88-19.64c0,0,6.77,0,11.68-12.36l-6.09-5.59s17.44-8.8,19.81-16.25,9.91-29.84,9.91-29.84l-4.27-.81-1.22-1.83-3.05-.2-1.83-2.03-10.57,.2-4.68,3.46v2.85l-4.88,4.27h-4.68v-2.03l3.86-4.07h3.66v-3.05l2.03-2.03v-4.47l-10.37-2.03-1.02-2.24-10.98-4.68-1.63,8.34-7.32,7.12-.81-3.86-3.16-2.42s-1.16,4.33-3.36,4.33-10.12-2.37-10.12-2.37c0,0-8.34-19.81-10.03-21.16s-8.13-6.43-11-6.6-5.93-4.74-5.93-4.74l-.21-4.48-12.72-1.8-2.24,3.86,2.24,2.24-16.47-.41-2.64,3.25-9.96,1.83-4.47,2.85Z"/><path class="cls-4" d="M384.59,107.28l.81-2.92-5.39-1.87h-2.81s.94-2.11-2.73-4.22-8.99-5.86-8.99-5.86h-5.16l-1.87-3.2c-6.33-1.09-9.84-2.03-9.84-2.03l-11.95,.78c-15,3.98-17.81-2.81-17.81-2.81l-17.17-14.77s-3.76-4.34-10.71-8.1-11.86-2.89-11.86-2.89v-6.08s-4.05-1.16-4.92-4.63-10.13-1.74-10.13-1.74l-5.01-2.89s2.12-4.05,0-5.21-6.56,1.16-6.56,1.16l-13.6-1.16-1.16,4.05-4.92,.29-4.05,3.76-6.37-2.31-3.76-2.89h-24.88l-5.21-7.52-9.84,.29s-2.03-5.79-4.05-6.37-2.31,6.08-3.18,7.52-3.76,1.45-3.76,1.45l-4.77,.29-5.43,4.27v6.98l2.72,3.88-.39,4.65s-3.1,3.49-5.43,3.1-3.88-7.76-3.88-7.76l2.72-6.21s1.16-6.59,.39-7.76,1.16-3.88,1.16-3.88c0,0,5.43-1.55,5.43-3.88s-9.7-2.7-9.7-2.7c0,0,0,3.48-2.33,4.25s-8.15,3.49-8.15,3.49c0,0-1.55,3.49-4.65,3.49s-10.09,1.16-10.09,1.16c0,0,.08,5.5-2.3,5.5s-4.07-3.07-4.07-3.07l-3.84,3.99-3.07,.15-.77,3.99-2.3,11.05h-4.61l-1.38,2.76-3.84,5.07h-3.38l-1.07,5.22-2.15-.15s-3.22-7.22-3.84-6.45,0,4.15,0,4.15l1.69,3.84-5.37,5.22-.92-2.76-1.38,5.83s2.3,1.69,3.07,3.68,1.84,5.34,1.84,5.34l2.15,2.03s.46,4.61-.77,4.61-2.3,2.15-2.3,2.15l-.15,4.64s2.15-.34,2,2.12-1.84,3.84-1.84,3.84l.31,5.37s1.84,0,1.69,2.92-2,4.3-2,4.3l-2.76,2.92s.92,3.07-.15,3.07-6.6,2-6.6,2l-4.45,5.37v3.38l1.23,2.46s-2.46,3.68-3.68,3.84-2.76,3.22-2.76,3.22h-2.61l-1.23,1.84-4.3,1.23-2.92,3.07v7.68s-5.68,2.61-5.83,6.76-1.84,18.42-1.84,18.42c0,0,1.07,2.46,3.38,4.76s4.91,3.53,4.91,3.53c0,0-3.68,8.29-6.6,9.06s-7.06,8.6-7.06,8.6v4.45s1.54-.46,1.54,1.07,.15,4.15,.15,4.15c0,0,1.69,.31,1.69,1.23s.61,4.76,.61,4.76l-1.23,1.54s1.38,.15,6.45,5.07c0,0,4.91-1.23,5.83,2.46s2.61,4.61,2.61,4.61l.15,3.07,4.3,3.07,.31,2.46s3.84,2.76,3.99,3.99,5.07,8.29,5.07,8.29c0,0,.77,3.68,1.54,5.22s2,4.76,2,4.76l1.84,2.76,2.92,4.15,1.23,3.99,5.07,5.68s-2,.77,2.15,3.99,4.76,6.45,4.76,6.45l2.46,3.07,4.45,5.99,.31,11.67,2.46,1.84v2.76s5.53,1.23,5.83,2,7.37,8.29,7.37,8.29l2-.77s3.22,1.84,3.38,3.22,3.07,0,3.07,0l1.07,2.46h2.92l1.84,1.38h3.38l3.53,3.07h2.15l5.07,3.99h2l.92,1.54h2.92l11.82,10.44,3.22,.61,1.38,1.84,1.84,7.52s.46,1.38,1.84,2.46,.31,12.13,.31,12.13l1.69,1.69,1.38,14.74-1.84,1.07,.61,16.74-3.22,.77,.61,7.83,1.69,2s1.54,12.59,1.54,13.82-1.84,1.38-1.84,1.38v23.34s-1.84,.77-1.84,.77v5.83l-1.07,3.22,.61,4.91s-2.46,2.3-2.76,4.61,.92,4.45,.92,4.45c0,0,3.22,9.37,2.61,11.36s-3.38,.61-3.38,.61l.92,15.51,2.3,1.07,1.23,14.74-2,1.23,1.84,7.98-2.76,2.61v4.76l-1.38,2.76,1.07,6.45-4.61,4.3s.92,4.45,0,4.91-1.54,4.45-1.54,4.45l-.31,6.3-.92,2.92h-2.61s.61,2.92,.77,5.22,2,3.68,2,3.68l-.15,2.61s-.77,2.92,1.23,4.45,3.07,4.76,3.07,4.76l.15,4.61-3.22,4.15s-.31-.61,.46,4.61-.92,3.38-.92,3.38l1.54,4.61s3.68,3.22,3.38,4.61,2.76,2,2.76,2l3.07-4.45,1.69,1.69-.77,2.76,3.07,4.15-.15,2.3-1.38,3.07v3.68l-.77,2.15,.46,3.68-1.38,2.61s1.84,3.22,1.84,6.3-1.23,7.06-1.23,7.06c0,0-.15,3.84-.31,4.61s-2.61,8.14-2.3,10.44,.61,3.38,.46,6.6,0,3.22,1.38,5.68-.92,2.92,1.54,5.68-1.69,9.52-1.07,11.52,1.84,3.07,4.61,5.22,4.15,6.45,4.15,6.45c0,0,1.84,5.22,2,7.52s1.84,5.53,5.07,5.68,6.76,4.45,6.76,4.45c0,0,6.6,8.44,9.06,8.44s10.75,5.68,13.36,5.68,8.29-.61,8.29-.61l9.21,.61h4.76s6.91,1.23,8.14,0,4.15-2.61,1.23-3.22-2.61,.15-5.53-.15-10.9-5.53-10.9-5.53c0,0-7.52-3.07-7.52-5.37s-1.23-4.91-1.23-4.91l-1.07-4.45-3.07-4.61c-.31-.46-2.46-6.3-2.46-6.3,0,0-1.07-4.3,.31-5.22s5.37-4.15,5.99-4.45,.92-8.29,2.3-8.6,10.9-8.91,11.52-9.83-.46-10.13-.46-10.13l-6.14,.61-8.75-7.37s-1.54-8.91,3.53-9.67,13.51-8.91,13.51-8.91l.61-9.52,2.15-2v-2.15s3.22-1.23,3.84-2.46-5.68-1.84-5.68-1.84c0,0,3.22-2.15,3.68-3.22s-3.84-3.99-3.84-3.99v-2.76l-2-7.52s-3.13-4.07,3.19-3.84,7.09,3.92,7.09,3.92c0,0,8.91,.77,10.13,.31s4.91-4.61,4.91-4.61l-.31-9.06,1.23-7.37,1.84-2.3,10.9-.46,8.44-.46,9.37-2.3s5.07-3.99,7.37-3.99,3.99-.77,3.99-.77l1.07-4.3s2.15-4.45,4.76-3.84c0,0,1.54-4.45,2.92-5.22s.15-5.83,.15-5.83l-5.37-3.38s-1.38-5.37,.77-5.83-3.68-8.44-3.68-8.44l-6.6-4.15s-1.07-4.76,.15-5.53,3.53,3.68,3.53,3.68l8.14,.15,4.15,4.76,16.43,.46,2.92,2,2-2.3,10.7-10.4"/><circle class="cls-1" cx="423.23" cy="178.09" r="4.05"/><text class="cls-3" transform="translate(427.24 160.27)"><tspan x="0" y="0">Belém</tspan></text></svg>