<?xml version="1.0" encoding="UTF-8"?><svg id="Layer_8" xmlns="http://www.w3.org/2000/svg" viewBox="0 0 878 936"><defs><style>.cls-1{fill:#6a376b;}</style></defs><g><path class="cls-1" d="M774.43,871.35c2.58-1.64,7.38-6.52,5.35-6.72l-9.22,7.08,3.87-.36Z"/><path class="cls-1" d="M783.16,849.22c-5.34,2.5-13.98,7.7-20.98,15.8,9.36-6.27,6.26-2.79,17.27-10.41,2.03,.2-.91,4.49-4.21,7.2,2.54-1.63-.25,3.47,5.64-.87,5.22-7.56,3.77-9.66-3.45-6.54,1.49-2.15,4.08-3.81,5.73-5.17Z"/><path class="cls-1" d="M694.71,727.44l-.35,1.64c.38-.71,.46-1.24,.35-1.64Z"/><path class="cls-1" d="M636.37,655.29c.68,.33,1.73-.24,2.52-.93-1,.04-1.89,.13-2.52,.93Z"/><path class="cls-1" d="M634.97,635.02c-.04,.5,.04,.82,.06,1.22,.54-.99,.73-1.65-.06-1.22Z"/><path class="cls-1" d="M694.71,727.44l.98-4.29c-2.88,2.44-1.19,2.84-.98,4.29Z"/><path class="cls-1" d="M748.66,853.13c.76,0,1.85-.42,3.15-1.09-.65,.03-1.24,.01-1.76-.09-.48,.41-.89,.76-1.39,1.18Z"/><path class="cls-1" d="M729.37,750.96l.52,.54c1.12-.73,2.43-1.67,3.87-2.75l-4.4,2.21Z"/><path class="cls-1" d="M751.98,772.69c-.17-.81-7.54,5.7-10.88,8.43,3.24-2.46,5.01-3.39,5.99-3.46,1.38-1.27,2.96-2.86,4.89-4.97Z"/><path class="cls-1" d="M773.09,820.86l1.6-.28c-.47,.12-1.02,.11-1.6,.28Z"/><path class="cls-1" d="M715.67,733.08c1.03-1.03,1.9-1.99,2.38-2.6-.9,.84-1.68,1.72-2.38,2.6Z"/><path class="cls-1" d="M65.37,141.53c.53-.46,.83-.79,1.28-1.19-.85,.54-1.4,.98-1.28,1.19Z"/><path class="cls-1" d="M76.36,81.77h.73c1.4-1.22,2.78-2.42,4.11-3.66l-4.84,3.66Z"/><path class="cls-1" d="M624.52,605.24c-.04,.12-.03,.13-.05,.22,1.34-.2,.9-.39,.05-.22Z"/><path class="cls-1" d="M438.49,415.6c-4.39,8.19-11.61,4.1-15.68,14.07,2.54-2.93,14.05-7.43,15.68-14.07Z"/><path class="cls-1" d="M749.05,851.66c-.37-.23-.72-.49-.95-.87,.16,.65,.46,.91,.95,.87Z"/><path class="cls-1" d="M422.81,429.67s-.06,.05-.06,.05l-.36,.97c.16-.42,.28-.68,.42-1.02Z"/><path class="cls-1" d="M574.83,560.43c-1.18,1.28-1.96,2.37-2.69,3.43,.72-.7,1.53-1.66,2.69-3.43Z"/><path class="cls-1" d="M598.36,606.34l.13-1.8c-.33,.97-.28,1.47-.13,1.8Z"/><path class="cls-1" d="M547.11,550.99c.1-1,.94-2.09-.65-1.86-.31,.41-.51,.7-.69,1.02,1.21-.67,1.97-.78,1.34,.84Z"/><path class="cls-1" d="M528.81,531.37c-.46,.62-.74,1.14-1.11,1.71,.32,.07,.65,.18,.96,.27l.15-1.97Z"/><path class="cls-1" d="M124.33,198.06c1.63-2.31,3.62-4.66,5.63-6.92-4.84,5.06-9.35,3.87-5.63,6.92Z"/><path class="cls-1" d="M752.7,849.36c-1.93,1.58-2.98,2.24-3.65,2.3,.29,.15,.64,.23,1,.29,1.12-.94,2.15-1.87,2.65-2.59Z"/><path class="cls-1" d="M489.5,603.01l-1.84-4.11c.11,1.53,.8,3,1.84,4.11Z"/><path class="cls-1" d="M256.36,338.16l-1.53,.09c.09,.43,.54,.49,1.53-.09Z"/><path class="cls-1" d="M477.99,590.61c2.02-2.92,2.95-4.88,3.35-6.39-.69,.4-1.28,.68-2.2,1.36l-1.15,5.02Z"/><path class="cls-1" d="M130.03,191.07s-.07,.08-.07,.08c0,0,.05-.05,.07-.08Z"/><path class="cls-1" d="M93.8,186.39c2.56,3.17,10.57-7.21,16.59-11.63,5.99,1.05-5.45,8.12-9.17,13.83,4.57-.11,14.85-6.49,16.01-4.49-1.44,1.57-1.71,2.42-4.02,3.86,9.71-4.65,6.84,6.62,18.83,.56-.65,.98-1.35,1.82-2.02,2.54,4.34-4.86,9.1-9.4,12.61-12.5,1.4,1.18,8.29-3.08,2.56,3.17-.58-.99-3.14,1.27-5.43,2.68l3.98-1.1c-7.73,9.52-4.85,.95-11.44,7.07,5.43,.04,15.75-3.63,15.17,.8-8.3,8.53-7.47-2.16-12.62,7.82l.33-6.33c-11.45,15.23-.87-2.85-13.46,13.07,1.43,6.6,8.86,.64,10.26,7.24,5.73-3.54,6.87-6.97,12.6-10.51,14.3-2.05-17.49,25.09-1.77,18.75,6.87-4.24,18.3-14.03,15.41-5.46l-10.85,8.07c2.85,5.03,16.34-10.8,13.72-.33-4.58,2.83-6.27-.21-6.86,1.5-5.18,10.02,7.42-3.21,9.42-1.06l-8.31,8.55c5.44,3.11,16.23,2.09,22.33,5.47-2.84,2.14-6.34,3.84-7.96,7.45,10.05,2.08,11.08,14.06,11.39,24.78l9.62-4.73c.4,.61-2.5,4.13-4.48,4.92-.72,4.95,4.88-4.31,8.87-5.96,1.74,.82-2.72,5.75-5.75,7.02,10.15-1.86,24.5-1.19,20.41,10.57l-3.01,1.24c.04,6.17,18.92-10.57,14.77-.96l-1.88,.65c3.46,10.26,17.78,11.86,11.54,27.93,11.82-9.02,1.82,11.65,17.37-1.93-3.66,11.09-7.46,12.42-7.09,22.91,.75,2.2,11.59-6.45,14.96-6l-7.86,7.39,10.72-5.09-8.16,10.17,3.7-.08c-.2-1.15,2.13-4.82,4.51-6.82,6.2-.51,.87,11.97-3.12,15.8l12.87,.45c-3.32,2.81-5.44,2.7-8.29,3.71,11.37-3.94-7.73,8.38,2.69,4.77,1.39-2.1,4.93-4.14,6.59-5.55-3.27,6.06,.12,9.8,4.68,10.66l-5.94,4.54c3.2,6.23,12.29,7.98,17.33,13.62,.69-4.34,10.56-12.66,12.98-11.88l-7.75,8.41c6.14-3.75,1.57-4.62,9.9-8.34,.96,2.97-8.21,10.21-12.03,11.56l5.24-.18c-2.36,2.46-4.22,3.09-7.54,5.89,6.15-3.79-4.35,12.13,6.05,5.25l-2.35,2.45c5.08,5.61,10.29,5.45,14.9,9.57,7.3-6.61,7.33-3.36,14.41-7.43,.78,5.46-1.47,14.4,2.86,17.83,6.2-.52,6.87-4.86,12.32-7.57-6.37,6.3-2.05,9.72-8.69,12.04,5.53,3.8,7,4.91,17.97,6.02,2.08-3.16,2.56-4.99,5.16-6.68,2.1,.1-.43,5.06-3.73,7.84l-.95,.34c16.17-2.34-4.55,33.5,14.18,26.2l-.96,.32,12.35-1c1.27,3.64-6.38,3.03-8.67,8.73,16.6-4.12,7.32,11.06,19.26,9.27-15.79,21.86,14.11,12.45,6.58,29.16l4.28-4.54c5.72-2.8-1.09,4.06-1.22,6.02,3.41-3.43,2.74-5.27,6-6.74,16.11,6.32,15.24,29.78,22.01,45.32,2.75,5.43,25.86-19.49,19.99-3.97l-9.89,6.33c18.19-.79,16.07,18.01,32.55,18.47-2.42,1.31-4.98,3.66-5.71,2.8-4.5,7.5,5.84,6.89,10.89,2.26,.66,1.85-4.25,4.52-6.06,7.71-1.96,5.17,12.04-2.8,6.8,3.84-.85,1.09-2.47,1.35-3.25,1.46,4.07-1.6,4.3,6.15,10.36-1.56-.44,6.32,8.8,3.15,6.95,9.58,9.47-5.72,1.23,8.99,12.95-.92-11.81,10.55-4.19,14.26,3.14,11.2-4.13,2.58-2.01,5.12-7.6,8.84,2.29,2.14,6.4,2.24,11.99-3.69-9.96,17.11,19.06-1.89,3.48,17.01,12.56,1.02,22.63,3.41,31.03,7.01-11.77,10.52-7.44-5.7-19.34,5.84,10.16,1.39,23.21-4.48,25.77,3.87-.2,2.96-5.81,3.82-8.25,5.14,10.16,1.38,9.37,12.2,20.47,11.52-1.09,.99-2.79,1.52-4.16,1.81,1.32,.67,.5,3.94,5.65-1.05l-2.35,.33c6.12-8.71,19.7-10.76,23.9-14.32-16.67,12.27,.95,8.62-20.64,23.56,1.62-.25,4.89-1.73,8.26-5.14-.1,1.94-1.86,4.17-6.79,6.87,6.25,.99,10.64-5.5,13.59-2.09-2.56,2.36-4.16,2.6-7.47,5.04,6.51-2.93,13.04-5.87,13.48-1.08-1.69,1.26-3.39,3.44-4.12,2.57,5.22,4.08,20.81-4.11,20.9,5.61-12.5,8.72-1.98,5.17-11.29,14.34l5.48,.18,3.59-5.45c2.14,2.63,11.15-1.66,9.99,3.39l-5.66,1.82,6.13,2.96,1.19-6c7.26-2.08,11.87-11.52,12.26-5.75-1.6,.24,2.19,2.58-2.26,9.12,0,0,0,0-.03,.02,4.19-1.61,8.57-3.32,7.89,.71-2.62,3.32-10.94,9.45-12.7,11.66,9.12-6.22,7.61,3.74,17.56-2.65-2.48,1.35-7.53,5.99-8.4,7.11l7.45-5.03c-1.01,3.08-1.87,4.18-6.04,7.72,2.02,4.56,11.13-12.38,9.7-3.42-.82,.17-1.66,1.23-3.26,1.47,1.09,6.65,11.51,4.12,11.82,10.87-8.6,10.06-5.43-1.11-12.37,7.71,6.81,3.83,22.03,.57,24.67,7.95l.15-1.97c14.28-11.9-3.08,10.17,5.82,6.89-1.61,.28-8.34,6.15-6.66,4.92,1.17,5.64,10.21,4.28,19.57,5.79l-4.12,2.57c-1.14,5.03,3.41,7.28,3.96,11.06,4.12-2.56,4.78-.72,9.12-6.23-13.31,25.57,23.24,3.62,12.5,25.31-.74-.72-4.72,1.05-4.18,1.66l8.2,2.37c5.53-5.93,2.94-4.04,6.5-9.45,4.14-2.58,8.27-3.6,9.51-2.27-6.17,1.24-9.5,8.86-11.84,12.97,1.65-1.86,3.99-3.36,5.75-5.17-7.94,12.59,12.36-10.6,8.81-.19l-3.3,2.69c2.92-.05,8.26-2.55,8.8-.18-6.26,7.01-4.61,1.45-10.35,6.59,2.41,1.8,16.96-7.79,11.95,.52-2.77,.85-4.03-.44-6.78,.4-6.07,9.61-3.79,7.96-3.59,10.73l.04-.33-.24,7.05,1.31-2.96c20.39-13.89,8.4,2.49,23.5-4.73-14.38,6.74-6.96,5.37-14.98,12.31-1.29,2.93-2.39,6.6-4.95,8.22,7.87-4.09-2.26,7.47,9.17,1.39-2.4,2.43,1.47,2.07-5.17,7.52,4.05,.42,3.86-4.57,7.17-7.3,11.75-4.47-2.81,17.76,13.54,11.85,8.81-.19,17.99-7.23,25.89-7.15-2.75,5.06-10.13,7.36-10.13,7.36-1.67,5.59,.52,6.59,5.29,5.98-2.56,1.61-4.01,3.75-6.24,6.98,2.17,1.04,10.12-7.36,8.44-1.77-3.14,2.22-8.04,5.89-11.57,7.69,4.1-.21,10.54-2.63,14.65-2.73-3.86,4.58-7.73,4.93-11.24,6.87,4.06,.42,9.36,2.16,16.91-3.56l1.13-3.73c1.09,.52-5.54,5.93-7.36,6.49-7.2,3.1-.19-5,2.22-7.44l2.93-.06c13.31-15.09-7.67-3.54-9.48-7.2l11.78-8.71-11.58,5.28c2.19-3.2,7.76-9.17,10.67-9.23,3.36-6.95-5.48,1.7-1.25-5.52,.73-1.05,1.33-1.43,1.92-1.64l-5.04,.94c2.61-1.69,7.22-7.33,6.83-4.66,2.81-9.32-13.4,1.62-6.58-7.25l.94-.31c-8.25-1.66-8.29,6.8-20.96,11.57l16.97-20.47-8.28,6.78c-.2-.78-.56-2.34,2.75-5.06-7.14,3.06-3.1,3.49-9.2,7.07,4.82-9.11-9.7-3.75,2.25-15.9-6.78,4.63-2.38,6.64-8.98,7.83,12.72-13.22-5.15-.93-1.1-8.92,7.57-5.73,5.91-.18,9.97-8.19-12.97,9.5-1.54-6.8-5.56-6.64-9.4,8.56-7.75-.55-13.84-.88,3.32-2.7-.49-10.8,.11-16.93l1.64-1.36c-9.95,8.17-11.04,3.43-15.08,3,5.72-5.15,8.32-6.81,11.97-7.94l-2-2.07c-3.48,2.31-5.68,3.12-8.03,2.76l7.53-6.01c-3-2.45-13.54,2.04-12.2-5.94-6.76,5.9-15.62,19.86-23.55,20.11,3.42-3.44,9.36-9.22,11.74-9.57-.77,.1-4.03,1.57-3.13-.5l7.39-4.02c1.09-4.08-5.79,3.77-6.46,1.94,5.09-4.68,2.71-4.33,6.9-7.87,.8-.12-1.03,3.09,1.43,1.75-.47-2.33,.86-6.9,4.15-11.06-2.76,2.8-6.82,6.33-8.48,5.86-2.98-2.47,5.2-6.62,6.28-10.67-4.14,2.58-2.17-2.59-9.78,4.39-.72-.86,2.67-4.29,4.42-6.51-4.69,1.65-7.26-5.91-13.79,3.21l-.18,.87c-.22,.08-.3,0-.55,.07h.01s-.01,0-.01,0c-11.95,2.23-4.91-13.88-12.54-15.59l2.54-2.35c-5.51-.14-7.54-4.69-14.86-1.65-.77-.84,2.79-6.26,6.14-8.71-3.91-.39-6.97,2.01-5.69-4.99,6.43-1.93,3.22-4.39,5.3-.78-.42-4.83,3.05-9.24-6.67-5.81,7.44-5,6.21-9.7,3.03-9.23l-2.81,6.27c-2.34-.62-2.98-2.46-3.66-4.31l9.2-7.2c5.05-15.38-27.27,6.06-13.95-14.44-7.38,4.03-1.31,7.02-9.55,12.14-1.3-3.71,8.39-17.83,7.65-18.68,1.37-8-15.6,8.21-15.88,1.42-2.59,3.3-10.29,11.31-15.78,11.15-1.33-3.69,9.75-15.1,13.74-15.7,.84,.4,.16,1.6-.89,2.53,1.9-.17,4.24-.27,6.57-4.38l-3.36,2.48c1.89-4.19-1.81-7.52,3.97-11.31-4.75,.7-5.78,3.78-5.99,6.72,1.26-7.48-4.78-5.41-5.06-11.65-1.16,2.11-4.26,5.94-4.75,5.36-.98-8.61-7.86,3.11-12.42,.88,2.81-6.28,11.73-9.58,4.6-9.46,1.16-5.05,7.66-7.95,10.92-9.41-8.82,2.27-1.66-9.52-2.26-12.33l4.01-.61c-2.39,.35-3.11-.51-3.87-1.35l-5.2,6.61c.15-1.97-.6-2.82,1.95-5.16-4.93,2.69-9.4,10.18-16.72,13.23,1.88-4.18-7.02-.91,.63-8.86,1.09,6.67,7.69-7.99,12.23-5.71-1.59,.22-2.31-.63-2.16-2.61,.77-.99,1.8-1.41,2.51-1.58,3.56-10.65-10.82,6.67-14.42,2.41,5.03-3.71,7.75-8.97,6.16-8.73,1.44,1.73-6.86,7.84-11.75,9.57,1.11-5.91-5.28-.4-6.14-2.15l-.21,3.12c-5.04,3.69-5.66,1.83-8.79,1.33,3.4-3.45,3.98-.6,4.94-2.71-9.88,5.4,4.03-12.28-3.99-10.1,1.86-4.17,8.43-8.07,9.46-11.16-8.85,2.31,3.05-9.22-4.92-8.03-5.22,6.64-3.57,5.42-11.71,8.61l9.39,1.48-12.16,4.75c1.45,1.73,7.08-.08,6.96,1.87-6.55,2.96-4.87,1.72-9.21,7.23,7.08-10.79-9.51,.48-5.74-7.89l15.22-13.99c3.11-10.2-14.25,.23-15.18-8.41l-1.11,4.09c-6.66,4.91-3.76-2.37-7.74-1.76,5.21-4.55,6.08-7.29,8.58-10.92-3.68,3.58-3.12-4.05-13.67,4.87l4.55-8.47c-1.1-6.66-18.79,8.7-20.75,3.13,6.61-3.92,8.53-9.05,14.93-10.05-1.18-1.37-1.36-3.42-4.89-.18,2.46-3.72-10.22,2.67-6.55-3.02-2.74,1.51-8.21,6.25-9.17,4.38,.88-1.11,2.5-2.31,2.5-2.31-2.5,2.31-5.56,.83-9.96,7.34,12.01-18.75-11.73-10.32-1.45-26.47-4.38-1.3-9.24-3.27-12.04-5.55,1.67-1.24,2.53-2.34,2.47-1.35,1.35-7.99-16.6,11.28-15.16,2.28,6.23-9.7,6.46-1.93,8.34-6.11,16.13-16.04-6.88-2.85,.28-14.66l1.6-.24c3.7-7.37-11.11,.7-13.12-3.86,0,0,1.63-1.2,2.53-2.32-10.69,5.53-17.66,3.66-23.11,2.53,7.48-5.02,4.85-1.69,10.89-8.48-2.32-.62-10.23,10.32-14.85,9.06,2.67-4.28,3.8-9.33,10.6-16.17l2.99,2.45c7.81-9.93-3.69-3.34-3.47-6.3l4.17-3.52c-5.29-3.1-15.42,6.2-18.99,.91l-2.59,3.29c-12.32,6.74,3.65-7.33-6.11-2.96l9.42-10.17c-3.99,.6-15.21,3.25-19.89,2.03,9.08-5.28,16.17-5.35,22.63-7.32-1.46-1.72-5.96-4.92-11.76-1.14,1.6-.24,4.85-1.71,3.91,.4-9.84,5.36-16.23,6.33-19.11,2.88,20.17-17.64-3.02-13.18,10-29.72-12.66,.91-7.63-14.43-15.1-20.14-13.04,16.59-2.27-1.58-17.57,13.4-2.47-.65-2.77-1.49-1.88-2.58l4.92-13.49c3.51-5.37,4.85-1.71,8.24-5.12-2.01-4.58,5.3-7.62,7.34-13.78-5.17,5.68-9.15,6.26-8.84,2.3l-4.65,9.49c-12.84,2.91,9.28-16.4-3.51-13.6l6.37-3.04c-5.23,.2-8.47-9.32-23.34-.07,1.4-2.12,5.14-6.69,7.3-6.64-3.66-7.73-25.76-.86-22.32-12.71l4.25-3.1c-2.14-.09-9.01,4.75-6.44-.23,1.65-1.4,4.24-3.1,3.99-3.83-1.87,.64-9.47,3.28-8.61-.28l5.49-2.74c-.39-10.49-18.82,.81-25.99-1.64,11.3-10.47,10.71-18.47,10.41-22.45l1.67-1.4c-4.91-8.09-20.07-2.84-30.34-5.02,8.63-15.28-7.15-17.98-6.1-30.64-1.16,2.87-8.94,8.01-11.11,7.95,.92-3.59-11.61,3.2-1.04-6.17l.29,.71c9.13-10.54,3.61-11.05,1.7-13.68l-13.91,12.19c13.96-24.47-22.27-9.47-7.76-29.23-4.77,1.66-6.45-.23-11.21,1.44l7.34-6.67c-1.98-5.85-2.99-8.76-9.46-12.26l6.16-3.78c-2.21-3.32-24.31,15.81-27.21,13.55l10.1-10.86c-4.84-4.87-.04-18.79-14.48-14.63,1.67-1.4,4.93-4.16,6.13-3.75-1.91-2.63-1.16-15.96-15.24-1.29,9.63-9.05-3.87-6.06-10.66-4.81l7.54-6.22c-11.26,6.19-13.83,8.44-19.32,7.59,.22-1.62,5.1-5.97,4.21-3.27,1.4-6-8.6,4.32-7.63-2.28l5.62-3.1c-1.86-3.11-4.12-.63-10.77,2.88-4.38,1.03-2.78-6.6,3.33-12.99-4.26,3.31-10.85,6.77-10.41,3.52,2.25-2.47,4.28-3.32,5.28-3.73,.83-8.86-14.31,1.26-10.07-8.25,2.31-2.26,3.32-3.56,3.8-4.47,3.03,3.62,5.22,6.76,4.46,6.98,6.59-6.12,5.15-9.98,16.31-16.21-7.04,2.37-21.39,8.57-20.82,2.97,.52-.72,1.02-1.43,1.95-2.48l1-.4c.07-1.24-1.06-1.23-2.66-.73,.28-1.87,.57-3.17-.11-4.09,5.15-5.39-.03-5.93-1.05-7.57-7.11,6.82-7.64,3.92-12.01,11.15,.31-.7,1.11-.54,2.27,.11,.41,.01,.74,.16,1.3-.1-.23,.16-.48,.34-.72,.49,1.06,.72,2.32,1.76,3.69,3.01-4.68,2.3-8.83,4.02-6.26-1.24-5.3,3.59-10.79,7.23-13.44,8.86,8.29-11.24,10.32-19.96,16.04-26.22-7.99-.49-11.96-7.52-27.98,2.38-2.86,.41,2.59-4.99,4.3-7.42,2.01-.57,2.57,.46,4.86-.97-5.72,.81-7.99-5.9-17.99,2.31,1.44-7.01,10.3-6.38,4.87-9.12l3.42-2.12c7.48-22.27-36.57,9.06-25.62-18.08-.6,1.74-.86,2.56-2.33,4.17-1.09-18.34-27.93-13.96-23.88-36.82,.03-5.46-6.31-.16-12.55,2.33l7.16-7.82-11.76,5.26c-10.55,1.76,12.07-25.12-5.37-19.1l-4.57,5.55c-.84-2.87-8.85-3.36-2.54-8.6-1.14,.68-6.03,4.4-4.02,1.1l4-3.82-11.42,1.63c-.54-6.46,16.63-14.35,12.35-20.54-3.44-.58-17.16,5.19-19.16,8.47,.56,1-.59,4.44-4.59,8.27l-3.83,.11c-12.25,10.75-25.8,20.69-29.92,32.98l10.25-3.61-4.84,6.4-2.84-2.33c-4.05,6.58,1.67,3.06,5.97,1.06-2.84,3.11-4.58,5.56-5.15,7.25l14.29-7.48c-4.32,4.71-10.56,7.21-11.2,11.69,6.65-3.46,9.17-11.13,14.89-11.94-4.01,6.55-8.85,10.22-2.56,7.69-2.84,3.11-5.15,4.55-7.16,5.1,5.16-1.84,5.45,2.74,12.56-2.33-5.23,7.8,6.71,3.73-4.74,14.07,3.17-2.01,11.46-5.45,13.29-4.43-16,9.91,4.26,6.19-10.9,18.96,13.99-9.33,12,2.09,21.99-.7-1.15,.7-3.46,2.14-3.12,1.25,.81,2.9-2.33,6.88-3.46,10.28,10.28-9.08,15.42-8.16,23.15-12.27-7.46,11.41-13.16,9.5-21.77,18.9,8.03-7.69,12.01-3.38,18.03-10.49-4.29,7.41-1.44,4.29-8.89,12.98,12.87-11.35,3.72-.27,12.86-5.91-3.72,8.41-11.13,11.62-4.6,10.99-2.55,4.96-9.42,6.5-9.42,6.5Zm86.3,49.34c-.07,.06-.11,.1-.14,.13-.72-.45-1.34-.82-1.74-1.06,.38,.21,.91,.49,1.88,.92Zm5.54,5.74c-.38-.97-1.15-1.9-2.07-2.8,2.29-2.51,5.07-4.68,5.48-3.97-1.96,1.23-2.12,3.94-3.41,6.76Zm38.48-58.76c1.88-.02,.75,1.6-.61,3.1-.53-.32-1.25-.6-2.37-.81-.29,.22-.65,.45-.98,.71,1.46-1.19,2.84-2.29,3.96-3Z"/><path class="cls-1" d="M213.12,189.83c-.29,.02-.65,.22-.88,.11-.46,.78-.83,1.46-1.11,2.06,.87-.6,1.73-1.18,2.56-1.77-.2-.13-.38-.28-.58-.39Z"/><path class="cls-1" d="M694.31,729.36l.05-.28c-.19,.37-.38,.72-.79,1.21,.27-.41,.5-.62,.74-.94Z"/><polygon class="cls-1" points="246.76 334.96 248.58 333.26 246.51 334.23 246.76 334.96"/><path class="cls-1" d="M699.45,784.52c-.58,.65-1.12,1.38-1.45,2.14,.46-.46,.94-1.25,1.45-2.14Z"/><path class="cls-1" d="M710.75,799.92l-.74,4.35c.67-2.21,.79-3.47,.74-4.35Z"/><path class="cls-1" d="M717.1,813.92c1.39-1.04,2.38-1.88,3.28-2.66,.01-.03,0-.04,.03-.07l-3.31,2.72Z"/><path class="cls-1" d="M550.81,651.87c-.17-.11-.4-.16-.71-.11-2.3,.33-1.13,.48,.71,.11Z"/><path class="cls-1" d="M614.62,686.8c-1.81,.68-3.58,1.34-4.92,1.54,.28,1.41,.79,2.25,4.92-1.54Z"/><path class="cls-1" d="M489.69,603.47s.06-.06,.13-.11c-.14-.1-.21-.23-.32-.35l.19,.46Z"/><path class="cls-1" d="M607.64,685.87c-.61,2.24,.41,2.7,2.06,2.47-.2-1.19-.27-2.74-2.06-2.47Z"/><path class="cls-1" d="M756.84,863.29l.18,.79c.47-.45,.88-.78,1.22-1.02l-1.4,.23Z"/><path class="cls-1" d="M758.24,863.06l1.38-.22c-.24-.26-.51-.44-1.38,.22Z"/><path class="cls-1" d="M762.56,862.36l-2.93,.48c.37,.43,.62,1.16,2.93-.48Z"/><path class="cls-1" d="M747.04,846.04l-2.77,2.27c.62-.41,1.52-1.14,2.77-2.27Z"/><path class="cls-1" d="M742.29,842.44c.36,1.58-3.18,7.75-.22,7.66l2.2-1.8c-4.51,2.94,3.33-8.98-1.98-5.86Z"/><path class="cls-1" d="M757.94,794.49l1.26,5.54c2.2-3.21,5.17-7.52,7.36-6.5,4.09-12.26-5.36,6.72-8.62,.96Z"/><path class="cls-1" d="M751.6,779.57c3.09,.73,4.02-3.78,5.69-5.14-3.68,1.13-4.6,1.43-5.69,5.14Z"/><path class="cls-1" d="M676.66,698.81l6.74-5.89c-2.32-.62-2.55,2.35-6.74,5.89Z"/><polygon class="cls-1" points="628.42 714.88 625.69 720.11 632.34 715.22 628.42 714.88"/><polygon class="cls-1" points="666.68 662.36 668.22 662.14 663.53 661.86 666.68 662.36"/><path class="cls-1" d="M538.43,528.95l-7.66,7.96c2.39-.34,11.66-8.56,7.66-7.96Z"/><path class="cls-1" d="M475.84,478.06c3.45-4.39,4.52-8.45-.4-5.78,.67,1.83-1.26,6.07,.4,5.78Z"/><polygon class="cls-1" points="325.98 290.3 329.77 288.97 325.46 288.84 325.98 290.3"/></g><g><path class="cls-1" d="M117.7,75.38c-2.59,1.63-7.41,6.49-5.38,6.7l9.26-7.04-3.88,.34Z"/><path class="cls-1" d="M108.87,97.47c5.35-2.48,14.01-7.64,21.06-15.7-9.39,6.22-6.27,2.76-17.32,10.33-2.03-.21,.93-4.48,4.24-7.18-2.55,1.61,.27-3.47-5.64,.85-5.25,7.54-3.81,9.64,3.42,6.56-1.5,2.15-4.09,3.79-5.75,5.14Z"/><path class="cls-1" d="M196.74,219.66l.36-1.64c-.38,.71-.47,1.23-.36,1.64Z"/><path class="cls-1" d="M254.74,292.09c-.68-.33-1.73,.23-2.52,.92,1-.03,1.89-.12,2.52-.92Z"/><path class="cls-1" d="M256.04,312.37c.04-.5-.03-.82-.05-1.22-.54,.98-.74,1.65,.05,1.22Z"/><path class="cls-1" d="M196.74,219.66l-1,4.28c2.9-2.43,1.21-2.83,1-4.28Z"/><path class="cls-1" d="M143.38,93.71c-.76,0-1.85,.41-3.15,1.07,.65-.02,1.24,0,1.76,.1,.48-.41,.89-.76,1.39-1.17Z"/><path class="cls-1" d="M162.19,195.98l-.52-.54c-1.12,.73-2.43,1.66-3.89,2.73l4.41-2.19Z"/><path class="cls-1" d="M139.68,174.14c.17,.81,7.57-5.67,10.92-8.38-3.25,2.45-5.03,3.37-6.01,3.43-1.39,1.26-2.97,2.84-4.91,4.95Z"/><path class="cls-1" d="M118.8,125.87l-1.6,.28c.47-.12,1.02-.1,1.6-.28Z"/><path class="cls-1" d="M175.81,213.92c-1.04,1.03-1.91,1.98-2.39,2.59,.9-.83,1.69-1.71,2.39-2.59Z"/><path class="cls-1" d="M823.31,808.54c-.53,.46-.84,.78-1.29,1.19,.85-.54,1.41-.97,1.29-1.19Z"/><path class="cls-1" d="M812.03,868.24h-.73c-1.41,1.21-2.79,2.41-4.13,3.64l4.86-3.64Z"/><path class="cls-1" d="M266.35,342.19c.04-.12,.03-.13,.05-.22-1.34,.2-.9,.38-.05,.22Z"/><path class="cls-1" d="M451.48,532.7c4.43-8.17,11.63-4.04,15.75-13.99-2.55,2.92-14.08,7.36-15.75,13.99Z"/><path class="cls-1" d="M142.98,95.19c.37,.24,.72,.49,.94,.88-.16-.65-.45-.91-.94-.88Z"/><path class="cls-1" d="M467.23,518.71s.06-.05,.06-.05l.36-.97c-.17,.42-.29,.68-.42,1.02Z"/><path class="cls-1" d="M315.83,387.23c1.18-1.27,1.97-2.36,2.71-3.41-.73,.7-1.53,1.65-2.71,3.41Z"/><path class="cls-1" d="M292.51,341.22l-.14,1.8c.33-.97,.29-1.46,.14-1.8Z"/><path class="cls-1" d="M343.5,396.81c-.1,1-.95,2.09,.64,1.87,.31-.4,.51-.7,.7-1.02-1.21,.66-1.97,.77-1.34-.85Z"/><path class="cls-1" d="M361.71,416.51c.46-.61,.75-1.13,1.12-1.7-.32-.07-.65-.19-.96-.27l-.16,1.97Z"/><path class="cls-1" d="M764.61,751.73c-1.64,2.31-3.64,4.64-5.67,6.9,4.86-5.04,9.37-3.83,5.67-6.9Z"/><path class="cls-1" d="M139.32,97.47c1.94-1.57,2.99-2.23,3.66-2.28-.29-.15-.64-.24-.99-.3-1.13,.93-2.16,1.86-2.67,2.58Z"/><path class="cls-1" d="M401.36,345.06l1.82,4.12c-.1-1.53-.79-3-1.82-4.12Z"/><path class="cls-1" d="M633.24,611l1.53-.08c-.09-.43-.53-.49-1.53,.08Z"/><path class="cls-1" d="M412.81,357.51c-2.04,2.91-2.98,4.87-3.38,6.37,.69-.4,1.29-.67,2.2-1.35l1.18-5.02Z"/><path class="cls-1" d="M758.88,758.7s.07-.08,.07-.08c0,0-.05,.04-.07,.08Z"/><path class="cls-1" d="M795.09,763.55c-2.54-3.18-10.61,7.16-16.65,11.55-5.99-1.08,5.48-8.09,9.24-13.79-4.57,.09-14.88,6.42-16.04,4.42,1.45-1.56,1.73-2.41,4.04-3.84-9.73,4.6-6.8-6.65-18.83-.65,.65-.98,1.36-1.82,2.04-2.53-4.36,4.84-9.14,9.36-12.67,12.44-1.4-1.19-8.3,3.04-2.54-3.18,.57,.99,3.14-1.25,5.44-2.65l-3.99,1.08c7.77-9.48,4.85-.92,11.47-7.01-5.43-.06-15.77,3.56-15.17-.87,8.34-8.49,7.46,2.2,12.66-7.76l-.36,6.33c11.52-15.18,.86,2.85,13.52-13.01-1.4-6.6-8.86-.68-10.22-7.29-5.74,3.51-6.9,6.94-12.65,10.45-14.31,1.98,17.61-25.01,1.86-18.74-6.89,4.21-18.37,13.95-15.43,5.39l10.89-8.02c-2.82-5.04-16.39,10.72-13.72,.27,4.6-2.81,6.27,.24,6.87-1.47,5.23-9.99-7.44,3.18-9.42,1.02l8.35-8.51c-5.43-3.14-16.22-2.17-22.3-5.58,2.85-2.13,6.36-3.81,7.99-7.42-10.04-2.13-11.01-14.12-11.28-24.83l-9.65,4.69c-.4-.61,2.52-4.12,4.51-4.9,.74-4.95-4.9,4.29-8.9,5.91-1.74-.83,2.75-5.74,5.78-6.99-10.16,1.81-24.5,1.08-20.36-10.67l3.02-1.23c-.01-6.17-18.97,10.48-14.78,.89l1.89-.64c-3.41-10.28-17.72-11.94-11.41-27.99-11.86,8.96-1.76-11.66-17.38,1.85,3.71-11.07,7.52-12.39,7.2-22.88-.74-2.2-11.62,6.4-14.98,5.93l7.9-7.35-10.74,5.04,8.21-10.13-3.7,.06c.2,1.15-2.16,4.81-4.54,6.8-6.2,.48-.81-11.98,3.19-15.79l-12.87-.51c3.33-2.79,5.46-2.68,8.31-3.67-11.39,3.89,7.77-8.34-2.67-4.78-1.4,2.09-4.95,4.11-6.62,5.52,3.3-6.05-.07-9.8-4.62-10.68l5.96-4.51c-3.17-6.24-12.25-8.04-17.27-13.7-.71,4.34-10.62,12.61-13.04,11.82l7.79-8.37c-6.16,3.72-1.59,4.62-9.94,8.29-.95-2.97,8.25-10.18,12.09-11.5l-5.24,.15c2.37-2.45,4.23-3.07,7.57-5.86-6.17,3.76,4.41-12.11-6.02-5.28l2.36-2.44c-5.05-5.63-10.26-5.5-14.85-9.65-7.33,6.58-7.35,3.32-14.45,7.36-.75-5.46,1.54-14.39-2.77-17.84-6.2,.49-6.9,4.82-12.36,7.51,6.4-6.27,2.1-9.71,8.75-12-5.51-3.83-6.98-4.94-17.94-6.11-2.09,3.15-2.59,4.97-5.19,6.66-2.1-.11,.45-5.06,3.77-7.82l.95-.34c-16.19,2.26,4.71-33.48-14.06-26.27l.96-.32-12.36,.94c-1.25-3.65,6.39-3,8.71-8.68-16.62,4.04-7.26-11.09-19.21-9.36,15.89-21.79-14.05-12.52-6.45-29.19l-4.31,4.52c-5.74,2.78,1.12-4.05,1.25-6.02-3.43,3.42-2.77,5.26-6.03,6.71-16.08-6.4-15.1-29.85-21.79-45.42-2.73-5.44-25.96,19.37-20,3.88l9.92-6.29c-18.2,.7-15.99-18.08-32.47-18.62,2.43-1.3,5-3.63,5.73-2.77,4.53-7.48-5.81-6.92-10.88-2.31-.65-1.85,4.28-4.5,6.09-7.68,1.99-5.16-12.05,2.74-6.78-3.88,.85-1.09,2.47-1.34,3.25-1.45-4.07,1.58-4.27-6.17-10.37,1.52,.47-6.32-8.78-3.19-6.91-9.62-9.5,5.68-1.18-9-12.95,.85,11.86-10.49,4.25-14.24-3.08-11.22,4.14-2.56,2.04-5.11,7.64-8.81-2.28-2.15-6.39-2.27-12,3.64,10.04-17.07-19.06,1.8-3.4-17.03-12.55-1.08-22.61-3.51-31-7.16,11.82-10.46,7.41,5.74,19.36-5.75-10.16-1.43-23.23,4.37-25.75-3.99,.21-2.96,5.83-3.79,8.27-5.11-10.15-1.43-9.32-12.25-20.42-11.62,1.09-.98,2.79-1.51,4.17-1.79-1.32-.68-.48-3.95-5.65,1.02l2.35-.32c-6.16,8.68-19.75,10.67-23.96,14.21,16.73-12.19-.91-8.63,20.75-23.47-1.62,.25-4.9,1.7-8.28,5.1,.11-1.94,1.88-4.16,6.83-6.84-6.24-1.02-10.66,5.45-13.6,2.02,2.57-2.34,4.17-2.58,7.5-5-6.52,2.9-13.07,5.81-13.49,1.01,1.7-1.25,3.4-3.42,4.13-2.55-5.2-4.11-20.83,4.01-20.87-5.71,12.54-8.66,2-5.16,11.36-14.29l-5.48-.2-3.62,5.43c-2.12-2.64-11.15,1.61-9.97-3.43l5.66-1.8-6.12-2.99-1.22,6c-7.27,2.04-11.92,11.46-12.29,5.69,1.6-.23-2.18-2.59,2.3-9.11,0,0,0,0,.03-.02-4.2,1.59-8.58,3.28-7.89-.75,2.64-3.31,10.99-9.4,12.75-11.59-9.15,6.18-7.59-3.78-17.57,2.56,2.48-1.34,7.56-5.96,8.43-7.07l-7.47,4.99c1.03-3.07,1.89-4.17,6.08-7.69-2-4.57-11.19,12.32-9.71,3.37,.83-.16,1.67-1.22,3.27-1.45-1.06-6.66-11.49-4.17-11.77-10.93,8.65-10.02,5.42,1.14,12.41-7.65-6.79-3.86-22.03-.67-24.63-8.07l-.16,1.97c-14.34,11.83,3.12-10.16-5.78-6.92,1.61-.27,8.37-6.11,6.68-4.89-1.14-5.65-10.19-4.33-19.54-5.88l4.13-2.55c1.17-5.02-3.38-7.29-3.91-11.07-4.13,2.54-4.78,.69-9.14,6.19,13.43-25.51-23.22-3.73-12.38-25.37,.73,.72,4.73-1.02,4.19-1.64l-8.19-2.41c-5.56,5.9-2.95,4.02-6.55,9.42-4.16,2.57-8.29,3.56-9.52,2.23,6.17-1.21,9.54-8.81,11.9-12.92-1.66,1.85-4,3.35-5.78,5.14,8-12.55-12.41,10.55-8.81,.14l3.31-2.67c-2.92,.03-8.27,2.51-8.8,.14,6.29-6.98,4.62-1.43,10.38-6.54-2.4-1.81-17,7.71-11.95-.58,2.77-.84,4.02,.46,6.78-.37,6.11-9.58,3.83-7.94,3.64-10.72l-.04,.33,.27-7.05-1.33,2.95c-20.46,13.79-8.38-2.53-23.52,4.62,14.41-6.67,6.98-5.33,15.04-12.24,1.3-2.93,2.42-6.59,4.99-8.2-7.89,4.06,2.3-7.46-9.16-1.44,2.41-2.42-1.46-2.08,5.21-7.49-4.05-.44-3.88,4.55-7.21,7.26-11.77,4.42,2.89-17.74-13.48-11.91-8.81,.15-18.02,7.15-25.92,7.03,2.78-5.05,10.17-7.31,10.17-7.31,1.69-5.58-.49-6.59-5.26-6,2.57-1.6,4.03-3.73,6.27-6.95-2.17-1.05-10.16,7.31-8.45,1.73,3.15-2.21,8.06-5.85,11.61-7.64-4.1,.19-10.55,2.58-14.67,2.66,3.89-4.56,7.76-4.9,11.27-6.82-4.05-.44-9.35-2.2-16.92,3.48l-1.15,3.73c-1.08-.52,5.57-5.9,7.39-6.46,7.21-3.06,.17,5-2.26,7.43l-2.93,.05c-13.38,15.02,7.65,3.57,9.45,7.24l-11.82,8.66,11.61-5.22c-2.21,3.19-7.8,9.13-10.71,9.18-3.39,6.93,5.49-1.68,1.22,5.53-.74,1.04-1.34,1.43-1.93,1.63l5.05-.92c-2.62,1.68-7.26,7.3-6.85,4.63-2.85,9.31,13.41-1.55,6.55,7.28l-.94,.3c8.25,1.69,8.32-6.76,21.01-11.47l-17.07,20.39,8.32-6.74c.19,.78,.55,2.35-2.77,5.05,7.16-3.02,3.12-3.48,9.23-7.03-4.87,9.09,9.68,3.8-2.33,15.88,6.8-4.6,2.41-6.63,9.02-7.79-12.78,13.16,5.14,.96,1.06,8.92-7.6,5.7-5.91,.15-10.01,8.14,13.02-9.44,1.51,6.81,5.53,6.66,9.44-8.52,7.75,.59,13.84,.95-3.33,2.69,.44,10.8-.19,16.92l-1.65,1.35c9.99-8.12,11.06-3.38,15.09-2.93-5.75,5.12-8.35,6.77-12.01,7.88l1.99,2.08c3.49-2.29,5.7-3.1,8.04-2.72l-7.56,5.97c2.98,2.46,13.55-1.98,12.17,6,6.78-5.86,15.71-19.79,23.64-20-3.43,3.42-9.4,9.18-11.79,9.51,.77-.1,4.04-1.55,3.13,.51l-7.41,3.99c-1.11,4.08,5.81-3.75,6.46-1.91-5.11,4.65-2.73,4.32-6.94,7.84-.8,.12,1.04-3.09-1.42-1.76,.46,2.33-.89,6.9-4.2,11.04,2.77-2.79,6.85-6.3,8.51-5.82,2.97,2.48-5.23,6.59-6.33,10.64,4.16-2.56,2.15,2.6,9.8-4.34,.72,.86-2.69,4.28-4.45,6.49,4.69-1.62,7.23,5.94,13.8-3.15l.19-.86c.22-.07,.31,0,.55-.07h-.01s.01,0,.01,0c11.96-2.17,4.84,13.9,12.46,15.65l-2.55,2.34c5.51,.16,7.52,4.73,14.85,1.72,.76,.85-2.82,6.25-6.18,8.68,3.9,.41,6.98-1.98,5.67,5.01-6.44,1.9-3.24,4.37-5.3,.76,.4,4.83-3.09,9.22,6.64,5.85-7.46,4.96-6.26,9.67-3.08,9.21l2.84-6.26c2.33,.63,2.97,2.48,3.64,4.33l-9.23,7.16c-5.13,15.35,27.3-5.93,13.88,14.51,7.4-3.99,1.34-7.01,9.61-12.1,1.28,3.71-8.48,17.79-7.74,18.64-1.41,8,15.64-8.13,15.89-1.35,2.6-3.29,10.34-11.26,15.83-11.07,1.31,3.69-9.82,15.06-13.82,15.64-.84-.4-.16-1.6,.91-2.52-1.9,.16-4.24,.25-6.59,4.35l3.37-2.47c-1.91,4.19,1.78,7.53-4.03,11.29,4.75-.67,5.8-3.75,6.02-6.7-1.3,7.47,4.76,5.43,5,11.67,1.17-2.11,4.29-5.92,4.77-5.34,.94,8.62,7.88-3.07,12.42-.83-2.84,6.26-11.78,9.53-4.65,9.44-1.19,5.04-7.69,7.92-10.97,9.36,8.83-2.23,1.61,9.53,2.21,12.34l-4.01,.59c2.39-.34,3.1,.52,3.86,1.37l5.23-6.58c-.16,1.97,.59,2.82-1.97,5.15,4.94-2.67,9.45-10.13,16.79-13.15-1.9,4.17,7.02,.94-.67,8.86-1.05-6.67-7.73,7.95-12.26,5.66,1.59-.22,2.31,.64,2.15,2.62-.77,.98-1.81,1.41-2.52,1.56-3.61,10.63,10.85-6.62,14.44-2.34-5.05,3.69-7.8,8.93-6.21,8.7-1.43-1.74,6.9-7.81,11.8-9.51-1.14,5.91,5.28,.42,6.13,2.18l.23-3.12c5.06-3.67,5.67-1.8,8.8-1.29-3.42,3.43-3.98,.59-4.95,2.69,9.91-5.36-4.08,12.26,3.94,10.11-1.88,4.16-8.47,8.03-9.51,11.12,8.86-2.27-3.09,9.21,4.88,8.05,5.26-6.62,3.6-5.4,11.75-8.55l-9.38-1.53,12.18-4.69c-1.44-1.74-7.08,.05-6.96-1.9,6.56-2.93,4.87-1.7,9.24-7.18-7.13,10.75,9.51-.44,5.7,7.91l-15.29,13.92c-3.15,10.19,14.26-.17,15.14,8.48l1.13-4.08c6.68-4.88,3.75,2.39,7.73,1.79-5.23,4.53-6.12,7.26-8.63,10.88,3.69-3.56,3.11,4.07,13.69-4.81l-4.59,8.45c1.06,6.66,18.83-8.61,20.76-3.04-6.63,3.89-8.57,9.01-14.98,9.98,1.17,1.38,1.34,3.43,4.88,.2-2.47,3.71,10.24-2.62,6.53,3.05,2.75-1.49,8.24-6.21,9.19-4.33-.88,1.11-2.51,2.3-2.51,2.3,2.51-2.3,5.56-.81,9.99-7.29-12.1,18.69,11.68,10.37,1.32,26.48,4.38,1.33,9.23,3.31,12.02,5.6-1.68,1.23-2.54,2.32-2.47,1.34-1.39,7.98,16.66-11.2,15.17-2.21-6.28,9.67-6.46,1.9-8.37,6.07-16.21,15.97,6.87,2.89-.35,14.66l-1.6,.23c-3.73,7.35,11.11-.65,13.11,3.92,0,0-1.64,1.2-2.55,2.3,10.72-5.48,17.68-3.58,23.12-2.42-7.5,4.98-4.86,1.67-10.93,8.43,2.32,.63,10.28-10.27,14.89-8.99-2.69,4.27-3.84,9.31-10.68,16.12l-2.98-2.47c-7.86,9.9,3.67,3.36,3.44,6.31l-4.19,3.5c5.28,3.12,15.45-6.13,19-.82l2.6-3.28c12.35-6.68-3.68,7.32,6.1,2.99l-9.46,10.12c3.99-.58,15.22-3.18,19.9-1.93-9.1,5.23-16.2,5.27-22.67,7.21,1.45,1.73,5.94,4.95,11.75,1.2-1.6,.23-4.86,1.68-3.9-.42,9.87-5.32,16.26-6.25,19.13-2.79-20.25,17.55,2.96,13.19-10.14,29.67,12.67-.85,7.56,14.47,15,20.21,13.11-16.53,2.27,1.59,17.63-13.32,2.47,.66,2.77,1.5,1.87,2.59l-4.98,13.46c-3.54,5.36-4.86,1.68-8.26,5.08,1.99,4.59-5.33,7.6-7.4,13.75,5.2-5.65,9.18-6.21,8.85-2.25l4.7-9.47c12.85-2.85-9.36,16.36,3.45,13.62l-6.38,3.01c5.24-.18,8.43,9.36,23.34,.18-1.41,2.12-5.18,6.67-7.33,6.61,3.63,7.75,25.76,.98,22.26,12.81l-4.27,3.08c2.14,.1,9.03-4.71,6.44,.26-1.66,1.39-4.26,3.08-4.01,3.81,1.87-.63,9.49-3.23,8.61,.32l-5.5,2.72c.34,10.5,18.82-.72,25.98,1.76-11.35,10.42-10.79,18.42-10.51,22.41l-1.68,1.4c4.87,8.11,20.05,2.94,30.31,5.16-8.7,15.24,7.07,18.02,5.96,30.67,1.18-2.86,8.98-7.97,11.15-7.9-.94,3.59,11.63-3.15,1.01,6.18l-.29-.71c-9.17,10.5-3.66,11.04-1.76,13.67l13.96-12.12c-14.08,24.41,22.23,9.57,7.62,29.26,4.78-1.63,6.45,.26,11.21-1.38l-7.37,6.63c1.96,5.86,2.95,8.77,9.4,12.3l-6.18,3.75c2.19,3.33,24.39-15.69,27.27-13.42l-10.15,10.82c4.81,4.89-.05,18.79,14.42,14.7-1.67,1.39-4.95,4.13-6.15,3.72,1.9,2.64,1.08,15.97,15.23,1.36-9.67,9.01,3.84,6.08,10.64,4.86l-7.57,6.18c11.29-6.14,13.87-8.38,19.36-7.49-.23,1.62-5.13,5.95-4.22,3.25-1.43,6,8.62-4.28,7.62,2.32l-5.64,3.07c1.85,3.12,4.12,.65,10.78-2.83,4.39-1.01,2.74,6.62-3.39,12.97,4.28-3.29,10.88-6.72,10.43-3.47-2.26,2.46-4.3,3.3-5.3,3.7-.87,8.86,14.32-1.19,10.03,8.3-2.32,2.25-3.33,3.54-3.82,4.45-3.01-3.63-5.19-6.78-4.43-7-6.62,6.09-5.2,9.96-16.39,16.14,7.06-2.34,21.43-8.47,20.83-2.88-.52,.72-1.03,1.43-1.96,2.47l-1,.4c-.08,1.24,1.05,1.23,2.66,.74-.29,1.87-.58,3.17,.09,4.09-5.18,5.36,0,5.93,1.01,7.58,7.14-6.78,7.66-3.88,12.06-11.1-.31,.7-1.11,.53-2.27-.12-.41-.01-.74-.16-1.3,.09,.23-.16,.48-.33,.72-.49-1.05-.72-2.31-1.77-3.68-3.03,4.69-2.28,8.85-3.97,6.25,1.27,5.31-3.57,10.82-7.18,13.48-8.8-8.34,11.2-10.41,19.91-16.16,26.15,7.98,.53,11.92,7.58,27.99-2.25,2.87-.4-2.62,4.98-4.34,7.4-2.01,.56-2.57-.47-4.87,.95,5.72-.79,7.96,5.93,18-2.23-1.48,7-10.33,6.33-4.91,9.1l-3.43,2.11c-7.59,22.23,36.61-8.89,25.54,18.2,.61-1.73,.87-2.56,2.35-4.15,1.01,18.35,27.86,14.09,23.7,36.93-.05,5.46,6.31,.19,12.57-2.27l-7.2,7.79,11.79-5.2c10.56-1.71-12.18,25.06,5.28,19.12l4.59-5.53c.83,2.88,8.83,3.4,2.5,8.61,1.14-.68,6.05-4.37,4.02-1.08l-4.01,3.8,11.43-1.58c.51,6.46-16.7,14.28-12.45,20.48,3.44,.59,17.18-5.11,19.2-8.37-.55-1.01,.61-4.44,4.63-8.25l3.83-.09c12.3-10.7,25.9-20.56,30.07-32.84l-10.26,3.56,4.87-6.38,2.83,2.34c4.08-6.56-1.65-3.07-5.97-1.09,2.86-3.1,4.61-5.54,5.18-7.23l-14.33,7.41c4.34-4.69,10.6-7.16,11.26-11.64-6.67,3.43-9.23,11.08-14.95,11.87,4.04-6.53,8.9-10.18,2.59-7.68,2.86-3.09,5.17-4.52,7.18-5.06-5.17,1.82-5.44-2.77-12.57,2.27,5.27-7.78-6.69-3.76,4.8-14.05-3.18,2-11.49,5.4-13.31,4.37,16.05-9.83-4.23-6.21,10.99-18.91-14.04,9.27-11.99-2.15-21.99,.59,1.15-.7,3.47-2.12,3.13-1.23-.79-2.91,2.36-6.87,3.51-10.26-10.32,9.03-15.46,8.09-23.2,12.16,7.52-11.37,13.2-9.44,21.86-18.8-8.07,7.65-12.03,3.32-18.08,10.41,4.33-7.39,1.46-4.28,8.96-12.93-12.92,11.29-3.72,.25-12.88,5.85,3.76-8.4,11.19-11.56,4.65-10.97,2.58-4.95,9.45-6.45,9.45-6.45Zm-86.06-49.75c.07-.06,.11-.1,.14-.13,.72,.45,1.33,.83,1.74,1.06-.38-.21-.9-.49-1.88-.93Zm-5.51-5.76c.37,.97,1.14,1.91,2.06,2.81-2.31,2.5-5.09,4.65-5.5,3.94,1.97-1.22,2.14-3.93,3.44-6.75Zm-38.76,58.57c-1.88,.01-.74-1.6,.62-3.1,.53,.32,1.25,.61,2.36,.83,.29-.22,.66-.45,.99-.71-1.46,1.18-2.85,2.27-3.97,2.98Z"/><path class="cls-1" d="M675.79,759.54c.29-.02,.66-.22,.88-.1,.47-.78,.84-1.46,1.12-2.05-.87,.59-1.74,1.18-2.57,1.76,.2,.13,.38,.29,.57,.4Z"/><path class="cls-1" d="M197.15,217.74l-.05,.28c.19-.37,.39-.72,.79-1.21-.27,.4-.5,.61-.74,.93Z"/><polygon class="cls-1" points="642.83 614.25 641 615.95 643.08 614.99 642.83 614.25"/><path class="cls-1" d="M192.26,162.56c.58-.65,1.13-1.38,1.46-2.13-.46,.46-.95,1.24-1.46,2.13Z"/><path class="cls-1" d="M181.04,147.11l.76-4.35c-.68,2.2-.8,3.47-.76,4.35Z"/><path class="cls-1" d="M174.76,133.07c-1.39,1.03-2.39,1.87-3.29,2.64-.01,.03,0,.04-.03,.07l3.32-2.71Z"/><path class="cls-1" d="M340.28,295.91c.17,.11,.4,.16,.71,.11,2.3-.32,1.14-.47-.71-.11Z"/><path class="cls-1" d="M276.64,260.68c1.81-.67,3.59-1.33,4.92-1.51-.28-1.41-.78-2.25-4.92,1.51Z"/><path class="cls-1" d="M401.17,344.6s-.06,.06-.13,.11c.14,.1,.21,.23,.32,.35l-.19-.46Z"/><path class="cls-1" d="M283.61,261.65c.62-2.24-.39-2.7-2.05-2.48,.2,1.19,.26,2.74,2.05,2.48Z"/><path class="cls-1" d="M135.25,83.52l-.18-.79c-.47,.45-.89,.78-1.22,1.01l1.4-.22Z"/><path class="cls-1" d="M133.85,83.74l-1.38,.21c.24,.26,.51,.44,1.38-.21Z"/><path class="cls-1" d="M129.53,84.43l2.94-.47c-.37-.43-.61-1.16-2.94,.47Z"/><path class="cls-1" d="M144.97,100.82l2.78-2.25c-.62,.41-1.52,1.13-2.78,2.25Z"/><path class="cls-1" d="M149.7,104.44c-.35-1.58,3.22-7.73,.26-7.66l-2.21,1.79c4.53-2.92-3.37,8.97,1.96,5.87Z"/><path class="cls-1" d="M133.83,152.32l-1.23-5.54c-2.21,3.2-5.21,7.49-7.39,6.47-4.15,12.24,5.39-6.7,8.63-.92Z"/><path class="cls-1" d="M140.09,167.27c-3.09-.75-4.04,3.76-5.71,5.11,3.68-1.11,4.6-1.41,5.71-5.11Z"/><path class="cls-1" d="M214.66,248.38l-6.76,5.86c2.32,.63,2.57-2.33,6.76-5.86Z"/><polygon class="cls-1" points="262.97 232.54 265.72 227.32 259.05 232.18 262.97 232.54"/><polygon class="cls-1" points="224.46 284.88 222.92 285.09 227.61 285.39 224.46 284.88"/><path class="cls-1" d="M352.08,418.89l7.7-7.92c-2.39,.33-11.7,8.5-7.7,7.92Z"/><path class="cls-1" d="M414.43,470.07c-3.47,4.37-4.56,8.43,.37,5.78-.66-1.84,1.29-6.06-.37-5.78Z"/><polygon class="cls-1" points="563.41 658.54 559.6 659.85 563.91 660 563.41 658.54"/></g><g><path class="cls-1" d="M55.73,826.17c1.75,2.51,6.83,7.09,6.94,5.06l-7.47-8.91,.52,3.85Z"/><path class="cls-1" d="M78.22,833.95c-2.73-5.23-8.29-13.64-16.67-20.29,6.66,9.09,3.06,6.13,11.13,16.81-.12,2.04-4.52-.72-7.37-3.9,1.73,2.47-3.48-.1,1.11,5.6,7.78,4.89,9.81,3.35,6.39-3.73,2.21,1.39,3.98,3.91,5.41,5.51Z"/><path class="cls-1" d="M196.13,740.41l-1.65-.28c.72,.35,1.26,.41,1.65,.28Z"/><path class="cls-1" d="M265.74,679.06c-.3,.69,.31,1.71,1.03,2.48-.08-1-.21-1.88-1.03-2.48Z"/><path class="cls-1" d="M285.93,676.8c-.5-.02-.82,.07-1.21,.11,1.01,.5,1.68,.66,1.21-.11Z"/><path class="cls-1" d="M196.13,740.41l4.33,.8c-2.56-2.78-2.88-1.07-4.33-.8Z"/><path class="cls-1" d="M72.84,799.65c.03,.76,.5,1.83,1.22,3.1-.05-.65-.06-1.24,.02-1.76-.43-.46-.8-.85-1.24-1.34Z"/><path class="cls-1" d="M174.11,776.03l-.52,.55c.78,1.08,1.77,2.35,2.91,3.75l-2.39-4.3Z"/><path class="cls-1" d="M153.35,799.55c.8-.2-6.02-7.29-8.88-10.51,2.6,3.13,3.6,4.86,3.71,5.84,1.32,1.32,2.98,2.83,5.18,4.67Z"/><path class="cls-1" d="M106.12,822.69l.35,1.59c-.14-.46-.15-1.01-.35-1.59Z"/><path class="cls-1" d="M191.38,761.59c1.07,.99,2.07,1.81,2.7,2.27-.87-.86-1.79-1.61-2.7-2.27Z"/><path class="cls-1" d="M754.79,86.76c.48,.51,.82,.8,1.25,1.23-.58-.83-1.03-1.36-1.25-1.23Z"/><path class="cls-1" d="M814.97,95.21l.02,.73c1.29,1.35,2.55,2.67,3.84,3.95l-3.86-4.68Z"/><path class="cls-1" d="M315.24,665.1c-.12-.04-.13-.02-.22-.04,.26,1.33,.42,.88,.22,.04Z"/><path class="cls-1" d="M496.81,471.18c-8.37-4.04-4.59-11.42-14.72-15.07,3.04,2.41,8.02,13.72,14.72,15.07Z"/><path class="cls-1" d="M74.33,799.98c.22-.38,.46-.74,.83-.98-.64,.19-.89,.5-.83,.98Z"/><path class="cls-1" d="M482.09,456.11s-.05-.05-.05-.05l-.99-.32c.42,.15,.69,.26,1.04,.37Z"/><path class="cls-1" d="M357.9,613.55c-1.33-1.12-2.45-1.86-3.54-2.54,.73,.69,1.72,1.45,3.54,2.54Z"/><path class="cls-1" d="M313.03,639.01l1.8,.05c-.98-.28-1.48-.22-1.8-.05Z"/><path class="cls-1" d="M366.15,585.45c1,.05,2.13,.85,1.84-.73-.42-.29-.73-.48-1.05-.65,.72,1.18,.86,1.93-.79,1.38Z"/><path class="cls-1" d="M384.98,566.33c-.63-.43-1.17-.69-1.75-1.04-.05,.32-.16,.66-.23,.97l1.98,.06Z"/><path class="cls-1" d="M700.82,148.07c2.38,1.53,4.81,3.41,7.16,5.33-5.26-4.62-4.26-9.18-7.16-5.33Z"/><path class="cls-1" d="M76.78,803.53c-1.66-1.86-2.37-2.88-2.45-3.55-.14,.3-.21,.65-.25,1.01,.99,1.08,1.96,2.07,2.7,2.54Z"/><path class="cls-1" d="M311.74,530.1l4.03-2.01c-1.52,.17-2.96,.93-4.03,2.01Z"/><path class="cls-1" d="M566.45,285.93l-.15-1.53c-.42,.11-.47,.56,.15,1.53Z"/><path class="cls-1" d="M323.63,518.08c3,1.9,5,2.74,6.52,3.07-.43-.67-.73-1.25-1.46-2.14l-5.07-.94Z"/><path class="cls-1" d="M708.05,153.47s-.08-.06-.08-.06c0,0,.05,.05,.08,.06Z"/><path class="cls-1" d="M711.18,117.08c-3.06,2.69,7.66,10.26,12.32,16.08-.8,6.03-8.34-5.1-14.21-8.57,.31,4.56,7.11,14.56,5.17,15.81-1.63-1.38-2.49-1.61-4.03-3.85,5.06,9.5-6.32,7.11,.24,18.84-1.01-.61-1.88-1.27-2.63-1.91,5.04,4.13,9.78,8.69,13.02,12.07-1.12,1.45,3.43,8.15-3.06,2.69,.96-.62-1.4-3.08-2.91-5.31l1.26,3.93c-9.84-7.32-1.15-4.8-7.55-11.13,.2,5.43,4.3,15.58-.15,15.19-8.87-7.93,1.84-7.55-8.35-12.28l6.33,.06c-15.71-10.79,2.81-.99-13.63-12.89-6.53,1.71-.26,8.88-6.8,10.56,3.78,5.57,7.25,6.57,11.03,12.14,2.65,14.2-25.81-16.41-18.81-.97,4.53,6.68,14.8,17.69,6.11,15.16l-8.52-10.5c-4.9,3.06,11.48,15.87,.91,13.7-3.02-4.46-.06-6.27-1.79-6.79-10.23-4.75,3.52,7.28,1.46,9.36l-8.89-7.94c-2.88,5.57-1.4,16.3-4.52,22.54-2.26-2.75-4.11-6.18-7.79-7.63-1.65,10.12-13.58,11.67-24.27,12.44l5.14,9.41c-.59,.43-4.23-2.32-5.1-4.27-4.98-.51,4.52,4.7,6.33,8.61-.75,1.78-5.86-2.47-7.25-5.45,2.29,10.07,2.23,24.43-9.7,20.84l-1.37-2.96c-6.16,.3,11.36,18.46,1.58,14.72l-.73-1.86c-10.11,3.89-11.09,18.26-27.42,12.72,9.51,11.42-11.56,2.31,2.66,17.27-11.24-3.18-12.73-6.93-23.2-6.11-2.17,.84,6.94,11.31,6.63,14.69l-7.72-7.54,5.54,10.49-10.5-7.72,.24,3.7c1.14-.25,4.91,1.93,7.01,4.21,.78,6.17-11.93,1.38-15.92-2.44l.1,12.88c-2.94-3.2-2.93-5.32-4.05-8.13,4.42,11.19-8.7-7.36-4.65,2.89,2.16,1.3,4.34,4.75,5.82,6.35-6.19-3.01-9.78,.53-10.45,5.12l-4.79-5.74c-6.08,3.46-7.45,12.61-12.87,17.9,4.37,.5,13.1,10.01,12.42,12.46l-8.73-7.39c4,5.98,4.68,1.37,8.75,9.53-2.92,1.08-10.55-7.77-12.06-11.53l.4,5.23c-2.56-2.25-3.27-4.08-6.21-7.29,4.05,5.98-12.3-3.83-4.99,6.26l-2.55-2.25c-5.38,5.31-5.01,10.51-8.93,15.29,6.92,7.01,3.67,7.18,8.03,14.08-5.42,1.01-14.45-.86-17.69,3.61,.79,6.17,5.14,6.66,8.08,11.99-6.57-6.1-9.8-1.64-12.4-8.18-3.56,5.68-4.61,7.2-5.25,18.21,3.24,1.94,5.09,2.35,6.9,4.87-.01,2.1-5.08-.21-7.99-3.4l-.38-.94c3.02,16.06-33.66-3.12-25.58,15.28l-.37-.94,1.52,12.3c-3.58,1.42-3.3-6.24-9.09-8.29,4.82,16.41-10.74,7.78-8.44,19.63-22.51-14.84-11.84,14.62-28.86,7.82l4.72,4.09c3.04,5.6-4.1-.92-6.07-.96,3.57,3.26,5.38,2.52,6.99,5.71-5.63,16.37-29.11,16.49-44.34,23.91-5.3,2.98,20.57,25.01,4.82,19.8l-6.75-9.62c1.56,18.14-17.31,16.82-17.07,33.31-1.41-2.37-3.86-4.82-3.04-5.59-7.69-4.17-6.64,6.13-1.79,10.98-1.82,.73-4.7-4.06-7.96-5.72-5.24-1.74,3.31,11.91-3.55,6.96-1.13-.8-1.46-2.41-1.6-3.18,1.77,3.99-5.96,4.56,2,10.28-6.34-.17-2.77,8.92-9.28,7.35,6.12,9.22-8.93,1.61,1.46,12.89-11.04-11.35-14.43-3.58-11.06,3.61-2.76-4.02-5.21-1.79-9.16-7.22-2.04,2.38-1.97,6.49,4.2,11.82-17.52-9.22,2.69,18.96-16.85,4.2-.49,12.59-2.44,22.75-5.69,31.3-11.01-11.31,5.38-7.68-6.65-19.07-.95,10.21,5.47,22.99-2.78,25.91-2.97-.07-4.06-5.64-5.49-8.02-.95,10.21-11.79,9.88-10.64,20.94-1.03-1.05-1.64-2.72-1.99-4.08-.61,1.35-3.92,.67,1.29,5.6l-.43-2.33c8.97,5.75,11.59,19.22,15.33,23.27-12.96-16.14-8.57,1.32-24.42-19.62,.32,1.61,1.93,4.81,5.49,8.03-1.94-.01-4.24-1.68-7.15-6.5-.72,6.29,5.95,10.39,2.66,13.49-2.46-2.46-2.78-4.05-5.35-7.25,3.21,6.38,6.42,12.78,1.65,13.43-1.33-1.63-3.58-3.24-2.74-4.01-3.86,5.39,4.99,20.62-4.72,21.12-9.24-12.12-5.25-1.76-14.81-10.67l.05,5.48,5.6,3.36c-2.54,2.25,2.13,11.07-2.96,10.12l-2.06-5.57-2.69,6.25,6.05,.93c2.38,7.17,12.01,11.37,6.26,12.01-.3-1.59-2.49,2.3-9.21-1.87,0,0,0,0-.02-.03,1.78,4.12,3.68,8.42-.38,7.92-3.43-2.48-9.91-10.53-12.18-12.19,6.6,8.85-3.41,7.76,3.39,17.43-1.45-2.42-6.31-7.27-7.46-8.09l5.34,7.23c-3.12-.88-4.26-1.69-7.97-5.71-4.47,2.21,12.84,10.59,3.83,9.54-.2-.82-1.3-1.61-1.61-3.2-6.6,1.38-3.63,11.68-10.36,12.27-10.42-8.16,.88-5.47-8.23-12.03-3.54,6.97,.37,22.04-6.9,24.98l1.98,.07c12.49,13.76-10.3-2.64-6.64,6.1-.35-1.6-6.5-8.07-5.2-6.45-5.59,1.41-3.85,10.38-4.95,19.8l-2.74-4.01c-5.07-.93-7.13,3.72-10.88,4.42,2.73,4.01,.92,4.74,6.61,8.84-26.12-12.21-2.63,23.37-24.76,13.57,.69-.77-1.25-4.67-1.83-4.11l-2.02,8.29c6.16,5.27,4.16,2.76,9.71,6.1,2.76,4.03,3.95,8.11,2.67,9.4-1.5-6.11-9.25-9.11-13.46-11.27,1.93,1.57,3.53,3.84,5.41,5.53-12.92-7.4,11.12,11.9,.56,8.79l-2.82-3.18c.17,2.91,2.9,8.14,.55,8.78-7.27-5.96-1.64-4.55-7.02-10.06-1.7,2.48,8.5,16.62-.01,11.96-.97-2.73,.27-4.04-.69-6.76-9.86-5.65-8.11-3.45-10.88-3.13l.33,.02-7.06,.06,3.01,1.19c14.74,19.79-2.13,8.49,5.72,23.27-7.34-14.08-5.66-6.72-12.93-14.44-2.99-1.16-6.69-2.11-8.43-4.6,4.43,7.69-7.56-1.94-1,9.22-2.53-2.29-2.01,1.56-7.73-4.85-.25,4.07,4.73,3.66,7.59,6.85,4.97,11.55-17.86-2.05-11.26,14.03,.56,8.8,7.99,17.66,8.24,25.56-5.17-2.53-7.78-9.81-7.78-9.81-5.66-1.43-6.56,.8-5.75,5.53-1.72-2.49-3.92-3.85-7.24-5.94-.94,2.22,7.78,9.8,2.13,8.36-2.35-3.04-6.22-7.78-8.18-11.23,.38,4.09,3.08,10.42,3.35,14.52-4.74-3.67-5.26-7.52-7.34-10.94-.25,4.07-1.76,9.45,4.27,16.74l3.78,.97c-.47,1.11-6.16-5.28-6.8-7.08-3.4-7.06,4.98-.41,7.53,1.9l.19,2.92c15.64,12.66,3.21-7.81,6.79-9.78l9.2,11.4-5.77-11.35c3.29,2.06,9.49,7.36,9.68,10.27,7.08,3.06-1.93-5.41,5.47-1.48,1.08,.69,1.49,1.27,1.72,1.85l-1.15-5c1.8,2.53,7.63,6.9,4.95,6.62,9.43,2.41-2.18-13.32,6.96-6.88l.35,.92c1.3-8.32-7.14-7.99-12.45-20.45l21.17,16.09-7.12-7.99c.77-.23,2.32-.66,5.18,2.53-3.36-7.01-3.62-2.95-7.46-8.89,9.31,4.43,3.34-9.85,15.98,1.57-4.92-6.57-6.73-2.1-8.2-8.64,13.75,12.14,.71-5.18,8.86-1.48,6.05,7.32,.43,5.89,8.6,9.61-10.04-12.56,6.73-1.83,6.4-5.83-8.95-9.03,.22-7.77,.29-13.87,2.84,3.2,10.77-.95,16.91-.61l1.43,1.58c-8.58-9.6-3.9-10.89-3.64-14.94,5.39,5.5,7.16,8.02,8.44,11.62l1.98-2.09c-2.45-3.38-3.36-5.54-3.09-7.91l6.32,7.27c2.32-3.1-2.62-13.44,5.42-12.44-6.18-6.5-20.5-14.76-21.09-22.68,3.58,3.27,9.61,8.96,10.06,11.33-.14-.76-1.74-3.96,.36-3.15l4.33,7.21c4.12,.92-4.02-5.62-2.21-6.37,4.89,4.89,4.44,2.52,8.16,6.56,.15,.8-3.13-.9-1.69,1.5,2.3-.57,6.94,.57,11.23,3.68-2.92-2.64-6.62-6.54-6.21-8.23,2.34-3.08,6.83,4.91,10.93,5.82-2.76-4.03,2.5-2.27-4.8-9.58,.83-.76,4.4,2.48,6.69,4.14-1.84-4.61,5.59-7.5-3.79-13.64l-.87-.15c-.08-.22-.01-.3-.09-.55h-.01s.01,0,.01,0c-2.73-11.85,13.66-5.49,15.05-13.19l2.45,2.44c-.1-5.51,4.37-7.74,1.02-14.92,.81-.8,6.37,2.52,8.96,5.77,.22-3.92-2.3-6.88,4.74-5.9,2.21,6.35,4.52,3.03,1.01,5.26,4.81-.62,9.36,2.65,5.53-6.91,5.31,7.22,9.95,5.79,9.35,2.64l-6.39-2.55c.52-2.36,2.34-3.08,4.15-3.84l7.59,8.89c15.58,4.4-7.21-26.99,13.84-14.55-4.33-7.2-7.07-1.01-12.54-9.02,3.65-1.46,18.17,7.63,18.99,6.85,8.05,1.03-8.86-15.24-2.1-15.8-3.41-2.44-11.74-9.8-11.8-15.29,3.63-1.48,15.5,9.1,16.27,13.06-.36,.86-1.59,.23-2.56-.79,.25,1.89,.45,4.23,4.65,6.38l-2.62-3.25c4.27,1.71,7.44-2.13,11.46,3.49-.9-4.72-4.02-5.62-6.97-5.7,7.53,.94,5.2-5.01,11.42-5.55-2.16-1.07-6.12-4.01-5.56-4.51,8.56-1.34-3.44-7.72-1.41-12.37,6.39,2.54,10.07,11.31,9.65,4.2,5.09,.95,8.27,7.31,9.86,10.51-2.64-8.71,9.44-2.06,12.23-2.79l.78,3.98c-.46-2.37,.37-3.12,1.19-3.92l-6.82-4.91c1.97,.06,2.79-.72,5.24,1.73-2.9-4.81-10.57-8.96-13.93-16.15,4.26,1.7,.61-7.06,8.88,.26-6.61,1.37,8.31,7.35,6.23,11.98-.29-1.58,.54-2.34,2.52-2.27,1.02,.72,1.49,1.74,1.68,2.45,10.79,3.1-7.12-10.52-3.02-14.31,3.92,4.87,9.29,7.37,8.98,5.79-1.67,1.51-8.12-6.52-10.06-11.34,5.95,.86,.17-5.29,1.89-6.23l-3.12-.08c-3.9-4.88-2.07-5.58-1.71-8.73,3.59,3.25,.77,3.95,2.92,4.82-5.82-9.65,12.44,3.5,9.92-4.41,4.25,1.68,8.42,8.08,11.55,8.97-2.69-8.74,9.35,2.66,7.81-5.26-6.86-4.94-5.57-3.34-9.1-11.34l-1.08,9.44-5.26-11.95c-1.67,1.52,.38,7.07-1.57,7.04-3.24-6.41-1.92-4.79-7.61-8.89,11.08,6.61-.89-9.48,7.64-6.07l14.62,14.61c10.33,2.67-.84-14.23,7.76-15.52l-4.13-.94c-5.19-6.44,2.21-3.86,1.43-7.81,4.77,5.01,7.54,5.77,11.28,8.11-3.73-3.52,3.92-3.29-5.45-13.45l8.66,4.19c6.6-1.38-9.49-18.41-4.01-20.6,4.2,6.44,9.4,8.14,10.68,14.49,1.32-1.23,3.36-1.5-.03-4.89,3.82,2.29-3.1-10.1,2.74-6.67-1.62-2.67-6.59-7.94-4.76-8.98,1.15,.83,2.42,2.4,2.42,2.4-2.42-2.4-1.07-5.52-7.75-9.64,19.24,11.21,9.81-12.15,26.38-2.57,1.12-4.43,2.87-9.37,5.03-12.27,1.31,1.62,2.44,2.43,1.46,2.41,8.04,1.01-11.98-16.11-2.92-15.05,9.96,5.81,2.2,6.37,6.46,8.07,16.71,15.44,2.56-7,14.66-.35l.3,1.59c7.52,3.38-1.17-11.07,3.3-13.28,0,0,1.27,1.58,2.42,2.43-5.98-10.45-4.41-17.49-3.51-22.98,5.33,7.26,1.9,4.78,8.93,10.52,.52-2.35-10.74-9.79-9.69-14.45,4.39,2.49,9.48,3.4,16.61,9.9l-2.32,3.09c10.26,7.38,3.18-3.83,6.14-3.73l3.7,4.02c2.87-5.42-6.85-15.14-1.71-18.94l-3.4-2.45c-7.25-12.02,7.48,3.33,2.7-6.23l10.56,8.98c-.77-3.96-3.89-15.06-2.87-19.78,5.66,8.85,6.03,15.93,8.28,22.3,1.66-1.53,4.66-6.16,.64-11.79,.31,1.58,1.91,4.78-.23,3.92-5.78-9.6-7.01-15.95-3.69-18.97,18.48,19.4,13.04-3.58,30.11,8.73-1.45-12.61,14.1-8.24,19.48-15.94-17.13-12.32,1.48-2.34-14.14-16.98,.54-2.5,1.37-2.83,2.5-1.99l13.68,4.34c5.52,3.28,1.91,4.78,5.47,8.01,4.49-2.2,7.84,4.97,14.08,6.75-5.89-4.93-6.64-8.88-2.67-8.73l-9.68-4.24c-3.46-12.7,16.78,8.57,13.44-4.09l3.31,6.23c-.42-5.22,8.95-8.86-.92-23.33,2.18,1.31,6.9,4.86,6.95,7.01,7.57-3.99-.24-25.78,11.75-22.84l3.28,4.12c0-2.15-5.13-8.8-.04-6.45,1.47,1.59,3.28,4.11,4,3.82-.71-1.84-3.68-9.32-.09-8.61l2.97,5.37c10.47-.84-1.61-18.77,.53-26.03,10.94,10.85,18.9,9.91,22.88,9.45l1.47,1.61c7.87-5.25,1.99-20.17,3.72-30.52,15.64,7.97,17.66-7.91,30.35-7.4-2.91-1.04-8.39-8.59-8.42-10.76,3.63,.76-3.7-11.46,6.12-1.31l-.69,.32c10.92,8.67,11.2,3.14,13.74,1.12l-12.77-13.38c25.04,12.91,8.51-22.65,28.87-8.99-1.86-4.7-.05-6.45-1.91-11.13l6.97,7.05c5.76-2.23,8.62-3.36,11.85-9.97l4.04,5.99c3.22-2.34-16.83-23.62-14.69-26.61l11.28,9.62c4.66-5.04,18.77-.84,14-15.09,1.46,1.6,4.36,4.75,4.01,5.96,2.55-2.02,15.9-1.84,.64-15.28,9.46,9.24,5.89-4.12,4.35-10.85l6.53,7.27c-6.67-10.99-9.02-13.46-8.4-18.98,1.63,.15,6.18,4.84,3.44,4.06,6.06,1.14-4.68-8.4,1.95-7.72l3.33,5.49c3.03-1.99,.46-4.14-3.34-10.64-1.21-4.34,6.48-3.05,13.12,2.78-3.49-4.12-7.23-10.55-3.96-10.26,2.57,2.14,3.5,4.14,3.95,5.12,8.89,.45-1.86-14.24,7.82-10.41,2.36,2.21,3.7,3.16,4.62,3.6-3.48,3.18-6.53,5.51-6.78,4.75,6.39,6.32,10.19,4.73,16.89,15.61-2.67-6.94-9.47-21.01-3.86-20.67,.75,.48,1.48,.96,2.56,1.84l.45,.98c1.24,.02,1.18-1.11,.62-2.69,1.88,.2,3.19,.43,4.08-.28,5.6,4.92,5.92-.28,7.52-1.37-7.11-6.81-4.24-7.47-11.65-11.53,.71,.28,.59,1.08,0,2.27,0,.41-.13,.75,.16,1.29-.17-.22-.36-.47-.52-.7-.67,1.09-1.66,2.4-2.85,3.82-2.5-4.58-4.39-8.65,.97-6.3-3.81-5.14-7.68-10.47-9.42-13.05,11.58,7.8,20.38,9.46,26.88,14.91,.15-8,7.01-12.26-3.57-27.85-.53-2.84,5.1,2.38,7.6,3.98,.65,1.99-.35,2.59,1.18,4.82-1.06-5.68,5.55-8.24-3.08-17.87,7.06,1.15,6.81,10.02,9.32,4.48l2.27,3.32c22.56,6.53-10.61-36.15,16.98-26.37-1.76-.53-2.6-.75-4.26-2.15,18.28-1.87,12.76-28.49,35.78-25.42,5.45-.2-.11-6.31-2.86-12.44l8.12,6.82-5.75-11.53c-2.21-10.46,25.61,10.99,18.85-6.18l-5.74-4.33c2.84-.96,2.98-8.98,8.49-2.91-.73-1.11-4.65-5.83-1.27-3.96l3.99,3.83-2.12-11.34c6.43-.81,15.05,16,21.04,11.47,.43-3.46-5.91-16.92-9.27-18.78-.98,.6-4.46-.4-8.45-4.23l-.27-3.82c-11.26-11.78-21.76-24.9-34.22-28.49l4.04,10.08-6.6-4.57,2.21-2.94c-6.74-3.76-2.99,1.79-.8,6.01-3.23-2.71-5.75-4.34-7.47-4.83l8.08,13.96c-4.89-4.12-7.65-10.25-12.16-10.7,3.74,6.5,11.5,8.69,12.56,14.37-6.72-3.73-10.59-8.41-7.79-2.23-3.22-2.71-4.76-4.95-5.4-6.94,2.06,5.08-2.51,5.56,2.86,12.45-8.02-4.9-3.44,6.86-14.26-4.14,2.15,3.08,5.93,11.22,4.99,13.09-10.58-15.56-6,4.52-19.4-10.08,9.92,13.58-1.58,12.08,1.63,21.94-.75-1.11-2.28-3.37-1.38-3.06-2.87,.93-6.97-2.04-10.41-3.02,9.51,9.89,8.81,15.06,13.24,22.6-11.72-6.97-10.05-12.74-19.81-20.94,8.02,7.7,3.88,11.86,11.25,17.57-7.58-3.97-4.34-1.26-13.34-8.34,11.88,12.37,.42,3.71,6.45,12.59-8.56-3.36-12.08-10.63-11.18-4.13-5.06-2.34-6.89-9.14-6.89-9.14Zm-45.64,88.31c-.07-.07-.11-.11-.14-.14,.42-.74,.77-1.37,.98-1.78-.19,.39-.45,.93-.84,1.92Zm-5.5,5.78c.96-.42,1.85-1.23,2.71-2.19,2.61,2.19,4.89,4.86,4.2,5.31-1.31-1.91-4.02-1.95-6.9-3.12Zm60.34,35.95c.1,1.88-1.57,.82-3.12-.48,.3-.54,.55-1.27,.71-2.4-.24-.28-.48-.63-.75-.95,1.25,1.41,2.41,2.74,3.16,3.83Z"/><path class="cls-1" d="M712.81,236.43c-.03-.28-.25-.64-.14-.87-.8-.43-1.5-.77-2.1-1.02,.63,.84,1.26,1.68,1.88,2.49,.12-.2,.27-.39,.37-.59Z"/><path class="cls-1" d="M194.19,740.09l.28,.04c-.38-.18-.74-.35-1.24-.73,.42,.25,.64,.47,.97,.7Z"/><polygon class="cls-1" points="569.24 276.21 571.02 277.95 569.96 275.92 569.24 276.21"/><path class="cls-1" d="M139.3,747.57c-.67-.55-1.43-1.06-2.2-1.36,.48,.44,1.29,.89,2.2,1.36Z"/><path class="cls-1" d="M124.4,759.51l-4.38-.56c2.23,.57,3.5,.64,4.38,.56Z"/><path class="cls-1" d="M110.67,766.45c1.1,1.34,1.98,2.3,2.8,3.17,.03,.01,.04,0,.07,.03l-2.86-3.19Z"/><path class="cls-1" d="M265.52,593.44c.1-.18,.14-.41,.08-.71-.43-2.28-.52-1.11-.08,.71Z"/><path class="cls-1" d="M233.33,658.67c-.75-1.78-1.49-3.52-1.74-4.85-1.4,.34-2.21,.89,1.74,4.85Z"/><path class="cls-1" d="M311.29,530.31s.06,.06,.12,.13c.09-.14,.22-.22,.33-.34l-.45,.21Z"/><path class="cls-1" d="M233.97,651.66c-2.26-.51-2.68,.52-2.38,2.16,1.18-.25,2.73-.39,2.38-2.16Z"/><path class="cls-1" d="M63.04,808.25l-.78,.22c.47,.45,.82,.85,1.07,1.17l-.29-1.39Z"/><path class="cls-1" d="M63.33,809.64l.28,1.37c.25-.26,.42-.53-.28-1.37Z"/><path class="cls-1" d="M64.21,813.92l-.61-2.91c-.42,.39-1.13,.67,.61,2.91Z"/><path class="cls-1" d="M79.86,797.73l-2.38-2.67c.44,.6,1.2,1.47,2.38,2.67Z"/><path class="cls-1" d="M83.25,792.83c-1.56,.42-7.88-2.85-7.66,.1l1.89,2.13c-3.13-4.38,9.12,2.95,5.77-2.23Z"/><path class="cls-1" d="M131.83,806.43l-5.48,1.49c3.3,2.06,7.73,4.85,6.81,7.08,12.42,3.57-6.94-5.07-1.33-8.57Z"/><path class="cls-1" d="M146.47,799.46c-.6,3.12,3.95,3.86,5.37,5.47-1.28-3.63-1.62-4.53-5.37-5.47Z"/><path class="cls-1" d="M223.97,721.16l6.17,6.48c.52-2.35-2.45-2.45-6.17-6.48Z"/><polygon class="cls-1" points="205.87 673.64 200.52 671.14 205.69 677.58 205.87 673.64"/><polygon class="cls-1" points="259.97 709.64 260.25 711.17 260.32 706.47 259.97 709.64"/><path class="cls-1" d="M387.81,575.84l-8.27-7.32c.44,2.37,9.05,11.29,8.27,7.32Z"/><path class="cls-1" d="M435.99,511.15c4.53,3.26,8.63,4.15,5.75-.64-1.8,.74-6.12-1.01-5.75,.64Z"/><polygon class="cls-1" points="617.22 353.45 618.71 357.19 618.66 352.87 617.22 353.45"/></g><g><path class="cls-1" d="M826.7,136.84c-1.74-2.52-6.8-7.13-6.92-5.09l7.43,8.95-.51-3.86Z"/><path class="cls-1" d="M804.25,128.96c2.7,5.24,8.22,13.68,16.58,20.37-6.62-9.12-3.03-6.15-11.05-16.87,.12-2.04,4.52,.74,7.35,3.93-1.72-2.48,3.48,.12-1.08-5.6-7.75-4.93-9.79-3.4-6.41,3.7-2.21-1.41-3.96-3.93-5.38-5.53Z"/><path class="cls-1" d="M685.9,221.93l1.65,.29c-.72-.35-1.25-.41-1.65-.29Z"/><path class="cls-1" d="M616,282.96c.3-.69-.3-1.72-1.02-2.48,.08,1,.2,1.88,1.02,2.48Z"/><path class="cls-1" d="M595.79,285.12c.5,.02,.82-.07,1.22-.1-1.01-.5-1.68-.67-1.22,.1Z"/><path class="cls-1" d="M685.9,221.93l-4.32-.82c2.55,2.79,2.88,1.08,4.32,.82Z"/><path class="cls-1" d="M809.47,163.28c-.03-.76-.49-1.83-1.21-3.1,.05,.65,.06,1.24-.03,1.76,.43,.46,.8,.86,1.23,1.34Z"/><path class="cls-1" d="M708.09,186.42l.52-.54c-.78-1.09-1.76-2.36-2.89-3.77l2.37,4.31Z"/><path class="cls-1" d="M728.96,163c-.8,.2,5.98,7.32,8.83,10.55-2.58-3.14-3.58-4.88-3.68-5.86-1.32-1.33-2.97-2.85-5.15-4.7Z"/><path class="cls-1" d="M776.3,140.08l-.34-1.59c.14,.46,.14,1.01,.34,1.59Z"/><path class="cls-1" d="M690.75,200.78c-1.07-.99-2.06-1.82-2.69-2.28,.87,.87,1.78,1.62,2.69,2.28Z"/><path class="cls-1" d="M124.15,872.94c-.48-.51-.82-.8-1.24-1.23,.57,.83,1.03,1.36,1.24,1.23Z"/><path class="cls-1" d="M64.02,864.21l-.02-.73c-1.28-1.35-2.54-2.69-3.82-3.97l3.84,4.7Z"/><path class="cls-1" d="M566.44,296.69c.12,.04,.13,.03,.22,.04-.25-1.33-.42-.89-.22-.04Z"/><path class="cls-1" d="M383.95,489.74c8.35,4.08,4.53,11.44,14.65,15.14-3.03-2.42-7.95-13.76-14.65-15.14Z"/><path class="cls-1" d="M807.98,162.94c-.22,.38-.46,.74-.84,.98,.64-.19,.89-.49,.84-.98Z"/><path class="cls-1" d="M398.6,504.88s.05,.05,.05,.05l.98,.32c-.42-.15-.69-.26-1.04-.38Z"/><path class="cls-1" d="M523.53,348.03c1.32,1.13,2.44,1.87,3.53,2.56-.73-.7-1.71-1.46-3.53-2.56Z"/><path class="cls-1" d="M568.52,322.78l-1.8-.06c.98,.29,1.48,.23,1.8,.06Z"/><path class="cls-1" d="M515.14,376.09c-1-.06-2.13-.86-1.84,.72,.42,.3,.72,.48,1.05,.65-.72-1.18-.85-1.94,.79-1.37Z"/><path class="cls-1" d="M496.23,395.12c.63,.43,1.16,.7,1.75,1.04,.05-.32,.16-.66,.23-.97l-1.98-.07Z"/><path class="cls-1" d="M178.42,811.88c-2.37-1.54-4.79-3.44-7.13-5.37,5.24,4.65,4.22,9.2,7.13,5.37Z"/><path class="cls-1" d="M805.54,159.38c1.65,1.87,2.35,2.89,2.44,3.56,.14-.3,.21-.65,.26-1.01-.98-1.09-1.95-2.08-2.69-2.55Z"/><path class="cls-1" d="M569.3,431.69l-4.04,1.99c1.52-.17,2.96-.91,4.04-1.99Z"/><path class="cls-1" d="M313.44,674.66l.14,1.53c.42-.11,.47-.55-.14-1.53Z"/><path class="cls-1" d="M557.35,443.67c-2.99-1.91-4.99-2.77-6.51-3.11,.43,.67,.72,1.26,1.45,2.14l5.06,.96Z"/><path class="cls-1" d="M171.21,806.45s.08,.07,.08,.07c0,0-.05-.05-.08-.07Z"/><path class="cls-1" d="M167.9,842.83c3.07-2.68-7.61-10.29-12.25-16.14,.83-6.03,8.32,5.14,14.17,8.64-.29-4.56-7.04-14.59-5.09-15.83,1.62,1.38,2.49,1.62,4.01,3.87-5.01-9.53,6.36-7.08-.15-18.84,1.01,.61,1.87,1.28,2.62,1.93-5.02-4.15-9.74-8.74-12.96-12.13,1.13-1.44-3.39-8.16,3.07-2.68-.96,.61,1.38,3.09,2.88,5.32l-1.25-3.94c9.81,7.36,1.13,4.81,7.5,11.16-.17-5.43-4.22-15.6,.22-15.19,8.83,7.98-1.88,7.54,8.29,12.32l-6.33-.09c15.66,10.87-2.81,.98,13.57,12.96,6.54-1.68,.3-8.88,6.85-10.52-3.75-5.59-7.22-6.6-10.97-12.19-2.58-14.21,25.73,16.53,18.8,1.06-4.5-6.7-14.71-17.76-6.04-15.19l8.47,10.54c4.92-3.04-11.41-15.92-.85-13.7,3,4.47,.03,6.27,1.76,6.8,10.2,4.8-3.49-7.29-1.42-9.37l8.85,7.98c2.9-5.56,1.48-16.3,4.62-22.52,2.25,2.76,4.08,6.19,7.75,7.67,1.7-10.12,13.64-11.6,24.33-12.32l-5.09-9.44c.59-.42,4.22,2.34,5.08,4.29,4.98,.53-4.49-4.72-6.29-8.64,.76-1.77,5.85,2.5,7.23,5.48-2.24-10.08-2.12-24.44,9.8-20.8l1.35,2.96c6.16-.27-11.27-18.51-1.51-14.73l.72,1.86c10.13-3.84,11.18-18.21,27.48-12.59-9.46-11.47,11.57-2.25-2.58-17.28,11.22,3.24,12.69,6.99,23.17,6.22,2.17-.83-6.89-11.34-6.56-14.72l7.68,7.58-5.5-10.52,10.47,7.77-.22-3.7c-1.14,.25-4.9-1.95-6.99-4.25-.75-6.17,11.93-1.32,15.91,2.52l-.04-12.88c2.93,3.21,2.91,5.34,4.02,8.14-4.37-11.21,8.67,7.41,4.67-2.87-2.15-1.31-4.32-4.77-5.79-6.38,6.18,3.04,9.79-.49,10.48-5.07l4.76,5.76c6.1-3.43,7.51-12.58,12.96-17.84-4.37-.53-13.05-10.08-12.36-12.52l8.69,7.43c-3.98-5.99-4.68-1.4-8.71-9.58,2.93-1.07,10.52,7.81,12,11.59l-.37-5.23c2.55,2.26,3.25,4.1,6.17,7.31-4.02-6,12.29,3.89,5.02-6.24l2.54,2.26c5.41-5.29,5.06-10.48,9.01-15.25-6.88-7.04-3.63-7.2-7.96-14.12,5.42-.98,14.45,.93,17.71-3.53-.76-6.17-5.11-6.69-8.03-12.03,6.54,6.13,9.79,1.68,12.36,8.23,3.59-5.67,4.64-7.18,5.34-18.18-3.23-1.96-5.08-2.37-6.87-4.9,.02-2.1,5.08,.24,7.97,3.43l.38,.94c-2.95-16.08,33.65,3.28,25.65-15.16l.36,.95-1.47-12.31c3.59-1.41,3.27,6.26,9.05,8.33-4.74-16.43,10.77-7.73,8.54-19.59,22.44,14.95,11.91-14.57,28.89-7.68l-4.7-4.11c-3.02-5.61,4.09,.94,6.06,.99-3.56-3.28-5.37-2.54-6.96-5.74,5.71-16.34,29.18-16.35,44.45-23.7,5.32-2.95-20.45-25.11-4.72-19.82l6.7,9.65c-1.47-18.15,17.39-16.74,17.22-33.23,1.4,2.37,3.84,4.84,3.01,5.6,7.67,4.21,6.67-6.1,1.84-10.97,1.82-.72,4.68,4.08,7.93,5.76,5.24,1.77-3.25-11.92,3.59-6.94,1.12,.81,1.44,2.41,1.58,3.19-1.75-4,5.98-4.53-1.95-10.29,6.34,.2,2.81-8.91,9.31-7.31-6.07-9.25,8.94-1.57-1.4-12.9,10.99,11.41,14.41,3.64,11.08-3.56,2.74,4.03,5.2,1.82,9.12,7.26,2.05-2.37,2-6.48-4.14-11.84,17.48,9.3-2.6-18.97,16.87-4.12,.54-12.59,2.55-22.74,5.83-31.28,10.96,11.36-5.42,7.65,6.56,19.1,1-10.21-5.36-23.02,2.9-25.89,2.97,.09,4.03,5.66,5.45,8.05,1-10.2,11.84-9.83,10.74-20.89,1.03,1.05,1.63,2.73,1.97,4.09,.62-1.34,3.92-.65-1.26-5.61l.42,2.33c-8.94-5.79-11.5-19.28-15.22-23.34,12.89,16.2,8.58-1.28,24.33,19.74-.31-1.61-1.91-4.82-5.45-8.06,1.94,.02,4.23,1.7,7.12,6.53,.75-6.28-5.9-10.42-2.6-13.5,2.45,2.47,2.76,4.06,5.32,7.28-3.17-6.4-6.36-12.81-1.58-13.43,1.32,1.64,3.56,3.25,2.72,4.02,3.88-5.37-4.89-20.64,4.82-21.1,9.18,12.16,5.24,1.78,14.75,10.74l-.03-5.48-5.58-3.38c2.55-2.23-2.08-11.08,3.01-10.11l2.03,5.58,2.72-6.24-6.04-.96c-2.35-7.18-11.96-11.42-6.2-12.04,.3,1.59,2.5-2.29,9.2,1.91,0,0,0,0,.02,.03-1.76-4.12-3.64-8.43,.42-7.92,3.42,2.49,9.86,10.58,12.13,12.25-6.56-8.88,3.45-7.75-3.31-17.45,1.44,2.42,6.27,7.3,7.43,8.13l-5.31-7.25c3.12,.9,4.25,1.71,7.94,5.75,4.48-2.19-12.79-10.65-3.78-9.56,.2,.82,1.29,1.61,1.59,3.21,6.6-1.34,3.68-11.66,10.42-12.23,10.38,8.21-.91,5.47,8.17,12.07,3.57-6.95-.26-22.04,7.01-24.95l-1.98-.08c-12.43-13.82,10.28,2.69,6.67-6.07,.34,1.6,6.46,8.1,5.17,6.47,5.6-1.38,3.89-10.36,5.05-19.77l2.72,4.02c5.06,.95,7.14-3.68,10.9-4.37-2.71-4.02-.9-4.75-6.57-8.87,26.06,12.34,2.74-23.35,24.82-13.45-.69,.76,1.22,4.68,1.81,4.11l2.06-8.28c-6.13-5.3-4.14-2.78-9.68-6.14-2.74-4.04-3.91-8.13-2.63-9.41,1.47,6.11,9.21,9.16,13.41,11.34-1.92-1.58-3.51-3.86-5.38-5.55,12.88,7.46-11.06-11.95-.52-8.79l2.81,3.19c-.16-2.92-2.86-8.15-.51-8.79,7.24,5.99,1.62,4.55,6.97,10.09,1.71-2.47-8.42-16.66,.07-11.96,.96,2.73-.29,4.04,.66,6.76,9.83,5.7,8.1,3.49,10.86,3.19l-.33-.02,7.06-.03-3.01-1.2c-14.65-19.86,2.17-8.48-5.61-23.3,7.28,14.11,5.63,6.75,12.87,14.5,2.98,1.18,6.68,2.14,8.4,4.64-4.39-7.71,7.55,1.98,1.05-9.21,2.52,2.3,2.02-1.55,7.71,4.88,.26-4.07-4.72-3.68-7.56-6.89-4.91-11.58,17.85,2.13,11.33-13.97-.52-8.8-7.9-17.7-8.12-25.6,5.16,2.56,7.74,9.85,7.74,9.85,5.65,1.46,6.57-.77,5.77-5.51,1.71,2.5,3.9,3.87,7.21,5.97,.95-2.21-7.74-9.84-2.09-8.37,2.34,3.05,6.18,7.81,8.12,11.27-.36-4.09-3.03-10.43-3.28-14.54,4.72,3.69,5.22,7.54,7.29,10.97,.27-4.07,1.8-9.44-4.19-16.76l-3.77-.99c.48-1.11,6.13,5.31,6.77,7.11,3.37,7.08-4.99,.38-7.52-1.94l-.17-2.92c-15.58-12.73-3.25,7.8-6.83,9.75l-9.15-11.44,5.71,11.38c-3.28-2.07-9.45-7.4-9.63-10.31-7.07-3.09,1.91,5.42-5.47,1.45-1.07-.69-1.48-1.27-1.71-1.85l1.13,5c-1.79-2.54-7.6-6.94-4.92-6.65-9.42-2.45,2.12,13.33-7,6.85l-.34-.92c-1.34,8.31,7.1,8.02,12.36,20.51l-21.09-16.19,7.08,8.02c-.77,.23-2.32,.65-5.16-2.56,3.32,7.02,3.6,2.97,7.42,8.92-9.28-4.48-3.38,9.83-15.97-1.65,4.88,6.6,6.72,2.13,8.16,8.68-13.69-12.21-.74,5.18-8.87,1.43-6.02-7.35-.41-5.9-8.56-9.65,9.98,12.61-6.74,1.79-6.42,5.8,8.91,9.07-.26,7.77-.36,13.87-2.83-3.22-10.78,.9-16.92,.53l-1.42-1.59c8.54,9.64,3.85,10.9,3.57,14.95-5.36-5.52-7.12-8.06-8.38-11.66l-1.99,2.08c2.43,3.39,3.34,5.56,3.06,7.92l-6.28-7.3c-2.33,3.09,2.55,13.46-5.47,12.41,6.15,6.53,20.43,14.86,20.98,22.77-3.57-3.29-9.57-9-10.01-11.37,.13,.76,1.72,3.97-.38,3.15l-4.3-7.23c-4.12-.94,3.99,5.64,2.18,6.38-4.87-4.91-4.43-2.54-8.13-6.6-.15-.8,3.13,.91,1.69-1.49-2.31,.56-6.93-.6-11.21-3.73,2.91,2.65,6.59,6.58,6.17,8.26-2.35,3.07-6.81-4.94-10.9-5.87,2.74,4.04-2.51,2.26,4.76,9.61-.83,.76-4.39-2.5-6.67-4.17,1.82,4.62-5.63,7.48,3.73,13.66l.87,.15c.08,.22,.01,.31,.09,.55h.01s-.01,0-.01,0c2.68,11.86-13.69,5.42-15.11,13.12l-2.44-2.45c.07,5.52-4.4,7.72-1.09,14.91-.81,.8-6.36-2.55-8.93-5.81-.24,3.92,2.27,6.89-4.77,5.88-2.18-6.36-4.51-3.06-.98-5.27-4.81,.6-9.34-2.7-5.56,6.88-5.28-7.24-9.93-5.84-9.34-2.68l6.37,2.58c-.53,2.36-2.35,3.07-4.17,3.82l-7.55-8.92c-15.56-4.47,7.08,27.02-13.91,14.49,4.3,7.22,7.06,1.04,12.5,9.08-3.66,1.44-18.13-7.71-18.96-6.94-8.05-1.07,8.79,15.28,2.02,15.81,3.4,2.46,11.69,9.86,11.73,15.35-3.63,1.47-15.46-9.18-16.21-13.14,.36-.86,1.59-.22,2.56,.8-.24-1.89-.43-4.23-4.62-6.4l2.61,3.27c-4.26-1.73-7.45,2.09-11.45-3.54,.88,4.72,4,5.64,6.95,5.73-7.52-.98-5.23,4.98-11.45,5.49,2.15,1.08,6.1,4.04,5.54,4.54-8.57,1.3,3.4,7.74,1.35,12.37-6.38-2.57-10.02-11.36-9.62-4.24-5.09-.97-8.23-7.35-9.81-10.56,2.6,8.73-9.45,2.01-12.24,2.73l-.76-3.98c.44,2.37-.39,3.12-1.21,3.92l6.8,4.95c-1.97-.07-2.79,.71-5.23-1.75,2.88,4.82,10.53,9.01,13.85,16.21-4.25-1.72-.64,7.05-8.88-.3,6.62-1.34-8.28-7.38-6.17-12.01,.28,1.58-.55,2.33-2.53,2.26-1.01-.73-1.48-1.75-1.67-2.45-10.77-3.15,7.08,10.56,2.96,14.32-3.9-4.89-9.25-7.41-8.96-5.83,1.68-1.5,8.09,6.56,10,11.38-5.95-.89-.2,5.29-1.92,6.22l3.12,.1c3.88,4.9,2.04,5.59,1.67,8.73-3.57-3.27-.75-3.95-2.89-4.83,5.77,9.67-12.42-3.56-9.94,4.37-4.24-1.7-8.38-8.12-11.51-9.03,2.65,8.75-9.33-2.7-7.83,5.22,6.83,4.97,5.55,3.37,9.04,11.38l1.13-9.44,5.2,11.97c1.68-1.51-.35-7.07,1.61-7.03,3.21,6.43,1.9,4.8,7.57,8.93-11.05-6.67,.84,9.49-7.67,6.03l-14.55-14.68c-10.31-2.72,.77,14.24-7.83,15.49l4.13,.96c5.16,6.47-2.23,3.85-1.46,7.8-4.74-5.03-7.51-5.81-11.24-8.17,3.71,3.54-3.93,3.28,5.39,13.47l-8.64-4.23c-6.61,1.35,9.4,18.45,3.92,20.62-4.17-6.46-9.37-8.18-10.61-14.54-1.33,1.23-3.37,1.48,0,4.89-3.81-2.31,3.05,10.12-2.77,6.65,1.61,2.68,6.56,7.97,4.72,9-1.15-.83-2.41-2.41-2.41-2.41,2.41,2.41,1.04,5.52,7.71,9.67-19.19-11.3-9.87,12.11-26.4,2.44-1.14,4.43-2.92,9.36-5.09,12.24-1.3-1.62-2.43-2.44-1.44-2.41-8.03-1.05,11.9,16.16,2.85,15.07-9.93-5.86-2.17-6.38-6.42-8.1-16.64-15.52-2.59,6.98-14.66,.28l-.3-1.59c-7.51-3.41,1.12,11.07-3.36,13.26,0,0-1.26-1.59-2.41-2.45,5.93,10.48,4.33,17.51,3.4,22.99-5.3-7.28-1.88-4.79-8.88-10.56-.53,2.34,10.69,9.84,9.62,14.5-4.38-2.51-9.46-3.44-16.56-9.98l2.34-3.08c-10.22-7.43-3.2,3.81-6.16,3.71l-3.68-4.04c-2.89,5.41,6.78,15.18,1.62,18.95l3.39,2.46c7.2,12.06-7.47-3.37-2.73,6.22l-10.51-9.03c.75,3.96,3.82,15.08,2.78,19.8-5.62-8.87-5.96-15.96-8.17-22.34-1.67,1.52-4.69,6.14-.7,11.79-.3-1.59-1.89-4.79,.25-3.92,5.73,9.63,6.94,15.98,3.6,18.99-18.39-19.49-13.05,3.52-30.07-8.87,1.39,12.62-14.14,8.17-19.55,15.85,17.07,12.4-1.49,2.33,14.06,17.05-.56,2.49-1.38,2.83-2.51,1.98l-13.66-4.4c-5.5-3.31-1.89-4.79-5.43-8.04-4.5,2.18-7.82-5.01-14.05-6.81,5.87,4.95,6.6,8.91,2.63,8.75l9.66,4.29c3.4,12.72-16.74-8.65-13.46,4.02l-3.28-6.25c.4,5.22-8.99,8.82,.81,23.33-2.17-1.32-6.88-4.89-6.91-7.04-7.59,3.95,.12,25.78-11.86,22.78l-3.26-4.13c0,2.15,5.09,8.82,.01,6.45-1.46-1.6-3.26-4.12-3.98-3.84,.71,1.84,3.63,9.34,.05,8.61l-2.95-5.38c-10.47,.79,1.52,18.77-.66,26.03-10.89-10.9-18.86-10-22.83-9.55l-1.47-1.62c-7.89,5.21-2.09,20.16-3.87,30.51-15.6-8.05-17.7,7.83-30.39,7.25,2.91,1.05,8.35,8.63,8.36,10.8-3.63-.78,3.64,11.48-6.13,1.28l.69-.32c-10.88-8.72-11.18-3.19-13.73-1.18l12.71,13.44c-24.98-13.03-8.62,22.61-28.91,8.86,1.83,4.71,.02,6.45,1.86,11.14l-6.94-7.08c-5.77,2.2-8.64,3.32-11.89,9.92l-4.01-6.01c-3.23,2.33,16.71,23.7,14.56,26.68l-11.24-9.68c-4.68,5.02-18.78,.75-14.07,15.03-1.46-1.61-4.34-4.77-3.98-5.98-2.56,2.01-15.91,1.76-.71,15.28-9.41-9.28-5.91,4.09-4.41,10.83l-6.5-7.3c6.61,11.02,8.96,13.5,8.31,19.02-1.63-.16-6.16-4.87-3.42-4.08-6.05-1.17,4.64,8.43-1.99,7.71l-3.31-5.5c-3.04,1.98-.47,4.14,3.29,10.65,1.19,4.34-6.49,3.02-13.11-2.84,3.47,4.14,7.18,10.59,3.91,10.27-2.56-2.15-3.48-4.15-3.93-5.14-8.89-.49,1.79,14.25-7.87,10.37-2.35-2.22-3.68-3.18-4.61-3.62,3.5-3.16,6.55-5.48,6.81-4.72-6.36-6.35-10.17-4.77-16.82-15.69,2.64,6.95,9.37,21.05,3.76,20.69-.74-.49-1.47-.97-2.55-1.85l-.44-.98c-1.24-.03-1.19,1.11-.63,2.69-1.88-.21-3.19-.45-4.08,.27-5.58-4.95-5.92,.25-7.52,1.34,7.08,6.84,4.2,7.49,11.6,11.58-.71-.28-.58-1.09,.02-2.27,0-.41,.13-.75-.15-1.29,.17,.22,.35,.47,.52,.7,.68-1.08,1.67-2.39,2.87-3.8,2.48,4.59,4.35,8.67-1,6.3,3.79,5.16,7.63,10.51,9.36,13.09-11.55-7.86-20.33-9.56-26.81-15.04-.19,8-7.07,12.23,3.44,27.87,.52,2.85-5.09-2.4-7.58-4.02-.65-1.99,.36-2.58-1.16-4.82,1.03,5.68-5.59,8.21,2.99,17.89-7.06-1.18-6.76-10.05-9.3-4.52l-2.25-3.33c-22.53-6.64,10.43,36.2-17.1,26.29,1.76,.54,2.59,.76,4.25,2.17-18.29,1.78-12.9,28.43-35.9,25.25-5.45,.18,.08,6.31,2.8,12.46l-8.09-6.86,5.7,11.55c2.16,10.47-25.56-11.11-18.88,6.09l5.72,4.35c-2.84,.95-3.02,8.97-8.5,2.87,.73,1.11,4.62,5.86,1.25,3.97l-3.97-3.85,2.06,11.35c-6.43,.78-14.97-16.07-20.99-11.57-.45,3.46,5.83,16.95,9.18,18.83,.98-.6,4.46,.42,8.43,4.27l.25,3.83c11.21,11.84,21.64,25,34.08,28.65l-4-10.1,6.58,4.6-2.22,2.93c6.73,3.8,2.99-1.78,.83-6.01,3.22,2.72,5.73,4.37,7.44,4.87l-8.01-14c4.87,4.14,7.6,10.28,12.11,10.75-3.71-6.51-11.46-8.75-12.49-14.43,6.7,3.76,10.55,8.46,7.78,2.27,3.21,2.72,4.74,4.98,5.37,6.96-2.03-5.09,2.54-5.55-2.81-12.46,7.99,4.93,3.48-6.85,14.24,4.2-2.13-3.09-5.88-11.25-4.93-13.11,10.5,15.61,6.02-4.49,19.35,10.17-9.85-13.63,1.63-12.07-1.52-21.95,.74,1.12,2.27,3.38,1.37,3.07,2.87-.92,6.96,2.07,10.4,3.07-9.46-9.93-8.74-15.1-13.13-22.67,11.68,7.03,9.99,12.79,19.71,21.04-7.98-7.74-3.83-11.88-11.16-17.62,7.57,4.01,4.34,1.28,13.3,8.4-11.83-12.43-.41-3.71-6.39-12.62,8.55,3.4,12.03,10.69,11.16,4.18,5.05,2.36,6.85,9.17,6.85,9.17Zm46.05-88.1c.07,.07,.11,.11,.14,.14-.42,.74-.77,1.37-.99,1.78,.19-.39,.45-.92,.85-1.92Zm5.52-5.75c-.96,.41-1.86,1.22-2.72,2.18-2.6-2.2-4.86-4.89-4.17-5.33,1.3,1.92,4.01,1.97,6.89,3.15Zm-60.17-36.24c-.09-1.88,1.57-.81,3.12,.49-.3,.54-.56,1.27-.72,2.4,.23,.29,.48,.64,.75,.96-1.25-1.41-2.39-2.75-3.14-3.84Z"/><path class="cls-1" d="M166.84,723.47c.03,.28,.25,.65,.14,.88,.8,.43,1.49,.78,2.1,1.03-.63-.85-1.25-1.69-1.87-2.49-.12,.2-.27,.39-.37,.59Z"/><path class="cls-1" d="M687.83,222.26l-.28-.04c.38,.18,.73,.35,1.24,.74-.42-.26-.63-.47-.96-.7Z"/><polygon class="cls-1" points="310.6 684.37 308.83 682.62 309.88 684.65 310.6 684.37"/><path class="cls-1" d="M742.76,215.04c.67,.55,1.42,1.07,2.19,1.37-.48-.44-1.28-.89-2.19-1.37Z"/><path class="cls-1" d="M757.72,203.18l4.38,.58c-2.23-.59-3.5-.66-4.38-.58Z"/><path class="cls-1" d="M771.48,196.3c-1.09-1.35-1.97-2.3-2.78-3.18-.03-.01-.04,0-.07-.03l2.85,3.21Z"/><path class="cls-1" d="M615.81,368.58c-.1,.18-.14,.41-.08,.71,.42,2.28,.52,1.12,.08-.71Z"/><path class="cls-1" d="M648.31,303.5c.75,1.78,1.48,3.53,1.72,4.85,1.4-.34,2.21-.87-1.72-4.85Z"/><path class="cls-1" d="M569.75,431.48s-.06-.06-.12-.13c-.09,.14-.22,.22-.34,.34l.45-.21Z"/><path class="cls-1" d="M647.64,310.51c2.26,.52,2.68-.51,2.39-2.15-1.18,.25-2.73,.38-2.39,2.15Z"/><path class="cls-1" d="M819.3,154.72l.78-.21c-.47-.45-.81-.85-1.06-1.18l.28,1.39Z"/><path class="cls-1" d="M819.02,153.33l-.27-1.37c-.25,.25-.42,.53,.27,1.37Z"/><path class="cls-1" d="M818.16,149.05l.59,2.91c.42-.39,1.13-.66-.59-2.91Z"/><path class="cls-1" d="M802.44,165.17l2.37,2.68c-.44-.6-1.2-1.48-2.37-2.68Z"/><path class="cls-1" d="M799.02,170.05c1.56-.42,7.86,2.89,7.67-.07l-1.88-2.13c3.11,4.4-9.1-2.99-5.79,2.2Z"/><path class="cls-1" d="M750.51,156.22l5.49-1.47c-3.29-2.07-7.71-4.88-6.77-7.11-12.4-3.63,6.92,5.1,1.29,8.58Z"/><path class="cls-1" d="M735.84,163.12c.62-3.12-3.93-3.88-5.35-5.49,1.27,3.63,1.6,4.54,5.35,5.49Z"/><path class="cls-1" d="M657.97,241.06l-6.14-6.51c-.53,2.35,2.44,2.46,6.14,6.51Z"/><polygon class="cls-1" points="675.84 288.66 681.18 291.19 676.04 284.72 675.84 288.66"/><polygon class="cls-1" points="621.92 252.4 621.64 250.87 621.54 255.57 621.92 252.4"/><path class="cls-1" d="M493.44,385.6l8.24,7.36c-.43-2.37-8.99-11.33-8.24-7.36Z"/><path class="cls-1" d="M444.95,450.06c-4.52-3.28-8.61-4.19-5.76,.61,1.81-.73,6.11,1.03,5.76-.61Z"/><polygon class="cls-1" points="262.99 606.9 261.51 603.16 261.55 607.47 262.99 606.9"/></g></svg>